<svg width="182" height="182" viewBox="0 0 182 182" fill="none" xmlns="http://www.w3.org/2000/svg">
<g clip-path="url(#clip0_1924_3905)">
<path d="M90.9995 93.9357C91.2876 93.9357 91.5758 93.9286 91.8635 93.9144C92.1517 93.9002 92.4389 93.8788 92.7256 93.8509C93.0129 93.8224 93.2987 93.7874 93.584 93.7447C93.8688 93.7025 94.1527 93.6532 94.4357 93.5968C94.7182 93.5409 94.9992 93.4779 95.2789 93.4077C95.5585 93.3376 95.8362 93.2608 96.1121 93.1769C96.3879 93.0935 96.6619 93.003 96.933 92.9058C97.2045 92.8086 97.4733 92.7053 97.7396 92.5949C98.006 92.4845 98.2695 92.3679 98.5297 92.2446C98.7904 92.1214 99.0478 91.9915 99.3023 91.856C99.5563 91.72 99.8071 91.5778 100.054 91.4299C100.301 91.2816 100.545 91.1275 100.785 90.9673C101.024 90.8071 101.26 90.6412 101.491 90.4692C101.723 90.2976 101.95 90.1204 102.173 89.9374C102.396 89.7545 102.614 89.5663 102.828 89.3729C103.041 89.1796 103.25 88.9805 103.454 88.7767C103.657 88.5729 103.856 88.3643 104.05 88.1506C104.243 87.9373 104.431 87.7188 104.614 87.496C104.797 87.2733 104.975 87.0463 105.146 86.8145C105.318 86.5832 105.484 86.3476 105.644 86.1078C105.804 85.868 105.959 85.6249 106.106 85.3775C106.255 85.13 106.397 84.8793 106.533 84.6253C106.669 84.3712 106.798 84.1134 106.921 83.8532C107.044 83.5925 107.161 83.329 107.271 83.0626C107.382 82.7963 107.486 82.5275 107.583 82.256C107.68 81.9849 107.77 81.7114 107.854 81.4355C107.938 81.1597 108.015 80.882 108.085 80.6023C108.154 80.3227 108.218 80.0416 108.274 79.7587C108.33 79.4762 108.38 79.1918 108.422 78.907C108.464 78.6217 108.499 78.3359 108.527 78.0491C108.556 77.7619 108.577 77.4747 108.591 77.187C108.605 76.8988 108.612 76.6106 108.612 76.3225C108.612 76.0343 108.605 75.7461 108.591 75.4585C108.577 75.1703 108.556 74.8831 108.527 74.5963C108.499 74.3096 108.464 74.0233 108.422 73.7385C108.38 73.4531 108.33 73.1692 108.274 72.8863C108.218 72.6038 108.154 72.3227 108.085 72.0431C108.015 71.7635 107.938 71.4857 107.854 71.2099C107.77 70.934 107.68 70.6606 107.583 70.389C107.486 70.1174 107.382 69.8487 107.271 69.5823C107.161 69.316 107.044 69.0524 106.921 68.7922C106.798 68.5316 106.669 68.2742 106.533 68.0202C106.397 67.7656 106.255 67.5149 106.106 67.2675C105.959 67.0206 105.804 66.777 105.644 66.5376C105.484 66.2978 105.318 66.0622 105.146 65.8305C104.975 65.5992 104.797 65.3717 104.614 65.1489C104.431 64.9262 104.243 64.7081 104.05 64.4944C103.856 64.2811 103.657 64.0721 103.454 63.8683C103.25 63.6645 103.041 63.4659 102.828 63.2725C102.614 63.0787 102.396 62.8905 102.173 62.7076C101.95 62.5246 101.723 62.3473 101.491 62.1758C101.26 62.0042 101.024 61.8383 100.785 61.6781C100.545 61.5179 100.301 61.3639 100.054 61.2155C99.8071 61.0672 99.5563 60.9255 99.3023 60.7894C99.0478 60.6534 98.7904 60.524 98.5297 60.4008C98.2695 60.2776 98.006 60.1605 97.7396 60.0505C97.4733 59.9401 97.2045 59.8363 96.933 59.7392C96.6619 59.642 96.3879 59.5519 96.1121 59.4681C95.8362 59.3846 95.5585 59.3074 95.2789 59.2377C94.9992 59.1676 94.7182 59.1045 94.4357 59.0481C94.1527 58.9917 93.8688 58.9424 93.584 58.9002C93.2987 58.8581 93.0129 58.8225 92.7256 58.7946C92.4389 58.7661 92.1517 58.7453 91.8635 58.731C91.5758 58.7168 91.2876 58.7097 90.9995 58.7097C90.7113 58.7097 90.4231 58.7168 90.1355 58.731C89.8473 58.7453 89.5601 58.7661 89.2733 58.7946C88.9861 58.8225 88.7003 58.8581 88.415 58.9002C88.1301 58.9424 87.8462 58.9917 87.5633 59.0481C87.2808 59.1045 86.9993 59.1676 86.7201 59.2377C86.4405 59.3074 86.1627 59.3846 85.8869 59.4681C85.6111 59.5519 85.3371 59.642 85.066 59.7392C84.7944 59.8363 84.5257 59.9401 84.2593 60.0505C83.993 60.1605 83.7294 60.2776 83.4688 60.4008C83.2086 60.524 82.9512 60.6534 82.6967 60.7894C82.4426 60.9255 82.1919 61.0672 81.9445 61.2155C81.6976 61.3639 81.454 61.5179 81.2141 61.6781C80.9748 61.8383 80.7388 62.0042 80.5075 62.1758C80.2762 62.3473 80.0487 62.5246 79.8259 62.7076C79.6032 62.8905 79.3851 63.0787 79.1714 63.2725C78.9576 63.4659 78.7491 63.6645 78.5453 63.8683C78.3415 64.0721 78.1429 64.2811 77.949 64.4944C77.7557 64.7081 77.5675 64.9262 77.3846 65.1489C77.2016 65.3717 77.0243 65.5992 76.8528 65.8305C76.6807 66.0622 76.5148 66.2978 76.3546 66.5376C76.1949 66.777 76.0404 67.0206 75.8925 67.2675C75.7442 67.5149 75.602 67.7656 75.4664 68.0202C75.3304 68.2742 75.201 68.5316 75.0778 68.7922C74.9546 69.0524 74.8375 69.316 74.7271 69.5823C74.6171 69.8487 74.5133 70.1174 74.4162 70.389C74.319 70.6606 74.2285 70.934 74.1451 71.2099C74.0612 71.4857 73.9844 71.7635 73.9142 72.0431C73.8446 72.3227 73.7811 72.6038 73.7251 72.8863C73.6687 73.1692 73.6194 73.4531 73.5772 73.7385C73.5351 74.0233 73.4995 74.3096 73.4716 74.5963C73.4431 74.8831 73.4218 75.1703 73.4076 75.4585C73.3938 75.7461 73.3867 76.0343 73.3867 76.3225C73.3867 76.6106 73.3938 76.8988 73.4076 77.187C73.4218 77.4747 73.4431 77.7619 73.4716 78.0491C73.4995 78.3359 73.5351 78.6217 73.5772 78.907C73.6194 79.1918 73.6687 79.4762 73.7251 79.7587C73.7811 80.0416 73.8446 80.3227 73.9142 80.6023C73.9844 80.882 74.0612 81.1597 74.1451 81.4355C74.2285 81.7114 74.319 81.9849 74.4162 82.256C74.5133 82.5275 74.6171 82.7963 74.7271 83.0626C74.8375 83.329 74.9546 83.5925 75.0778 83.8532C75.201 84.1134 75.3304 84.3712 75.4664 84.6253C75.602 84.8793 75.7442 85.13 75.8925 85.3775C76.0404 85.6249 76.1949 85.868 76.3546 86.1078C76.5148 86.3476 76.6807 86.5832 76.8528 86.8145C77.0243 87.0463 77.2016 87.2733 77.3846 87.496C77.5675 87.7188 77.7557 87.9373 77.949 88.1506C78.1429 88.3643 78.3415 88.5729 78.5453 88.7767C78.7491 88.9805 78.9576 89.1796 79.1714 89.3729C79.3851 89.5663 79.6032 89.7545 79.8259 89.9374C80.0487 90.1204 80.2762 90.2976 80.5075 90.4692C80.7392 90.6412 80.9748 90.8071 81.2141 90.9673C81.454 91.1275 81.6976 91.2816 81.9445 91.4299C82.1919 91.5778 82.4426 91.72 82.6967 91.856C82.9512 91.9915 83.2086 92.1214 83.4688 92.2446C83.7294 92.3679 83.993 92.4845 84.2593 92.5949C84.5257 92.7053 84.7944 92.8086 85.066 92.9058C85.3371 93.003 85.6111 93.0935 85.8869 93.1769C86.1627 93.2608 86.4405 93.3376 86.7201 93.4077C86.9993 93.4779 87.2808 93.5409 87.5633 93.5968C87.8462 93.6532 88.1301 93.7025 88.415 93.7447C88.7003 93.7874 88.9861 93.8224 89.2733 93.8509C89.5601 93.8788 89.8473 93.9002 90.1355 93.9144C90.4231 93.9286 90.7113 93.9357 90.9995 93.9357ZM90.9995 64.5806C91.1914 64.5806 91.3839 64.5854 91.5758 64.5949C91.7678 64.6043 91.9592 64.6186 92.1503 64.637C92.3417 64.656 92.5323 64.6797 92.7223 64.7077C92.9124 64.7361 93.102 64.7688 93.2901 64.8062C93.4788 64.8437 93.666 64.8859 93.8527 64.9323C94.039 64.9792 94.2243 65.0304 94.4082 65.0864C94.5921 65.1423 94.7741 65.2025 94.9551 65.2669C95.1362 65.3319 95.3153 65.4011 95.4931 65.4745C95.6703 65.548 95.8462 65.6257 96.0196 65.7082C96.1936 65.7902 96.3652 65.8764 96.5344 65.967C96.704 66.0575 96.8714 66.1523 97.0358 66.2513C97.2008 66.3499 97.3633 66.4528 97.523 66.5594C97.6828 66.6661 97.8396 66.777 97.9942 66.8912C98.1487 67.0059 98.2999 67.1239 98.4487 67.2462C98.597 67.368 98.7425 67.4931 98.8847 67.6225C99.0274 67.7514 99.1663 67.8841 99.3023 68.0197C99.4383 68.1557 99.5705 68.2946 99.6995 68.4372C99.8289 68.5794 99.954 68.7249 100.076 68.8738C100.198 69.0221 100.316 69.1738 100.431 69.3278C100.545 69.4823 100.656 69.6392 100.763 69.7989C100.869 69.9591 100.972 70.1212 101.071 70.2861C101.17 70.4511 101.264 70.6179 101.355 70.7876C101.446 70.9568 101.532 71.1284 101.614 71.3023C101.696 71.4758 101.774 71.6516 101.847 71.8294C101.921 72.0066 101.99 72.1858 102.055 72.3668C102.12 72.5479 102.18 72.7304 102.236 72.9142C102.292 73.0981 102.343 73.283 102.39 73.4697C102.436 73.656 102.478 73.8432 102.516 74.0318C102.553 74.2205 102.586 74.4096 102.614 74.5996C102.643 74.7897 102.666 74.9802 102.685 75.1717C102.704 75.3627 102.718 75.5547 102.727 75.7466C102.737 75.9386 102.741 76.1305 102.741 76.3225C102.741 76.5149 102.737 76.7069 102.727 76.8988C102.718 77.0908 102.704 77.2822 102.685 77.4737C102.666 77.6647 102.643 77.8553 102.614 78.0453C102.586 78.2354 102.553 78.425 102.516 78.6131C102.478 78.8018 102.436 78.9894 102.39 79.1757C102.343 79.362 102.292 79.5473 102.236 79.7312C102.18 79.9151 102.12 80.0976 102.055 80.2781C101.99 80.4592 101.921 80.6383 101.847 80.8161C101.774 80.9933 101.696 81.1692 101.614 81.3431C101.532 81.5166 101.446 81.6882 101.355 81.8578C101.264 82.027 101.17 82.1944 101.071 82.3593C100.972 82.5238 100.869 82.6863 100.763 82.846C100.656 83.0058 100.545 83.1631 100.431 83.3172C100.316 83.4717 100.198 83.6229 100.076 83.7717C99.954 83.92 99.8289 84.0655 99.6995 84.2082C99.5705 84.3504 99.4383 84.4897 99.3023 84.6253C99.1663 84.7613 99.0274 84.8935 98.8847 85.0229C98.7425 85.1519 98.597 85.2775 98.4487 85.3993C98.2999 85.5211 98.1487 85.6396 97.9942 85.7538C97.8396 85.8685 97.6828 85.9789 97.523 86.0856C97.3633 86.1922 97.2008 86.295 97.0358 86.3941C96.8714 86.4927 96.704 86.5875 96.5344 86.678C96.3652 86.7685 96.1936 86.8548 96.0196 86.9373C95.8462 87.0192 95.6703 87.097 95.4931 87.1709C95.3153 87.2444 95.1362 87.3136 94.9551 87.378C94.7741 87.443 94.5921 87.5032 94.4082 87.5591C94.2243 87.6145 94.039 87.6657 93.8527 87.7126C93.666 87.7591 93.4788 87.8013 93.2901 87.8387C93.102 87.8762 92.9124 87.9093 92.7223 87.9373C92.5323 87.9657 92.3417 87.989 92.1503 88.0079C91.9592 88.0269 91.7678 88.0411 91.5758 88.0506C91.3839 88.0596 91.1914 88.0643 90.9995 88.0643C90.8075 88.0643 90.6151 88.0596 90.4231 88.0506C90.2312 88.0411 90.0397 88.0269 89.8487 88.0079C89.6572 87.989 89.4667 87.9657 89.2766 87.9373C89.0866 87.9093 88.897 87.8762 88.7088 87.8387C88.5202 87.8013 88.333 87.7591 88.1463 87.7126C87.96 87.6657 87.7747 87.6145 87.5908 87.5591C87.4069 87.5032 87.2249 87.443 87.0438 87.378C86.8628 87.3136 86.6836 87.2444 86.5059 87.1709C86.3286 87.097 86.1528 87.0192 85.9793 86.9373C85.8054 86.8548 85.6338 86.7685 85.4641 86.678C85.2949 86.5875 85.1276 86.4927 84.9627 86.3941C84.7982 86.295 84.6356 86.1922 84.4759 86.0856C84.3162 85.9789 84.1593 85.8685 84.0048 85.7538C83.8503 85.6396 83.6991 85.5211 83.5503 85.3993C83.4019 85.2775 83.2564 85.1519 83.1142 85.0229C82.9716 84.8935 82.8327 84.7613 82.6967 84.6253C82.5607 84.4897 82.4284 84.3504 82.2995 84.2082C82.1701 84.0655 82.0445 83.92 81.9227 83.7717C81.8009 83.6229 81.6829 83.4717 81.5682 83.3172C81.454 83.1631 81.3431 83.0058 81.2364 82.846C81.1298 82.6863 81.0269 82.5238 80.9279 82.3593C80.8293 82.1944 80.7345 82.027 80.644 81.8578C80.5534 81.6882 80.4672 81.5166 80.3847 81.3431C80.3027 81.1692 80.225 80.9933 80.1515 80.8161C80.0776 80.6383 80.0089 80.4592 79.9439 80.2781C79.879 80.0976 79.8188 79.9151 79.7634 79.7312C79.7074 79.5473 79.6562 79.362 79.6093 79.1757C79.5629 78.9894 79.5207 78.8018 79.4832 78.6131C79.4458 78.425 79.4126 78.2354 79.3847 78.0453C79.3562 77.8553 79.333 77.6647 79.314 77.4737C79.2951 77.2822 79.2813 77.0908 79.2719 76.8988C79.2624 76.7069 79.2576 76.5149 79.2576 76.3225C79.2576 76.1305 79.2624 75.9386 79.2719 75.7466C79.2813 75.5547 79.2951 75.3627 79.314 75.1717C79.333 74.9802 79.3562 74.7897 79.3847 74.5996C79.4126 74.4096 79.4458 74.2205 79.4832 74.0318C79.5207 73.8432 79.5629 73.656 79.6093 73.4697C79.6562 73.283 79.7074 73.0981 79.7634 72.9142C79.8188 72.7304 79.879 72.5479 79.9439 72.3668C80.0089 72.1858 80.0776 72.0066 80.1515 71.8294C80.225 71.6516 80.3027 71.4758 80.3847 71.3023C80.4672 71.1284 80.5534 70.9568 80.644 70.7876C80.7345 70.6179 80.8293 70.4511 80.9279 70.2861C81.0269 70.1212 81.1298 69.9591 81.2364 69.7989C81.3431 69.6392 81.454 69.4823 81.5682 69.3278C81.6829 69.1738 81.8009 69.0221 81.9227 68.8738C82.0445 68.7249 82.1701 68.5794 82.2995 68.4372C82.4284 68.2946 82.5607 68.1557 82.6967 68.0197C82.8327 67.8841 82.9716 67.7514 83.1142 67.6225C83.2564 67.4931 83.4019 67.368 83.5503 67.2462C83.6991 67.1239 83.8503 67.0059 84.0048 66.8912C84.1593 66.777 84.3162 66.6661 84.4759 66.5594C84.6356 66.4528 84.7982 66.3499 84.9632 66.2513C85.1276 66.1523 85.2949 66.0575 85.4646 65.967C85.6338 65.8764 85.8054 65.7902 85.9793 65.7082C86.1528 65.6257 86.3286 65.548 86.5059 65.4745C86.6836 65.4011 86.8628 65.3319 87.0438 65.2669C87.2249 65.2025 87.4069 65.1423 87.5908 65.0864C87.7747 65.0304 87.96 64.9792 88.1463 64.9323C88.333 64.8859 88.5202 64.8437 88.7088 64.8062C88.897 64.7688 89.0866 64.7361 89.2766 64.7077C89.4667 64.6797 89.6572 64.656 89.8487 64.637C90.0397 64.6186 90.2312 64.6043 90.4231 64.5949C90.6151 64.5854 90.8075 64.5806 90.9995 64.5806Z" fill="#FF8144"/>
<path d="M155.581 149.71C155.677 149.71 155.773 149.705 155.868 149.695C155.964 149.686 156.059 149.672 156.153 149.653C156.247 149.634 156.341 149.611 156.433 149.583C156.525 149.555 156.615 149.523 156.704 149.486C156.793 149.449 156.88 149.408 156.965 149.363C157.049 149.318 157.131 149.268 157.212 149.215C157.292 149.161 157.368 149.104 157.443 149.043C157.517 148.982 157.588 148.918 157.656 148.85C157.724 148.782 157.789 148.711 157.85 148.636C157.911 148.562 157.968 148.485 158.021 148.405C158.075 148.325 158.124 148.243 158.169 148.158C158.215 148.073 158.256 147.986 158.293 147.897C158.33 147.809 158.362 147.718 158.39 147.626C158.418 147.534 158.441 147.441 158.46 147.347C158.478 147.253 158.493 147.157 158.502 147.062C158.512 146.966 158.516 146.87 158.516 146.774V121.822L176.716 108.172C176.975 107.977 177.222 107.767 177.457 107.543C177.692 107.318 177.913 107.081 178.12 106.832C178.327 106.582 178.52 106.321 178.697 106.049C178.874 105.777 179.035 105.496 179.179 105.205C179.325 104.914 179.452 104.616 179.562 104.311C179.672 104.005 179.764 103.695 179.839 103.379C179.913 103.063 179.969 102.743 180.007 102.421C180.044 102.099 180.062 101.775 180.062 101.45C180.062 101.209 180.051 100.967 180.03 100.726C180.008 100.485 179.976 100.246 179.934 100.008C179.891 99.7692 179.839 99.5336 179.776 99.3C179.713 99.0663 179.64 98.836 179.557 98.6085C179.474 98.3814 179.382 98.1582 179.279 97.9392C179.177 97.7198 179.065 97.5055 178.944 97.2961C178.824 97.0866 178.694 96.8828 178.555 96.6847C178.416 96.4865 178.269 96.2951 178.114 96.1097C177.958 95.9244 177.795 95.7462 177.624 95.5746C177.453 95.4035 177.275 95.2405 177.09 95.0846C176.904 94.9291 176.713 94.7817 176.515 94.6428C176.317 94.504 176.113 94.3736 175.904 94.2528C175.694 94.1314 175.48 94.0196 175.261 93.9167C175.042 93.8144 174.819 93.7215 174.592 93.6381C174.365 93.5551 174.135 93.4821 173.901 93.4191C173.667 93.3556 173.432 93.303 173.193 93.2603C172.657 93.1503 172.114 93.0949 171.566 93.0939C171.018 93.093 170.476 93.147 169.939 93.2551C169.402 93.3636 168.881 93.5248 168.376 93.7381C167.871 93.9513 167.393 94.213 166.941 94.5225L164.27 96.2837V35.5194C164.272 35.3459 164.259 35.1734 164.231 35.0023C164.203 34.8312 164.161 34.6639 164.103 34.5004C164.045 34.3364 163.973 34.1795 163.888 34.0283C163.802 33.8776 163.704 33.7354 163.593 33.6017C163.482 33.4686 163.361 33.3458 163.228 33.234C163.096 33.1216 162.954 33.0226 162.804 32.9358C162.654 32.8486 162.498 32.7756 162.335 32.7169C162.171 32.6576 162.004 32.6135 161.833 32.5837L129.161 26.8891V20.5485C129.161 20.4522 129.156 20.3565 129.147 20.2608C129.138 20.165 129.124 20.0698 129.105 19.9759C129.086 19.8816 129.063 19.7882 129.035 19.6963C129.007 19.6043 128.974 19.5138 128.938 19.4252C128.901 19.3361 128.86 19.2493 128.815 19.1645C128.769 19.0797 128.72 18.9977 128.666 18.9176C128.613 18.8375 128.556 18.7602 128.495 18.6863C128.434 18.6119 128.37 18.5408 128.301 18.4725C128.234 18.4047 128.163 18.3403 128.088 18.2792C128.014 18.218 127.937 18.1611 127.856 18.1076C127.777 18.054 127.694 18.0047 127.609 17.9597C127.525 17.9142 127.438 17.873 127.349 17.8365C127.26 17.7995 127.17 17.7673 127.078 17.7393C126.986 17.7113 126.893 17.6881 126.799 17.6692C126.704 17.6507 126.609 17.6365 126.514 17.627C126.418 17.6175 126.322 17.6128 126.226 17.6128H114.484V2.9357C114.484 2.83948 114.479 2.74327 114.47 2.64753C114.46 2.55227 114.446 2.457 114.427 2.36268C114.409 2.26836 114.386 2.17547 114.358 2.08352C114.33 1.99157 114.297 1.90105 114.26 1.81194C114.223 1.72331 114.183 1.63658 114.137 1.55174C114.092 1.4669 114.042 1.38443 113.989 1.30481C113.936 1.22471 113.878 1.14745 113.817 1.07304C113.757 0.999104 113.692 0.927536 113.624 0.85976C113.556 0.791984 113.485 0.727526 113.411 0.666385C113.336 0.605245 113.259 0.547896 113.179 0.494812C113.099 0.441255 113.017 0.391964 112.932 0.346464C112.848 0.301437 112.76 0.260203 112.672 0.223234C112.583 0.18674 112.493 0.15451 112.401 0.126547C112.309 0.0985833 112.215 0.0753594 112.121 0.0564011C112.027 0.0374427 111.932 0.0236979 111.836 0.0142188C111.74 0.00473958 111.645 0 111.548 0H70.4515C70.3553 0 70.2596 0.00473958 70.1638 0.0142188C70.0681 0.0236979 69.9733 0.0374427 69.879 0.0564011C69.7847 0.0753594 69.6913 0.0985833 69.5994 0.126547C69.5074 0.15451 69.4169 0.18674 69.3283 0.223234C69.2396 0.260203 69.1524 0.301437 69.0681 0.346464C68.9832 0.391964 68.9007 0.441255 68.8206 0.494812C68.741 0.547896 68.6638 0.605245 68.5894 0.666385C68.5149 0.727526 68.4438 0.791984 68.3761 0.85976C68.3078 0.927536 68.2434 0.999104 68.1822 1.07304C68.1216 1.14745 68.0642 1.22471 68.0107 1.30481C67.9576 1.38443 67.9083 1.4669 67.8628 1.55174C67.8173 1.63658 67.7765 1.72331 67.7395 1.81194C67.7026 1.90105 67.6703 1.99157 67.6424 2.08352C67.6144 2.17547 67.5912 2.26836 67.5727 2.36268C67.5538 2.457 67.5395 2.55227 67.5301 2.64753C67.521 2.74327 67.5163 2.83948 67.5163 2.9357V17.6128H55.774C55.6783 17.6128 55.582 17.6175 55.4863 17.627C55.3906 17.6365 55.2958 17.6507 55.2015 17.6692C55.1071 17.6881 55.0142 17.7113 54.9223 17.7393C54.8299 17.7673 54.7398 17.7995 54.6507 17.8365C54.5621 17.873 54.4753 17.9142 54.3905 17.9597C54.3057 18.0047 54.2232 18.054 54.1431 18.1076C54.0635 18.1611 53.9862 18.218 53.9118 18.2792C53.8374 18.3403 53.7663 18.4047 53.6985 18.4725C53.6303 18.5408 53.5658 18.6119 53.5052 18.6863C53.444 18.7602 53.3867 18.8375 53.3336 18.9176C53.28 18.9977 53.2307 19.0797 53.1852 19.1645C53.1402 19.2493 53.099 19.3361 53.062 19.4252C53.0255 19.5138 52.9928 19.6043 52.9653 19.6963C52.9374 19.7882 52.9137 19.8816 52.8952 19.9759C52.8762 20.0698 52.8625 20.165 52.853 20.2608C52.8435 20.3565 52.8388 20.4522 52.8388 20.5485V26.8891L20.0494 32.6131C19.8783 32.6425 19.7115 32.687 19.5484 32.7463C19.3854 32.805 19.2285 32.878 19.0782 32.9647C18.928 33.052 18.7868 33.151 18.6545 33.2633C18.5218 33.3752 18.4 33.498 18.2891 33.6311C18.1787 33.7648 18.0801 33.907 17.9948 34.0577C17.909 34.2089 17.8374 34.3658 17.7796 34.5298C17.7222 34.6933 17.6791 34.8606 17.6512 35.0317C17.6232 35.2028 17.6104 35.3753 17.6128 35.5488V96.2837L14.9709 94.5225C14.8591 94.4433 14.7458 94.367 14.6301 94.2931C14.515 94.2196 14.3974 94.1485 14.2785 94.0807C14.16 94.013 14.0391 93.9475 13.9173 93.8859C13.795 93.8238 13.6713 93.7646 13.5462 93.7087C13.4216 93.6527 13.295 93.6001 13.1675 93.5504C13.04 93.5006 12.9111 93.4537 12.7812 93.4106C12.6514 93.3669 12.5206 93.3267 12.3888 93.2897C12.2566 93.2527 12.1239 93.2191 11.9907 93.1887C11.857 93.1579 11.7229 93.1309 11.5878 93.1067C11.4532 93.083 11.3177 93.0627 11.1816 93.0451C11.0461 93.0281 10.9096 93.0138 10.7731 93.0034C10.6366 92.993 10.4996 92.9859 10.3631 92.9821C10.2261 92.9778 10.0892 92.9774 9.95218 92.9802C9.8152 92.983 9.67823 92.9897 9.54173 92.9992C9.40523 93.0086 9.26873 93.0214 9.1327 93.038C8.99668 93.0541 8.86112 93.0736 8.72652 93.0968C8.59144 93.1195 8.45684 93.1456 8.32318 93.1755C8.18953 93.2048 8.05634 93.2376 7.92411 93.2736C7.79235 93.3096 7.66106 93.3489 7.53072 93.3916C7.40039 93.4342 7.27147 93.4798 7.1435 93.5286C7.01553 93.5774 6.88898 93.6295 6.76339 93.6845C6.63826 93.7395 6.51408 93.7973 6.39133 93.8584C6.26905 93.9196 6.14819 93.984 6.02875 94.0509C5.90931 94.1182 5.7913 94.1878 5.67565 94.2608C5.55953 94.3338 5.44531 94.4097 5.33298 94.4879C5.22065 94.5665 5.11069 94.6476 5.00216 94.7315C4.89409 94.8154 4.78793 94.9016 4.68366 94.9907C4.57986 95.0798 4.47796 95.1713 4.37843 95.2656C4.2789 95.3595 4.18173 95.4562 4.08694 95.5552C3.99215 95.6538 3.89973 95.7552 3.81015 95.8585C3.7201 95.9619 3.63289 96.0671 3.54853 96.1751C3.46369 96.2827 3.38169 96.3922 3.30254 96.5041C3.22292 96.6159 3.14661 96.7292 3.07315 96.8448C2.99921 96.96 2.92859 97.0776 2.86034 97.1965C2.79256 97.3155 2.72763 97.4359 2.66554 97.5577C2.60345 97.68 2.54468 97.8037 2.48876 97.9288C2.43283 98.0534 2.37974 98.18 2.32998 98.3075C2.28021 98.435 2.23377 98.5639 2.19016 98.6938C2.14703 98.8236 2.10674 98.9544 2.06978 99.0862C2.03281 99.2184 1.99868 99.3511 1.96835 99.4843C1.93802 99.618 1.91053 99.7521 1.88683 99.8872C1.86313 100.022 1.84228 100.157 1.82521 100.293C1.80768 100.429 1.79393 100.565 1.78351 100.702C1.7726 100.838 1.76549 100.975 1.7617 101.112C1.75791 101.249 1.75744 101.386 1.76028 101.523C1.76312 101.66 1.76929 101.797 1.77877 101.933C1.78872 102.07 1.80152 102.206 1.81763 102.342C1.83374 102.478 1.85365 102.614 1.8764 102.748C1.89962 102.884 1.92569 103.018 1.95508 103.152C1.98494 103.285 2.01764 103.419 2.05366 103.551C2.08968 103.683 2.12902 103.814 2.1712 103.944C2.21386 104.075 2.25936 104.204 2.30818 104.331C2.35699 104.459 2.40913 104.586 2.46411 104.712C2.51909 104.837 2.57739 104.961 2.63853 105.084C2.69967 105.206 2.76365 105.327 2.83095 105.446C2.89778 105.566 2.96793 105.684 3.04092 105.799C3.11343 105.915 3.18927 106.03 3.26794 106.142C3.34615 106.254 3.42719 106.364 3.51108 106.473C3.59497 106.581 3.68171 106.687 3.77081 106.791C3.85992 106.895 3.95139 106.997 4.04523 107.097C4.13955 107.196 4.23624 107.293 4.33482 107.388C4.43388 107.483 4.53483 107.575 4.63816 107.665C4.74148 107.755 4.84717 107.842 4.95476 107.926C5.06235 108.011 5.17231 108.093 5.28369 108.172L23.4837 121.822V146.774C23.4837 146.87 23.4884 146.966 23.4979 147.062C23.5074 147.157 23.5216 147.253 23.5401 147.347C23.559 147.441 23.5823 147.534 23.6102 147.626C23.6382 147.718 23.6704 147.809 23.7074 147.897C23.7439 147.986 23.7851 148.073 23.8306 148.158C23.8757 148.243 23.9249 148.325 23.9785 148.405C24.0321 148.485 24.0894 148.562 24.1501 148.637C24.2112 148.711 24.2757 148.782 24.3434 148.85C24.4117 148.918 24.4828 148.982 24.5572 149.043C24.6316 149.104 24.7084 149.161 24.7885 149.215C24.8686 149.268 24.9506 149.318 25.0354 149.363C25.1203 149.408 25.207 149.449 25.2961 149.486C25.3847 149.523 25.4753 149.555 25.5672 149.583C25.6592 149.611 25.7525 149.634 25.8468 149.653C25.9412 149.672 26.036 149.686 26.1317 149.695C26.2274 149.705 26.3232 149.71 26.4194 149.71V176.129H0V182H182V176.129H155.581V149.71ZM135.032 70.4515C135.225 70.4515 135.417 70.4563 135.608 70.4658C135.8 70.4752 135.992 70.4894 136.183 70.5079C136.374 70.5269 136.565 70.5506 136.755 70.5786C136.945 70.607 137.135 70.6397 137.323 70.6771C137.511 70.7146 137.699 70.7568 137.885 70.8037C138.072 70.8501 138.257 70.9013 138.441 70.9572C138.625 71.0132 138.807 71.0734 138.988 71.1378C139.169 71.2028 139.348 71.272 139.526 71.3454C139.703 71.4189 139.879 71.4966 140.053 71.5791C140.226 71.6611 140.398 71.7473 140.568 71.8379C140.737 71.9289 140.904 72.0232 141.069 72.1222C141.233 72.2208 141.396 72.3237 141.556 72.4303C141.715 72.5374 141.873 72.6479 142.027 72.7626C142.181 72.8768 142.333 72.9948 142.481 73.1171C142.63 73.2389 142.775 73.3645 142.918 73.4934C143.06 73.6223 143.199 73.755 143.335 73.8906C143.471 74.0266 143.603 74.1659 143.733 74.3081C143.862 74.4503 143.987 74.5958 144.109 74.7447C144.231 74.893 144.349 75.0447 144.463 75.1987C144.578 75.3532 144.689 75.5101 144.795 75.6703C144.902 75.83 145.005 75.9921 145.104 76.157C145.202 76.322 145.297 76.4888 145.388 76.6585C145.478 76.8277 145.564 76.9993 145.647 77.1732C145.729 77.3472 145.807 77.5225 145.881 77.7003C145.954 77.8775 146.023 78.0567 146.088 78.2377C146.153 78.4188 146.213 78.6012 146.269 78.7851C146.324 78.969 146.375 79.1539 146.422 79.3406C146.469 79.5269 146.511 79.7141 146.548 79.9027C146.586 80.0914 146.619 80.2805 146.647 80.4705C146.675 80.6606 146.699 80.8516 146.718 81.0426C146.737 81.2341 146.751 81.4256 146.76 81.6175C146.769 81.8095 146.774 82.0014 146.774 82.1934C146.774 82.3858 146.769 82.5778 146.76 82.7697C146.751 82.9617 146.737 83.1531 146.718 83.3446C146.699 83.5356 146.675 83.7262 146.647 83.9162C146.619 84.1068 146.586 84.2959 146.548 84.4845C146.511 84.6727 146.469 84.8603 146.422 85.0466C146.375 85.2329 146.324 85.4182 146.269 85.6021C146.213 85.786 146.153 85.9685 146.088 86.1495C146.023 86.3301 145.954 86.5092 145.881 86.687C145.807 86.8647 145.729 87.0401 145.647 87.214C145.564 87.3875 145.478 87.5591 145.388 87.7287C145.297 87.8979 145.202 88.0652 145.104 88.2302C145.005 88.3951 144.902 88.5572 144.795 88.7169C144.689 88.8767 144.578 89.034 144.463 89.1881C144.349 89.3426 144.231 89.4938 144.109 89.6426C143.987 89.7909 143.862 89.9364 143.733 90.0791C143.603 90.2213 143.471 90.3606 143.335 90.4962C143.199 90.6322 143.06 90.7649 142.918 90.8938C142.775 91.0228 142.63 91.1483 142.481 91.2702C142.333 91.392 142.181 91.5105 142.027 91.6247C141.873 91.7394 141.715 91.8498 141.556 91.9564C141.396 92.0636 141.233 92.1659 141.069 92.265C140.904 92.3636 140.737 92.4584 140.568 92.5489C140.398 92.6394 140.226 92.7262 140.053 92.8082C139.879 92.8901 139.703 92.9683 139.526 93.0418C139.348 93.1153 139.169 93.1845 138.988 93.2489C138.807 93.3139 138.625 93.3741 138.441 93.43C138.257 93.4854 138.072 93.5371 137.885 93.5835C137.699 93.6305 137.511 93.6722 137.323 93.7096C137.135 93.7475 136.945 93.7802 136.755 93.8082C136.565 93.8366 136.374 93.8599 136.183 93.8788C135.992 93.8978 135.8 93.912 135.608 93.9215C135.417 93.931 135.225 93.9357 135.032 93.9357C134.84 93.9357 134.648 93.931 134.456 93.9215C134.264 93.912 134.072 93.8978 133.881 93.8788C133.69 93.8599 133.499 93.8366 133.309 93.8082C133.119 93.7802 132.93 93.7475 132.742 93.7096C132.553 93.6722 132.366 93.6305 132.179 93.5835C131.993 93.5371 131.808 93.4854 131.624 93.43C131.44 93.3741 131.258 93.3139 131.076 93.2489C130.895 93.1845 130.716 93.1153 130.539 93.0418C130.361 92.9683 130.185 92.8901 130.012 92.8082C129.838 92.7262 129.666 92.6394 129.497 92.5489C129.328 92.4584 129.16 92.3636 128.996 92.265C128.831 92.1659 128.668 92.0636 128.509 91.9564C128.349 91.8498 128.192 91.7394 128.037 91.6247C127.883 91.5105 127.732 91.392 127.583 91.2702C127.435 91.1483 127.289 91.0228 127.147 90.8938C127.004 90.7649 126.865 90.6322 126.729 90.4962C126.594 90.3606 126.461 90.2213 126.332 90.0791C126.203 89.9364 126.078 89.7909 125.956 89.6426C125.834 89.4938 125.716 89.3426 125.601 89.1881C125.487 89.034 125.376 88.8767 125.269 88.7169C125.162 88.5572 125.06 88.3951 124.961 88.2302C124.862 88.0652 124.767 87.8979 124.677 87.7287C124.586 87.5591 124.5 87.3875 124.418 87.214C124.335 87.0401 124.258 86.8647 124.184 86.687C124.111 86.5092 124.042 86.3301 123.977 86.1495C123.912 85.9685 123.851 85.786 123.796 85.6021C123.74 85.4182 123.689 85.2329 123.642 85.0466C123.596 84.8603 123.553 84.6727 123.516 84.4845C123.478 84.2959 123.446 84.1068 123.417 83.9162C123.389 83.7262 123.366 83.5356 123.347 83.3446C123.328 83.1531 123.314 82.9617 123.305 82.7697C123.295 82.5778 123.29 82.3858 123.29 82.1934C123.29 82.0014 123.295 81.8095 123.305 81.6175C123.314 81.4256 123.328 81.2341 123.347 81.0426C123.366 80.8516 123.389 80.6606 123.417 80.4705C123.446 80.2805 123.478 80.0914 123.516 79.9027C123.553 79.7141 123.596 79.5269 123.642 79.3406C123.689 79.1539 123.74 78.969 123.796 78.7851C123.852 78.6012 123.912 78.4188 123.977 78.2377C124.042 78.0567 124.111 77.8775 124.184 77.7003C124.258 77.5225 124.335 77.3472 124.418 77.1732C124.5 76.9993 124.586 76.8277 124.677 76.6585C124.767 76.4888 124.862 76.322 124.961 76.157C125.06 75.9921 125.162 75.83 125.269 75.6703C125.376 75.5101 125.487 75.3532 125.601 75.1987C125.716 75.0447 125.834 74.893 125.955 74.7447C126.078 74.5958 126.203 74.4503 126.332 74.3081C126.461 74.1659 126.594 74.0266 126.729 73.8906C126.865 73.755 127.004 73.6223 127.147 73.4934C127.289 73.3645 127.435 73.2389 127.583 73.1171C127.732 72.9948 127.883 72.8768 128.037 72.7626C128.192 72.6479 128.349 72.5374 128.509 72.4303C128.668 72.3237 128.831 72.2208 128.996 72.1222C129.16 72.0232 129.328 71.9289 129.497 71.8379C129.666 71.7473 129.838 71.6611 130.012 71.5791C130.185 71.4966 130.361 71.4189 130.539 71.3454C130.716 71.272 130.895 71.2028 131.076 71.1378C131.258 71.0734 131.44 71.0132 131.624 70.9572C131.808 70.9013 131.993 70.8501 132.179 70.8037C132.366 70.7568 132.553 70.7146 132.742 70.6771C132.93 70.6397 133.119 70.607 133.309 70.5786C133.499 70.5506 133.69 70.5269 133.881 70.5079C134.072 70.4894 134.264 70.4752 134.456 70.4658C134.648 70.4563 134.84 70.4515 135.032 70.4515ZM73.3872 5.87092H108.613V17.6128H73.3872V5.87092ZM58.7097 82.1934C58.7097 82.3858 58.705 82.5778 58.6955 82.7697C58.686 82.9617 58.6718 83.1531 58.6533 83.3446C58.6343 83.5356 58.6106 83.7262 58.5827 83.9162C58.5542 84.1068 58.5215 84.2959 58.4841 84.4845C58.4466 84.6727 58.4045 84.8603 58.3575 85.0466C58.3111 85.2329 58.2599 85.4182 58.204 85.6021C58.1481 85.786 58.0879 85.9685 58.0234 86.1495C57.9585 86.3301 57.8893 86.5092 57.8158 86.687C57.7423 86.8647 57.6646 87.0401 57.5821 87.214C57.5001 87.3875 57.4139 87.5591 57.3234 87.7287C57.2328 87.8979 57.138 88.0652 57.039 88.2302C56.9404 88.3951 56.8376 88.5572 56.7309 88.7169C56.6238 88.8767 56.5134 89.034 56.3991 89.1881C56.2844 89.3426 56.1664 89.4938 56.0442 89.6426C55.9223 89.7909 55.7972 89.9364 55.6678 90.0791C55.5389 90.2213 55.4062 90.3606 55.2706 90.4962C55.1346 90.6322 54.9958 90.7649 54.8531 90.8938C54.7109 91.0228 54.5654 91.1483 54.4166 91.2702C54.2682 91.392 54.1166 91.5105 53.9625 91.6247C53.808 91.7394 53.6511 91.8498 53.4914 91.9564C53.3312 92.0636 53.1691 92.1659 53.0042 92.265C52.8392 92.3636 52.6724 92.4584 52.5027 92.5489C52.3335 92.6394 52.162 92.7262 51.988 92.8082C51.8145 92.8901 51.6387 92.9683 51.461 93.0418C51.2837 93.1153 51.1046 93.1845 50.9235 93.2489C50.7425 93.3139 50.56 93.3741 50.3761 93.43C50.1922 93.4854 50.0073 93.5371 49.8206 93.5835C49.6343 93.6305 49.4471 93.6722 49.2585 93.7096C49.0699 93.7475 48.8807 93.7802 48.6907 93.8082C48.5006 93.8366 48.3101 93.8599 48.1186 93.8788C47.9276 93.8978 47.7357 93.912 47.5437 93.9215C47.3518 93.931 47.1598 93.9357 46.9678 93.9357C46.7754 93.9357 46.5835 93.931 46.3915 93.9215C46.1996 93.912 46.0081 93.8978 45.8166 93.8788C45.6256 93.8599 45.4351 93.8366 45.245 93.8082C45.055 93.7802 44.8654 93.7475 44.6772 93.7096C44.4886 93.6722 44.3009 93.6305 44.1146 93.5835C43.9284 93.5371 43.743 93.4854 43.5591 93.43C43.3752 93.3741 43.1928 93.3139 43.0122 93.2489C42.8311 93.1845 42.652 93.1153 42.4743 93.0418C42.2965 92.9683 42.1212 92.8901 41.9472 92.8082C41.7737 92.7262 41.6022 92.6394 41.4325 92.5489C41.2633 92.4584 41.096 92.3636 40.931 92.265C40.7666 92.1659 40.604 92.0636 40.4443 91.9564C40.2846 91.8498 40.1272 91.7394 39.9732 91.6247C39.8187 91.5105 39.6675 91.392 39.5186 91.2702C39.3703 91.1483 39.2248 91.0228 39.0821 90.8938C38.9399 90.7649 38.8006 90.6322 38.665 90.4962C38.529 90.3606 38.3968 90.2213 38.2674 90.0791C38.1385 89.9364 38.0129 89.7909 37.8911 89.6426C37.7693 89.4938 37.6508 89.3426 37.5366 89.1881C37.4219 89.034 37.3114 88.8767 37.2048 88.7169C37.0981 88.5572 36.9953 88.3951 36.8962 88.2302C36.7976 88.0652 36.7029 87.8979 36.6123 87.7287C36.5218 87.5591 36.4355 87.3875 36.3531 87.214C36.2711 87.0401 36.1934 86.8647 36.1194 86.687C36.046 86.5092 35.9768 86.3301 35.9123 86.1495C35.8474 85.9685 35.7872 85.786 35.7312 85.6021C35.6758 85.4182 35.6246 85.2329 35.5777 85.0466C35.5312 84.8603 35.4891 84.6727 35.4516 84.4845C35.4142 84.2959 35.381 84.1068 35.353 83.9162C35.3246 83.7262 35.3014 83.5356 35.2824 83.3446C35.2634 83.1531 35.2492 82.9617 35.2397 82.7697C35.2307 82.5778 35.226 82.3858 35.226 82.1934C35.226 82.0014 35.2307 81.8095 35.2397 81.6175C35.2492 81.4256 35.2634 81.2341 35.2824 81.0426C35.3014 80.8516 35.3246 80.6606 35.353 80.4705C35.381 80.2805 35.4142 80.0914 35.4516 79.9027C35.4891 79.7141 35.5312 79.5269 35.5777 79.3406C35.6246 79.1539 35.6758 78.969 35.7312 78.7851C35.7872 78.6012 35.8474 78.4188 35.9123 78.2377C35.9768 78.0567 36.046 77.8775 36.1194 77.7003C36.1934 77.5225 36.2711 77.3472 36.3531 77.1732C36.4355 76.9993 36.5218 76.8277 36.6123 76.6585C36.7029 76.4888 36.7976 76.322 36.8962 76.157C36.9953 75.9921 37.0981 75.83 37.2048 75.6703C37.3114 75.5101 37.4219 75.3532 37.5366 75.1987C37.6508 75.0447 37.7693 74.893 37.8911 74.7447C38.0129 74.5958 38.1385 74.4503 38.2674 74.3081C38.3968 74.1659 38.529 74.0266 38.665 73.8906C38.8006 73.755 38.9399 73.6223 39.0821 73.4934C39.2248 73.3645 39.3703 73.2389 39.5186 73.1171C39.6675 72.9948 39.8187 72.8768 39.9732 72.7626C40.1272 72.6479 40.2846 72.5374 40.4443 72.4303C40.604 72.3237 40.7666 72.2208 40.931 72.1222C41.096 72.0232 41.2633 71.9289 41.4325 71.8379C41.6022 71.7473 41.7737 71.6611 41.9472 71.5791C42.1212 71.4966 42.2965 71.4189 42.4743 71.3454C42.652 71.272 42.8311 71.2028 43.0122 71.1378C43.1928 71.0734 43.3752 71.0132 43.5591 70.9572C43.743 70.9013 43.9284 70.8501 44.1146 70.8037C44.3009 70.7568 44.4886 70.7146 44.6772 70.6771C44.8654 70.6397 45.055 70.607 45.245 70.5786C45.4351 70.5506 45.6256 70.5269 45.8166 70.5079C46.0081 70.4894 46.1996 70.4752 46.3915 70.4658C46.5835 70.4563 46.7754 70.4515 46.9678 70.4515C47.1598 70.4515 47.3518 70.4563 47.5437 70.4658C47.7357 70.4752 47.9276 70.4894 48.1186 70.5079C48.3101 70.5269 48.5006 70.5506 48.6907 70.5786C48.8807 70.607 49.0699 70.6397 49.2585 70.6771C49.4471 70.7146 49.6343 70.7568 49.8206 70.8037C50.0073 70.8501 50.1922 70.9013 50.3761 70.9572C50.56 71.0132 50.7425 71.0734 50.9235 71.1378C51.1046 71.2028 51.2837 71.272 51.461 71.3454C51.6387 71.4189 51.8145 71.4966 51.988 71.5791C52.162 71.6611 52.3335 71.7473 52.5027 71.8379C52.6724 71.9289 52.8392 72.0232 53.0042 72.1222C53.1691 72.2208 53.3312 72.3237 53.4914 72.4303C53.6511 72.5374 53.808 72.6479 53.9625 72.7626C54.1166 72.8768 54.2682 72.9948 54.4166 73.1171C54.5654 73.2389 54.7109 73.3645 54.8531 73.4934C54.9958 73.6223 55.1346 73.755 55.2706 73.8906C55.4062 74.0266 55.5389 74.1659 55.6678 74.3081C55.7972 74.4503 55.9223 74.5958 56.0442 74.7447C56.1664 74.893 56.2844 75.0447 56.3991 75.1987C56.5134 75.3532 56.6238 75.5101 56.7309 75.6703C56.8376 75.83 56.9404 75.9921 57.039 76.157C57.138 76.322 57.2328 76.4888 57.3234 76.6585C57.4139 76.8277 57.5001 76.9993 57.5821 77.1732C57.6646 77.3472 57.7423 77.5225 57.8158 77.7003C57.8893 77.8775 57.9585 78.0567 58.0234 78.2377C58.0879 78.4188 58.1481 78.6012 58.204 78.7851C58.2599 78.969 58.3111 79.1539 58.3575 79.3406C58.4045 79.5269 58.4466 79.7141 58.4841 79.9027C58.5215 80.0914 58.5542 80.2805 58.5827 80.4705C58.6106 80.6606 58.6343 80.8516 58.6533 81.0426C58.6718 81.2341 58.686 81.4256 58.6955 81.6175C58.705 81.8095 58.7097 82.0014 58.7097 82.1934ZM23.4837 37.9854L52.8388 32.8482V65.6082C52.4989 65.4873 52.1558 65.3769 51.8093 65.2773C51.4629 65.1778 51.114 65.0887 50.7619 65.0105C50.4102 64.9323 50.0562 64.865 49.7002 64.8086C49.3443 64.7517 48.9864 64.7062 48.6277 64.6716C48.2689 64.637 47.9096 64.6138 47.5489 64.601C47.1887 64.5887 46.8285 64.5872 46.4683 64.5967C46.1076 64.6067 45.7479 64.6271 45.3891 64.6588C45.0298 64.6906 44.672 64.7332 44.3156 64.7873C43.9592 64.8408 43.6046 64.9053 43.252 64.9806C42.8999 65.0565 42.5496 65.1427 42.2027 65.2394C41.8553 65.3366 41.5116 65.4437 41.1709 65.5622C40.8301 65.6802 40.4936 65.8086 40.1609 65.947C39.8281 66.0859 39.5002 66.2347 39.1764 66.3935C38.8527 66.5523 38.5342 66.721 38.2209 66.8997C37.9077 67.0779 37.6005 67.2661 37.2986 67.4632C36.9972 67.6604 36.7014 67.867 36.4128 68.0822C36.1237 68.2979 35.8412 68.522 35.5663 68.7548C35.2909 68.9875 35.0232 69.2287 34.7625 69.4776C34.5023 69.7269 34.2496 69.9837 34.0046 70.2487C33.7601 70.5136 33.524 70.7852 33.296 71.0648C33.0681 71.344 32.8486 71.6298 32.6382 71.9227C32.4278 72.2151 32.2263 72.5142 32.0344 72.8194C31.8424 73.1242 31.6599 73.4351 31.4869 73.7512C31.314 74.0674 31.1509 74.3887 30.9973 74.7153C30.8443 75.0413 30.7011 75.3722 30.5679 75.7073C30.4352 76.0424 30.3125 76.3812 30.2006 76.7234C30.0883 77.0661 29.9869 77.4121 29.8959 77.7609C29.8049 78.1098 29.7248 78.461 29.6551 78.8145C29.5859 79.1686 29.5276 79.524 29.4802 79.8814C29.4323 80.2388 29.3958 80.5971 29.3702 80.9568C29.3447 81.3166 29.3304 81.6763 29.3271 82.037C29.3238 82.3972 29.3314 82.7574 29.3499 83.1176C29.3688 83.4778 29.3982 83.8366 29.439 84.1949C29.4797 84.5532 29.5319 84.9096 29.5944 85.2646C29.657 85.6196 29.7305 85.9723 29.8148 86.323C29.8992 86.6732 29.994 87.0211 30.0997 87.3657C30.2054 87.7103 30.3215 88.0515 30.448 88.389C30.5746 88.7264 30.7116 89.0596 30.8585 89.389C31.0059 89.7179 31.1628 90.0426 31.3296 90.3621C31.4964 90.6815 31.6732 90.9953 31.8595 91.3043C32.0457 91.6128 32.2415 91.9152 32.4462 92.2119C32.651 92.5086 32.8647 92.7987 33.0875 93.0821C33.3103 93.3655 33.5411 93.6423 33.7809 93.9115C34.0207 94.1807 34.2681 94.4424 34.5241 94.6964C34.7795 94.9509 35.0431 95.1969 35.3137 95.4348C35.5843 95.6728 35.8625 95.9021 36.1474 96.123C36.4322 96.3439 36.7237 96.5557 37.0214 96.7586C37.3195 96.9619 37.6233 97.1553 37.9333 97.3397C38.2427 97.524 38.5579 97.6989 38.8788 97.8639C39.1992 98.0288 39.5243 98.1838 39.8542 98.3288C40.1846 98.4738 40.5187 98.6085 40.8571 98.7331C41.1955 98.8573 41.5372 98.9715 41.8823 99.0748C42.2278 99.1786 42.5761 99.271 42.9269 99.3535C43.2781 99.4355 43.6312 99.5066 43.9866 99.5673C44.3421 99.6275 44.699 99.6772 45.0573 99.7156C45.4156 99.754 45.7749 99.7815 46.1351 99.7981C46.4953 99.8147 46.8555 99.8199 47.2162 99.8142C47.5764 99.8085 47.9361 99.7919 48.2959 99.764C48.6551 99.7365 49.0135 99.6976 49.3703 99.6478C49.7277 99.5981 50.0827 99.5374 50.4358 99.4658C50.7894 99.3943 51.1401 99.3118 51.4885 99.2189C51.8368 99.1255 52.1819 99.0217 52.5236 98.9075C52.8653 98.7933 53.2037 98.6686 53.5379 98.5336C53.872 98.3985 54.2019 98.2535 54.527 98.098C54.8526 97.9425 55.1725 97.7776 55.4877 97.6027C55.8029 97.4278 56.1124 97.243 56.4167 97.0491C56.7205 96.8553 57.0181 96.652 57.3091 96.4396C57.6006 96.2278 57.8855 96.0064 58.1632 95.777C58.441 95.5472 58.7116 95.3092 58.9746 95.0628C59.2377 94.8163 59.4931 94.5623 59.741 94.3002C59.9884 94.0381 60.2278 93.7689 60.4586 93.4921C60.6899 93.2153 60.9122 92.9319 61.1259 92.6413C61.3397 92.3512 61.544 92.0546 61.7392 91.7517C61.935 91.4484 62.1208 91.1398 62.2971 90.8256C62.4739 90.5113 62.6402 90.1919 62.7971 89.8672C62.954 89.5426 63.1009 89.2136 63.2374 88.88C63.3744 88.5463 63.5005 88.2089 63.6166 87.8676C63.7322 87.5264 63.8379 87.1818 63.9327 86.8339C64.027 86.486 64.1114 86.1358 64.1844 85.7827C64.2579 85.4296 64.3199 85.0746 64.3716 84.7182C64.4233 84.3613 64.4635 84.003 64.4929 83.6437C64.5223 83.2844 64.5408 82.9247 64.5484 82.5645C64.5555 82.2038 64.5522 81.8436 64.5375 81.4834C64.5228 81.1232 64.4967 80.7639 64.4598 80.4051C64.4233 80.0463 64.3754 79.6895 64.3166 79.3335C64.2579 78.978 64.1882 78.6245 64.1081 78.2733C64.0275 77.9216 63.9365 77.5732 63.8346 77.2272C63.7327 76.8813 63.6204 76.5391 63.4971 76.2002C63.3744 75.8613 63.2412 75.5267 63.0981 75.1959C62.9545 74.865 62.8009 74.5389 62.6374 74.2176C62.4743 73.8963 62.3009 73.5806 62.1179 73.2697C61.9355 72.9593 61.743 72.6545 61.5416 72.3554C61.3397 72.0564 61.1292 71.7639 60.9098 71.4781C60.6904 71.1923 60.4624 70.9132 60.2254 70.6411C59.9889 70.3695 59.7443 70.1051 59.4912 69.8482C59.2382 69.5913 58.978 69.342 58.7097 69.1012V23.4837H123.29V69.1012C123.022 69.342 122.761 69.5913 122.509 69.8482C122.256 70.1051 122.011 70.3695 121.775 70.6411C121.538 70.9132 121.31 71.1923 121.09 71.4781C120.871 71.7639 120.66 72.0564 120.458 72.3554C120.257 72.654 120.065 72.9593 119.882 73.2697C119.699 73.5806 119.526 73.8963 119.363 74.2176C119.199 74.5389 119.046 74.865 118.902 75.1959C118.759 75.5267 118.626 75.8613 118.503 76.2002C118.38 76.5391 118.267 76.8813 118.165 77.2272C118.063 77.5732 117.972 77.9216 117.892 78.2733C117.812 78.6245 117.742 78.978 117.683 79.3335C117.625 79.6895 117.577 80.0463 117.54 80.4051C117.503 80.7639 117.477 81.1232 117.463 81.4834C117.448 81.8436 117.445 82.2038 117.452 82.5645C117.459 82.9247 117.478 83.2844 117.507 83.6437C117.536 84.003 117.577 84.3613 117.628 84.7182C117.68 85.0746 117.742 85.4296 117.816 85.7827C117.889 86.1358 117.972 86.486 118.067 86.8339C118.162 87.1818 118.268 87.5264 118.383 87.8676C118.5 88.2089 118.626 88.5463 118.763 88.88C118.899 89.2136 119.046 89.5426 119.203 89.8672C119.36 90.1919 119.526 90.5113 119.703 90.8256C119.879 91.1398 120.065 91.4484 120.261 91.7517C120.456 92.0546 120.66 92.3512 120.874 92.6413C121.088 92.9319 121.31 93.2153 121.541 93.4921C121.772 93.7689 122.012 94.0381 122.259 94.3002C122.507 94.5623 122.762 94.8163 123.025 95.0628C123.288 95.3092 123.559 95.5472 123.837 95.777C124.115 96.0064 124.399 96.2278 124.691 96.4396C124.982 96.652 125.28 96.8553 125.583 97.0491C125.887 97.243 126.197 97.4278 126.512 97.6027C126.827 97.7776 127.147 97.9425 127.473 98.098C127.798 98.2535 128.128 98.3985 128.462 98.5336C128.796 98.6686 129.135 98.7933 129.476 98.9075C129.818 99.0217 130.163 99.1255 130.512 99.2189C130.86 99.3118 131.211 99.3943 131.564 99.4658C131.917 99.5374 132.272 99.5981 132.63 99.6478C132.987 99.6976 133.345 99.7365 133.704 99.764C134.064 99.7919 134.424 99.8085 134.784 99.8142C135.144 99.8199 135.505 99.8147 135.865 99.7981C136.225 99.7815 136.584 99.754 136.943 99.7156C137.301 99.6772 137.658 99.6275 138.013 99.5673C138.369 99.5066 138.722 99.4355 139.073 99.3535C139.424 99.271 139.772 99.1786 140.118 99.0748C140.463 98.9715 140.804 98.8573 141.143 98.7331C141.481 98.6085 141.815 98.4738 142.146 98.3288C142.476 98.1838 142.801 98.0288 143.121 97.8639C143.442 97.6989 143.757 97.524 144.067 97.3397C144.377 97.1553 144.681 96.9619 144.979 96.7586C145.276 96.5557 145.568 96.3439 145.853 96.123C146.137 95.9021 146.416 95.6728 146.686 95.4348C146.957 95.1969 147.22 94.9509 147.476 94.6964C147.732 94.4424 147.979 94.1807 148.219 93.9115C148.459 93.6423 148.69 93.3655 148.912 93.0821C149.135 92.7987 149.349 92.5086 149.554 92.2119C149.759 91.9152 149.954 91.6128 150.141 91.3043C150.327 90.9953 150.503 90.6815 150.67 90.3621C150.837 90.0426 150.994 89.7179 151.142 89.389C151.288 89.0596 151.425 88.7264 151.552 88.389C151.679 88.0515 151.795 87.7103 151.9 87.3657C152.006 87.0211 152.101 86.6732 152.185 86.323C152.27 85.9723 152.343 85.6196 152.406 85.2646C152.468 84.9096 152.52 84.5532 152.561 84.1949C152.602 83.8366 152.631 83.4778 152.65 83.1176C152.669 82.7574 152.676 82.3972 152.673 82.037C152.67 81.6763 152.655 81.3166 152.63 80.9568C152.604 80.5971 152.568 80.2388 152.52 79.8814C152.472 79.524 152.414 79.1686 152.344 78.8145C152.275 78.461 152.195 78.1098 152.104 77.7609C152.013 77.4121 151.912 77.0661 151.799 76.7234C151.688 76.3812 151.565 76.0424 151.432 75.7073C151.299 75.3722 151.156 75.0413 151.003 74.7153C150.849 74.3887 150.686 74.0674 150.513 73.7512C150.34 73.4351 150.158 73.1242 149.966 72.8194C149.774 72.5142 149.572 72.2151 149.362 71.9227C149.151 71.6298 148.932 71.344 148.704 71.0648C148.476 70.7852 148.24 70.5136 147.995 70.2487C147.75 69.9837 147.498 69.7269 147.238 69.4776C146.977 69.2287 146.709 68.9875 146.434 68.7548C146.158 68.522 145.876 68.2979 145.587 68.0822C145.299 67.867 145.003 67.6604 144.701 67.4632C144.399 67.2661 144.092 67.0779 143.779 66.8997C143.466 66.721 143.147 66.5523 142.824 66.3935C142.5 66.2347 142.172 66.0859 141.839 65.947C141.506 65.8086 141.17 65.6802 140.829 65.5622C140.488 65.4437 140.145 65.3366 139.797 65.2394C139.45 65.1427 139.1 65.0565 138.748 64.9806C138.395 64.9053 138.041 64.8408 137.684 64.7873C137.328 64.7332 136.97 64.6906 136.611 64.6588C136.252 64.6271 135.892 64.6067 135.532 64.5967C135.171 64.5872 134.811 64.5887 134.451 64.601C134.09 64.6138 133.731 64.637 133.372 64.6716C133.014 64.7062 132.656 64.7517 132.3 64.8086C131.944 64.865 131.59 64.9323 131.238 65.0105C130.886 65.0887 130.537 65.1778 130.191 65.2773C129.844 65.3769 129.501 65.4873 129.161 65.6082V32.8482L158.516 37.9854V100.188L154.7 102.742H117.419C117.079 102.288 116.713 101.855 116.322 101.443C115.931 101.031 115.518 100.644 115.082 100.28C114.646 99.9161 114.191 99.5786 113.715 99.2677C113.24 98.9568 112.749 98.6743 112.241 98.4203C111.734 98.1667 111.213 97.943 110.679 97.7496C110.146 97.5558 109.602 97.3942 109.05 97.2638C108.497 97.133 107.939 97.0349 107.375 96.9695C106.811 96.9036 106.245 96.8709 105.678 96.8709H76.3225C75.7547 96.8709 75.1892 96.9036 74.6252 96.9695C74.0612 97.0349 73.5029 97.133 72.9502 97.2638C72.3981 97.3942 71.8549 97.5558 71.3208 97.7496C70.7871 97.943 70.2662 98.1667 69.7586 98.4203C69.251 98.6743 68.7595 98.9568 68.2846 99.2677C67.8092 99.5786 67.3537 99.9161 66.9182 100.28C66.4821 100.644 66.0688 101.031 65.6778 101.443C65.2868 101.855 64.9214 102.288 64.5806 102.742H27.3L23.4837 100.188V37.9854ZM93.9357 119.65L91 123.878L88.0643 119.65L90.6185 102.742H91.3815L93.9357 119.65ZM44.854 176.129L46.9678 167.675L49.0812 176.129H44.854ZM61.6454 176.129H55.1285L49.9031 154.876C49.8637 154.718 49.8116 154.565 49.7467 154.417C49.6817 154.267 49.605 154.125 49.5163 153.989C49.4277 153.853 49.3286 153.725 49.2187 153.605C49.1087 153.485 48.9898 153.375 48.8618 153.275C48.7333 153.175 48.5983 153.087 48.4551 153.009C48.3125 152.932 48.1641 152.867 48.0106 152.814C47.857 152.761 47.7001 152.721 47.5399 152.694C47.3797 152.668 47.2181 152.654 47.056 152.654C46.8934 152.654 46.7318 152.668 46.5716 152.694C46.4114 152.721 46.2545 152.761 46.101 152.814C45.9474 152.867 45.7991 152.932 45.6564 153.009C45.5133 153.087 45.3782 153.175 45.2497 153.275C45.1218 153.375 45.0028 153.485 44.8929 153.605C44.7834 153.725 44.6838 153.853 44.5952 153.989C44.5066 154.125 44.4298 154.267 44.3649 154.417C44.2999 154.565 44.2478 154.718 44.2085 154.876L38.8072 176.129H32.2903V149.71H61.6454V176.129ZM70.4515 176.129H67.5163V149.71H70.4515V176.129ZM70.4515 143.839H29.3546V120.355C29.3546 120.127 29.3285 119.902 29.2764 119.68C29.2238 119.459 29.147 119.246 29.0451 119.042C28.9432 118.838 28.819 118.649 28.6731 118.474C28.5271 118.299 28.3631 118.143 28.1806 118.007L8.80662 103.329C8.65211 103.209 8.51324 103.073 8.38954 102.921C8.26583 102.77 8.16061 102.606 8.07435 102.431C7.98809 102.256 7.92221 102.073 7.87719 101.883C7.83264 101.692 7.80941 101.499 7.80846 101.303C7.80704 101.063 7.84117 100.828 7.91131 100.597C7.98146 100.367 8.08431 100.152 8.21939 99.9531C8.31228 99.8147 8.41797 99.6867 8.53599 99.5687C8.65401 99.4507 8.78197 99.3455 8.92037 99.2526C9.05877 99.1592 9.20474 99.0805 9.35831 99.0156C9.51234 98.9506 9.67065 98.9014 9.83369 98.8672C9.99531 98.8369 10.1583 98.8227 10.3223 98.8241C10.4868 98.8251 10.6494 98.8421 10.8105 98.8748C10.9712 98.9075 11.1276 98.9554 11.2797 99.0184C11.4314 99.081 11.5755 99.1578 11.7125 99.2488L24.8046 108.055C25.0402 108.226 25.2956 108.359 25.5705 108.454C25.8459 108.549 26.1284 108.602 26.4194 108.613H61.9388C61.7506 109.582 61.6525 110.561 61.6454 111.548V132.097C61.6463 132.419 61.6606 132.74 61.688 133.06C61.7155 133.381 61.7558 133.7 61.8099 134.017C61.8634 134.335 61.9298 134.649 62.0094 134.961C62.089 135.273 62.1814 135.581 62.2862 135.885C62.3909 136.19 62.5085 136.489 62.6379 136.783C62.7673 137.078 62.9085 137.367 63.062 137.65C63.2151 137.933 63.3796 138.209 63.5559 138.479C63.7318 138.748 63.9185 139.01 64.1161 139.264C64.3133 139.518 64.5209 139.764 64.7389 140.001C64.9565 140.238 65.1835 140.466 65.42 140.684C65.656 140.902 65.9011 141.111 66.1546 141.309C66.4082 141.507 66.6693 141.695 66.9386 141.871C67.2073 142.048 67.4831 142.214 67.7656 142.368C68.0481 142.522 68.3367 142.664 68.6311 142.794C68.9254 142.924 69.2245 143.043 69.5283 143.148C69.8321 143.254 70.1401 143.347 70.4515 143.428V143.839ZM88.7103 176.129L91 164.681L93.2897 176.129H88.7103ZM105.678 176.129H99.2782L93.9357 149.122C93.9357 149.026 93.931 148.93 93.9215 148.835C93.912 148.739 93.8978 148.644 93.8793 148.55C93.8603 148.456 93.8371 148.362 93.8092 148.27C93.7812 148.178 93.749 148.088 93.712 147.999C93.675 147.911 93.6343 147.823 93.5888 147.739C93.5437 147.654 93.494 147.572 93.4409 147.492C93.3873 147.412 93.33 147.335 93.2693 147.26C93.2082 147.186 93.1437 147.115 93.0755 147.047C93.0077 146.979 92.9366 146.914 92.8622 146.854C92.7878 146.792 92.711 146.735 92.6309 146.682C92.5508 146.628 92.4683 146.579 92.384 146.534C92.2991 146.488 92.2124 146.447 92.1233 146.41C92.0347 146.373 91.9441 146.341 91.8522 146.313C91.7602 146.285 91.6669 146.262 91.5725 146.244C91.4782 146.225 91.3834 146.21 91.2877 146.201C91.1919 146.192 91.0962 146.187 91 146.187C90.9038 146.187 90.808 146.192 90.7123 146.201C90.6166 146.21 90.5218 146.225 90.4275 146.244C90.3331 146.262 90.2398 146.285 90.1478 146.313C90.0559 146.341 89.9653 146.373 89.8767 146.41C89.7876 146.447 89.7009 146.488 89.616 146.534C89.5312 146.579 89.4492 146.628 89.3691 146.682C89.289 146.735 89.2122 146.792 89.1378 146.854C89.0634 146.914 88.9923 146.979 88.9241 147.047C88.8563 147.115 88.7918 147.186 88.7307 147.26C88.67 147.335 88.6127 147.412 88.5591 147.492C88.506 147.572 88.4563 147.654 88.4112 147.739C88.3657 147.823 88.325 147.911 88.288 147.999C88.251 148.088 88.2188 148.178 88.1908 148.27C88.1629 148.362 88.1397 148.456 88.1207 148.55C88.1022 148.644 88.088 148.739 88.0785 148.835C88.069 148.93 88.0643 149.026 88.0643 149.122L82.7218 176.129H76.3225V143.839H105.678V176.129ZM105.678 137.968H76.3225V108.613H70.4515V137.146C70.2307 137.018 70.0188 136.877 69.8164 136.722C69.6141 136.567 69.4226 136.399 69.242 136.219C69.0614 136.039 68.8932 135.848 68.7372 135.646C68.5818 135.444 68.4396 135.233 68.3116 135.012C68.1832 134.792 68.0699 134.564 67.9713 134.328C67.8727 134.093 67.7903 133.852 67.723 133.606C67.6557 133.361 67.6049 133.111 67.5703 132.859C67.5357 132.605 67.5177 132.352 67.5163 132.097V111.548C67.5163 111.404 67.5196 111.26 67.5267 111.116C67.5338 110.972 67.5443 110.829 67.5585 110.685C67.5727 110.542 67.5902 110.399 67.6116 110.256C67.6324 110.114 67.6571 109.972 67.6855 109.83C67.7135 109.689 67.7452 109.548 67.7798 109.409C67.8149 109.269 67.8533 109.13 67.8955 108.992C67.9372 108.854 67.9822 108.718 68.031 108.581C68.0794 108.446 68.1315 108.311 68.1865 108.178C68.2415 108.045 68.3002 107.913 68.3619 107.783C68.4235 107.653 68.4879 107.524 68.5562 107.397C68.624 107.27 68.695 107.144 68.769 107.021C68.8429 106.898 68.9202 106.776 69.0003 106.656C69.0804 106.536 69.1633 106.418 69.2491 106.302C69.3349 106.187 69.4235 106.073 69.515 105.961C69.6065 105.85 69.7008 105.741 69.7975 105.634C69.8942 105.527 69.9937 105.423 70.0956 105.321C70.1975 105.219 70.3018 105.12 70.4084 105.023C70.5155 104.926 70.6245 104.832 70.7359 104.741C70.8473 104.65 70.961 104.561 71.0767 104.475C71.1923 104.389 71.3103 104.306 71.4298 104.226C71.5497 104.146 71.6715 104.069 71.7952 103.995C71.9189 103.921 72.044 103.849 72.1711 103.782C72.2986 103.714 72.427 103.649 72.5573 103.587C72.6877 103.526 72.8194 103.467 72.9526 103.412C73.0858 103.357 73.2199 103.305 73.3559 103.257C73.4915 103.208 73.6285 103.163 73.7664 103.121C73.9043 103.079 74.0432 103.041 74.183 103.006C74.3223 102.971 74.4631 102.939 74.6044 102.911C74.7461 102.883 74.8878 102.858 75.0304 102.837C75.1731 102.816 75.3158 102.798 75.4594 102.785C75.603 102.77 75.7466 102.759 75.8907 102.753C76.0343 102.746 76.1784 102.742 76.3225 102.742H84.6888L82.1934 119.944C82.1455 120.299 82.1621 120.651 82.2431 121C82.3237 121.348 82.464 121.672 82.6631 121.969L88.534 130.776C88.5676 130.825 88.6027 130.874 88.6387 130.922C88.6752 130.969 88.7132 131.016 88.7525 131.061C88.7914 131.106 88.8321 131.15 88.8738 131.193C88.916 131.236 88.9591 131.277 89.0037 131.317C89.0482 131.358 89.0937 131.396 89.1407 131.434C89.1876 131.471 89.2355 131.507 89.2843 131.541C89.3336 131.576 89.3833 131.609 89.4345 131.64C89.4852 131.671 89.5374 131.701 89.5904 131.729C89.6431 131.757 89.6966 131.784 89.7511 131.809C89.8056 131.833 89.8611 131.857 89.917 131.878C89.9729 131.9 90.0293 131.92 90.0862 131.938C90.1436 131.956 90.2009 131.972 90.2592 131.986C90.3175 132.001 90.3758 132.014 90.4346 132.024C90.4938 132.036 90.5526 132.045 90.6123 132.052C90.6715 132.059 90.7313 132.065 90.791 132.068C90.8507 132.072 90.9109 132.074 90.9706 132.074C91.0303 132.074 91.0905 132.072 91.1502 132.068C91.21 132.065 91.2697 132.059 91.3289 132.052C91.3886 132.045 91.4474 132.036 91.5067 132.024C91.5654 132.014 91.6237 132.001 91.682 131.986C91.7403 131.972 91.7977 131.956 91.855 131.938C91.9119 131.92 91.9683 131.9 92.0242 131.878C92.0801 131.857 92.1356 131.833 92.1901 131.809C92.2446 131.784 92.2982 131.758 92.3508 131.729C92.4039 131.701 92.456 131.671 92.5067 131.64C92.5579 131.609 92.6081 131.576 92.657 131.541C92.7058 131.507 92.7541 131.471 92.8006 131.434C92.8475 131.396 92.893 131.358 92.9375 131.317C92.9821 131.277 93.0252 131.236 93.0674 131.193C93.1091 131.15 93.1499 131.106 93.1887 131.061C93.2281 131.016 93.266 130.969 93.3025 130.922C93.339 130.874 93.3736 130.825 93.4072 130.776L99.2782 121.969C99.4772 121.672 99.6175 121.348 99.6981 121C99.7791 120.651 99.7957 120.299 99.7478 119.944L97.3112 102.742H105.678C105.822 102.742 105.966 102.746 106.109 102.753C106.253 102.759 106.397 102.77 106.541 102.785C106.684 102.798 106.827 102.816 106.97 102.837C107.112 102.858 107.254 102.883 107.396 102.911C107.537 102.939 107.677 102.971 107.817 103.006C107.957 103.041 108.096 103.079 108.234 103.121C108.372 103.163 108.508 103.208 108.644 103.257C108.78 103.305 108.914 103.357 109.047 103.412C109.181 103.467 109.312 103.526 109.443 103.587C109.573 103.649 109.701 103.714 109.829 103.782C109.956 103.849 110.081 103.921 110.205 103.995C110.328 104.069 110.45 104.146 110.57 104.226C110.69 104.306 110.808 104.389 110.923 104.475C111.039 104.561 111.153 104.65 111.264 104.741C111.375 104.832 111.484 104.926 111.592 105.023C111.698 105.12 111.803 105.219 111.904 105.321C112.006 105.423 112.106 105.527 112.203 105.634C112.299 105.741 112.394 105.85 112.485 105.961C112.576 106.073 112.665 106.187 112.751 106.302C112.837 106.418 112.92 106.536 113 106.656C113.08 106.776 113.157 106.898 113.231 107.021C113.305 107.144 113.376 107.27 113.444 107.397C113.512 107.524 113.577 107.653 113.638 107.783C113.7 107.913 113.759 108.045 113.814 108.178C113.868 108.311 113.921 108.446 113.969 108.581C114.018 108.717 114.063 108.854 114.105 108.992C114.147 109.13 114.185 109.269 114.22 109.409C114.255 109.548 114.287 109.689 114.314 109.83C114.343 109.972 114.368 110.114 114.388 110.256C114.41 110.399 114.427 110.542 114.442 110.685C114.456 110.829 114.466 110.972 114.473 111.116C114.48 111.26 114.484 111.404 114.484 111.548V132.097C114.482 132.352 114.464 132.605 114.43 132.859C114.395 133.111 114.344 133.361 114.277 133.606C114.21 133.852 114.127 134.093 114.029 134.328C113.93 134.564 113.817 134.792 113.688 135.012C113.56 135.233 113.418 135.444 113.263 135.646C113.107 135.848 112.939 136.039 112.758 136.219C112.577 136.399 112.386 136.567 112.184 136.722C111.981 136.877 111.769 137.018 111.548 137.146V108.613H105.678V137.968ZM114.484 176.129H111.548V149.71H114.484V176.129ZM132.919 176.129L135.032 167.675L137.146 176.129H132.919ZM149.71 176.129H143.193L137.968 154.876C137.928 154.718 137.876 154.565 137.811 154.417C137.746 154.267 137.669 154.125 137.581 153.989C137.492 153.853 137.393 153.725 137.283 153.605C137.173 153.485 137.054 153.375 136.926 153.275C136.798 153.175 136.663 153.087 136.52 153.009C136.377 152.932 136.229 152.867 136.075 152.814C135.921 152.761 135.764 152.721 135.604 152.695C135.444 152.668 135.283 152.654 135.12 152.654C134.958 152.654 134.797 152.668 134.636 152.695C134.476 152.721 134.319 152.761 134.165 152.814C134.012 152.867 133.864 152.932 133.721 153.009C133.578 153.087 133.442 153.175 133.315 153.275C133.187 153.375 133.068 153.485 132.958 153.605C132.848 153.725 132.749 153.853 132.66 153.989C132.571 154.125 132.495 154.267 132.43 154.417C132.365 154.565 132.313 154.718 132.273 154.876L126.872 176.129H120.355V149.71H149.71V176.129ZM152.645 120.355V143.839H111.548V143.428C111.86 143.347 112.168 143.254 112.472 143.148C112.776 143.043 113.075 142.924 113.369 142.794C113.663 142.664 113.951 142.522 114.234 142.368C114.517 142.214 114.793 142.048 115.061 141.871C115.331 141.695 115.592 141.507 115.845 141.309C116.099 141.111 116.343 140.902 116.58 140.684C116.817 140.466 117.044 140.238 117.261 140.001C117.479 139.764 117.687 139.518 117.884 139.264C118.082 139.01 118.268 138.748 118.444 138.479C118.62 138.209 118.785 137.933 118.938 137.65C119.092 137.367 119.233 137.078 119.362 136.783C119.492 136.489 119.609 136.19 119.714 135.885C119.819 135.581 119.911 135.273 119.991 134.961C120.07 134.649 120.137 134.335 120.19 134.017C120.244 133.7 120.284 133.381 120.312 133.06C120.339 132.74 120.354 132.419 120.355 132.097V111.548C120.347 110.561 120.249 109.582 120.061 108.613H155.581C155.868 108.611 156.15 108.567 156.425 108.482C156.7 108.397 156.957 108.274 157.195 108.114L170.317 99.3075C170.451 99.2156 170.592 99.1379 170.741 99.0743C170.89 99.0108 171.044 98.963 171.203 98.9303C171.362 98.8976 171.522 98.8805 171.684 98.88C171.846 98.8791 172.007 98.8942 172.166 98.926C172.329 98.9601 172.488 99.0094 172.642 99.0743C172.795 99.1388 172.941 99.218 173.08 99.3109C173.218 99.4042 173.346 99.5094 173.464 99.6275C173.582 99.7455 173.688 99.8734 173.781 100.012C173.916 100.211 174.019 100.426 174.089 100.656C174.159 100.886 174.193 101.121 174.192 101.362C174.191 101.558 174.167 101.751 174.123 101.941C174.078 102.131 174.012 102.314 173.926 102.49C173.839 102.665 173.734 102.829 173.61 102.98C173.487 103.132 173.348 103.268 173.193 103.388L153.819 118.065C153.641 118.199 153.48 118.351 153.336 118.521C153.192 118.691 153.07 118.876 152.968 119.074C152.866 119.273 152.788 119.48 152.734 119.696C152.679 119.912 152.65 120.132 152.645 120.355Z" fill="#FF8144"/>
<path d="M64.5801 29.3546H70.451V35.226H64.5801V29.3546Z" fill="#FF8144"/>
<path d="M76.3223 29.3546H82.1932V35.226H76.3223V29.3546Z" fill="#FF8144"/>
<path d="M64.5801 41.0969H70.451V46.9678H64.5801V41.0969Z" fill="#FF8144"/>
<path d="M76.3223 41.0969H82.1932V46.9678H76.3223V41.0969Z" fill="#FF8144"/>
<path d="M99.8066 29.3546H105.678V35.226H99.8066V29.3546Z" fill="#FF8144"/>
<path d="M111.549 29.3546H117.42V35.226H111.549V29.3546Z" fill="#FF8144"/>
<path d="M99.8066 41.0969H105.678V46.9678H99.8066V41.0969Z" fill="#FF8144"/>
<path d="M111.549 41.0969H117.42V46.9678H111.549V41.0969Z" fill="#FF8144"/>
<path d="M29.3555 41.0969H35.2269V46.9678H29.3555V41.0969Z" fill="#FF8144"/>
<path d="M41.0977 41.0969H46.9686V46.9678H41.0977V41.0969Z" fill="#FF8144"/>
<path d="M29.3555 52.8387H35.2269V58.7097H29.3555V52.8387Z" fill="#FF8144"/>
<path d="M41.0977 52.8387H46.9686V58.7097H41.0977V52.8387Z" fill="#FF8144"/>
<path d="M135.031 41.0969H140.902V46.9678H135.031V41.0969Z" fill="#FF8144"/>
<path d="M146.773 41.0969H152.644V46.9678H146.773V41.0969Z" fill="#FF8144"/>
<path d="M135.031 52.8387H140.902V58.7097H135.031V52.8387Z" fill="#FF8144"/>
<path d="M146.773 52.8387H152.644V58.7097H146.773V52.8387Z" fill="#FF8144"/>
</g>
<defs>
<clipPath id="clip0_1924_3905">
<rect width="182" height="182" fill="white"/>
</clipPath>
</defs>
</svg>
