<?xml version="1.0" encoding="UTF-8"?>
<svg width="60px" height="47px" viewBox="0 0 60 47" version="1.1" xmlns="http://www.w3.org/2000/svg" xmlns:xlink="http://www.w3.org/1999/xlink">
    <!-- Generator: Sketch 63.1 (92452) - https://sketch.com -->
    <title>navy thin right arrow@1x</title>
    <desc>Created with Sketch.</desc>
    <defs>
        <polygon id="path-1" points="2.22044605e-15 0.0500584509 24.3628165 0.0500584509 24.3628165 46.25 2.22044605e-15 46.25"></polygon>
    </defs>
    <g id="Symbols" stroke="none" stroke-width="1" fill="none" fill-rule="evenodd">
        <g id="stay-up-to-date-02" transform="translate(-741.000000, -423.000000)">
            <g id="navy-thin-right-arrow" transform="translate(740.000000, 423.000000)">
                <g id="thin-right-arrow" transform="translate(30.500000, 23.500000) scale(-1, 1) translate(-30.500000, -23.500000) ">
                    <g id="Group-3" transform="translate(0.000000, 0.200375)">
                        <mask id="mask-2" fill="white">
                            <use xlink:href="#path-1"></use>
                        </mask>
                        <g id="Clip-2"></g>
                        <path d="M23.03875,46.249125 C22.71,46.247875 22.39625,46.117875 22.16375,45.886625 L0.36375,24.049125 C-0.12125,23.561625 -0.12125,22.774125 0.36375,22.286625 L22.16375,0.486625 C22.6125,-0.037125 23.4025,-0.098375 23.92625,0.350375 C24.45,0.799125 24.51125,1.587875 24.0625,2.112875 C24.02125,2.161625 23.975,2.207875 23.92625,2.249125 L3.01375,23.161625 L23.92625,44.074125 C24.4375,44.537875 24.47625,45.329125 24.0125,45.840375 C23.76375,46.114125 23.4075,46.264125 23.03875,46.249125" id="Fill-1" fill="#172F6E" mask="url(#mask-2)"></path>
                    </g>
                    <path d="M59.1809296,24.61175 L0.871070423,24.61175 C0.404591549,24.61175 0.026,24.053 0.026,23.36175 C0.026,22.67175 0.404591549,22.11175 0.871070423,22.11175 L59.1809296,22.11175 C59.6482535,22.11175 60.026,22.67175 60.026,23.36175 C60.026,24.053 59.6482535,24.61175 59.1809296,24.61175" id="Fill-4" fill="#172F6E"></path>
                </g>
            </g>
        </g>
    </g>
</svg>