<svg width="175" height="175" viewBox="0 0 175 175" fill="none" xmlns="http://www.w3.org/2000/svg">
<path d="M56.3187 67.4994V22.7422C56.3187 22.6506 56.3141 22.559 56.305 22.4679C56.2964 22.3767 56.2827 22.2865 56.2649 22.1962C56.2471 22.1065 56.2248 22.0176 56.1984 21.9301C56.1715 21.8426 56.141 21.7565 56.1059 21.6717C56.0708 21.5869 56.0316 21.5045 55.9883 21.4233C55.945 21.3427 55.898 21.2643 55.847 21.1882C55.7964 21.1121 55.7417 21.0382 55.6839 20.9676C55.6255 20.8965 55.564 20.8291 55.4993 20.7643C55.4346 20.6992 55.3667 20.6381 55.296 20.5798C55.2249 20.5214 55.1516 20.4672 55.0755 20.4162C54.9989 20.3656 54.9205 20.3182 54.8398 20.2753C54.7592 20.2321 54.6762 20.1929 54.5915 20.1578C54.5072 20.1227 54.4206 20.0917 54.3331 20.0653C54.2456 20.0388 54.1567 20.0165 54.0669 19.9987C53.9767 19.9805 53.8865 19.9673 53.7953 19.9582C53.7042 19.9495 53.6126 19.9449 53.521 19.9449H14.3524C14.2608 19.9449 14.1692 19.9495 14.0781 19.9582C13.9869 19.9673 13.8967 19.9805 13.8064 19.9987C13.7167 20.0165 13.6278 20.0388 13.5403 20.0653C13.4528 20.0917 13.3662 20.1227 13.2819 20.1578C13.1971 20.1929 13.1142 20.2321 13.0335 20.2753C12.9529 20.3182 12.8745 20.3656 12.7979 20.4162C12.7218 20.4672 12.6484 20.5214 12.5773 20.5798C12.5067 20.6381 12.4388 20.6992 12.3741 20.7643C12.3094 20.8291 12.2479 20.8965 12.1895 20.9676C12.1316 21.0382 12.077 21.1121 12.0264 21.1882C11.9753 21.2643 11.9284 21.3427 11.8851 21.4233C11.8418 21.5045 11.8026 21.5869 11.7675 21.6717C11.7324 21.7565 11.7019 21.8426 11.675 21.9301C11.6486 22.0176 11.6262 22.1065 11.6085 22.1962C11.5907 22.2865 11.577 22.3767 11.5684 22.4679C11.5592 22.559 11.5547 22.6506 11.5547 22.7422V67.4994C11.5547 67.591 11.5592 67.6821 11.5684 67.7733C11.577 67.8644 11.5907 67.9551 11.6085 68.0449C11.6262 68.1347 11.6486 68.2235 11.675 68.311C11.7019 68.399 11.7324 68.4851 11.7675 68.5694C11.8026 68.6542 11.8418 68.7371 11.8851 68.8178C11.9284 68.8985 11.9753 68.9773 12.0264 69.0534C12.077 69.1295 12.1316 69.2029 12.1895 69.274C12.2479 69.3446 12.3094 69.4125 12.3741 69.4772C12.4388 69.542 12.5067 69.6035 12.5773 69.6614C12.6484 69.7197 12.7218 69.7739 12.7979 69.825C12.8745 69.876 12.9529 69.9229 13.0335 69.9662C13.1142 70.0095 13.1971 70.0483 13.2819 70.0834C13.3662 70.1185 13.4528 70.1494 13.5403 70.1759C13.6278 70.2028 13.7167 70.2246 13.8064 70.2429C13.8967 70.2606 13.9869 70.2739 14.0781 70.283C14.1692 70.2921 14.2608 70.2966 14.3524 70.2966H53.521C53.6126 70.2966 53.7042 70.2921 53.7953 70.283C53.8865 70.2739 53.9767 70.2606 54.0669 70.2429C54.1567 70.2246 54.2456 70.2028 54.3331 70.1759C54.4206 70.1494 54.5072 70.1185 54.5915 70.0834C54.6762 70.0483 54.7592 70.0095 54.8398 69.9662C54.9205 69.9229 54.9989 69.876 55.0755 69.825C55.1516 69.7739 55.2249 69.7197 55.296 69.6614C55.3667 69.6035 55.4346 69.542 55.4993 69.4772C55.564 69.4125 55.6255 69.3446 55.6839 69.2735C55.7417 69.2029 55.7964 69.1295 55.847 69.0534C55.898 68.9768 55.945 68.8985 55.9883 68.8178C56.0316 68.7371 56.0708 68.6542 56.1059 68.5694C56.141 68.4851 56.1715 68.399 56.1984 68.311C56.2248 68.2235 56.2471 68.1347 56.2649 68.0449C56.2827 67.9551 56.2964 67.8644 56.305 67.7733C56.3141 67.6821 56.3187 67.591 56.3187 67.4994ZM50.7232 25.5395V56.4106C50.1873 55.6764 49.6053 54.98 48.9773 54.3224C48.3498 53.6643 47.6817 53.0505 46.973 52.4808C46.2644 51.9112 45.5216 51.3898 44.7441 50.9181C43.9671 50.446 43.1622 50.0267 42.3301 49.6608C42.4481 49.5272 42.563 49.391 42.6746 49.2515C42.7863 49.1125 42.8947 48.9708 42.9995 48.8268C43.1044 48.6823 43.206 48.5356 43.304 48.3865C43.4015 48.2375 43.4958 48.0862 43.5865 47.9326C43.6772 47.7786 43.7643 47.6232 43.8472 47.4655C43.9306 47.3074 44.0099 47.1479 44.0855 46.9861C44.1612 46.8248 44.2327 46.6616 44.3007 46.4962C44.3681 46.3312 44.4319 46.1649 44.4916 45.9967C44.5518 45.829 44.6074 45.6595 44.6589 45.4886C44.7108 45.3181 44.7582 45.1463 44.8015 44.9731C44.8452 44.8 44.8844 44.6263 44.9195 44.4513C44.9546 44.2763 44.9856 44.1009 45.0125 43.9245C45.0394 43.7481 45.0617 43.5713 45.0799 43.394C45.0982 43.2163 45.1123 43.0386 45.1219 42.8604C45.1319 42.6826 45.1374 42.504 45.1387 42.3258C45.1397 42.1476 45.1369 41.969 45.1296 41.7908C45.1223 41.6126 45.1109 41.4349 45.095 41.2571C45.079 41.0794 45.0594 40.9021 45.0348 40.7257C45.0107 40.5489 44.9824 40.373 44.9496 40.1975C44.9168 40.0221 44.8799 39.8476 44.8389 39.6739C44.7979 39.5003 44.7527 39.328 44.7035 39.1567C44.6543 38.9853 44.601 38.8149 44.5436 38.6462C44.4861 38.4772 44.4246 38.3099 44.3594 38.144C44.2938 37.9781 44.2245 37.8136 44.1512 37.6509C44.0778 37.4882 44.0008 37.3278 43.9201 37.1688C43.839 37.0097 43.7542 36.853 43.6658 36.698C43.5774 36.5431 43.4854 36.3904 43.3892 36.24C43.2935 36.0896 43.1941 35.9415 43.0916 35.7957C42.9886 35.6498 42.8824 35.5067 42.7726 35.3659C42.6628 35.2255 42.5497 35.0875 42.4335 34.9521C42.3173 34.8168 42.1979 34.6846 42.0753 34.5552C41.9527 34.4253 41.827 34.299 41.698 34.1755C41.5695 34.052 41.4378 33.9313 41.3033 33.8142C41.1689 33.697 41.0317 33.5831 40.8918 33.4724C40.7519 33.3616 40.6097 33.2545 40.4648 33.1506C40.3194 33.0467 40.1722 32.9464 40.0223 32.8494C39.8723 32.7528 39.7206 32.6593 39.5661 32.57C39.412 32.4807 39.2557 32.3946 39.0971 32.3125C38.9385 32.2305 38.7786 32.1521 38.6163 32.0778C38.4541 32.0035 38.2905 31.9329 38.1251 31.8664C37.9592 31.7998 37.7924 31.7374 37.6238 31.6786C37.4556 31.6203 37.2856 31.5656 37.1147 31.515C36.9434 31.4644 36.7711 31.4184 36.5979 31.376C36.4247 31.3336 36.2502 31.2958 36.0752 31.2616C35.9002 31.2279 35.7243 31.1983 35.5475 31.1727C35.3711 31.1472 35.1938 31.1258 35.0165 31.1089C34.8388 31.0921 34.6611 31.0789 34.4829 31.0707C34.3047 31.062 34.1265 31.0579 33.9479 31.0579C33.7697 31.0579 33.591 31.062 33.4128 31.0707C33.2346 31.0789 33.0569 31.0921 32.8792 31.1089C32.7019 31.1258 32.5246 31.1472 32.3482 31.1727C32.1714 31.1983 31.9955 31.2279 31.8205 31.2616C31.6455 31.2958 31.4714 31.3336 31.2978 31.376C31.1246 31.4184 30.9523 31.4644 30.7814 31.515C30.6101 31.5656 30.4406 31.6203 30.2719 31.6786C30.1033 31.7374 29.9365 31.7998 29.7711 31.8664C29.6052 31.9329 29.4416 32.0035 29.2794 32.0778C29.1171 32.1521 28.9572 32.2305 28.7986 32.3125C28.6404 32.3946 28.4841 32.4807 28.3296 32.57C28.1751 32.6593 28.0234 32.7528 27.8734 32.8494C27.7235 32.9464 27.5763 33.0467 27.4314 33.1506C27.286 33.2545 27.1438 33.3616 27.0039 33.4724C26.864 33.5831 26.7268 33.697 26.5924 33.8142C26.4579 33.9313 26.3262 34.052 26.1977 34.1755C26.0688 34.299 25.9434 34.4253 25.8204 34.5552C25.6978 34.6846 25.5784 34.8168 25.4622 34.9521C25.346 35.0875 25.2329 35.2255 25.1231 35.3659C25.0133 35.5067 24.9071 35.6498 24.8041 35.7957C24.7016 35.9415 24.6022 36.0896 24.5065 36.24C24.4108 36.3904 24.3183 36.5431 24.2299 36.698C24.1415 36.853 24.0567 37.0097 23.976 37.1688C23.8949 37.3278 23.8179 37.4882 23.7445 37.6509C23.6712 37.8136 23.6019 37.9781 23.5363 38.144C23.4711 38.3099 23.4096 38.4772 23.3521 38.6462C23.2947 38.8149 23.2414 38.9853 23.1922 39.1567C23.143 39.328 23.0979 39.5003 23.0568 39.6739C23.0158 39.8476 22.9789 40.0221 22.9461 40.1975C22.9137 40.373 22.885 40.5489 22.8609 40.7257C22.8367 40.9021 22.8167 41.0794 22.8007 41.2571C22.7848 41.4349 22.7734 41.6126 22.7661 41.7908C22.7588 41.969 22.7561 42.1476 22.757 42.3258C22.7583 42.504 22.7638 42.6826 22.7738 42.8604C22.7834 43.0386 22.7975 43.2163 22.8158 43.394C22.834 43.5713 22.8568 43.7481 22.8832 43.9245C22.9101 44.1009 22.9411 44.2763 22.9762 44.4513C23.0113 44.6263 23.0505 44.8 23.0942 44.9731C23.1375 45.1463 23.1854 45.3181 23.2368 45.4886C23.2883 45.6595 23.3444 45.829 23.4041 45.9967C23.4638 46.1649 23.5276 46.3312 23.5955 46.4962C23.663 46.6616 23.7345 46.8248 23.8102 46.9861C23.8858 47.1479 23.9651 47.3074 24.0485 47.4655C24.1314 47.6232 24.2185 47.7786 24.3092 47.9326C24.3999 48.0862 24.4942 48.2375 24.5917 48.3865C24.6897 48.5356 24.7913 48.6823 24.8962 48.8268C25.001 48.9708 25.1094 49.1125 25.2211 49.2515C25.3327 49.3905 25.4476 49.5272 25.5656 49.6608C24.7335 50.0267 23.9286 50.446 23.1516 50.9181C22.3742 51.3898 21.6313 51.9112 20.9227 52.4808C20.2145 53.0505 19.5459 53.6643 18.9184 54.3224C18.2904 54.98 17.7089 55.6764 17.1725 56.4106V25.5395H50.7232ZM28.341 42.3235C28.341 42.1403 28.3501 41.9571 28.3679 41.7748C28.3861 41.5925 28.413 41.4116 28.4486 41.2321C28.4846 41.052 28.5288 40.8748 28.5821 40.6993C28.6354 40.5239 28.6969 40.3516 28.7671 40.1825C28.8373 40.013 28.9157 39.8476 29.0018 39.6862C29.0884 39.5244 29.1823 39.3677 29.2844 39.215C29.386 39.0628 29.4949 38.9156 29.6111 38.7743C29.7273 38.6326 29.8504 38.4968 29.9803 38.3673C30.1097 38.2379 30.2451 38.1149 30.3868 37.9987C30.5285 37.8824 30.6757 37.7735 30.8279 37.6714C30.9801 37.5698 31.1374 37.4755 31.2992 37.3893C31.4605 37.3028 31.6259 37.2248 31.7954 37.1546C31.9645 37.0845 32.1372 37.0229 32.3122 36.9696C32.4877 36.9163 32.6654 36.8721 32.845 36.8361C33.025 36.8005 33.2059 36.7737 33.3882 36.7554C33.5705 36.7377 33.7533 36.7285 33.9369 36.7285C34.1201 36.7285 34.3029 36.7377 34.4852 36.7554C34.6674 36.7737 34.8484 36.8005 35.0284 36.8361C35.2079 36.8721 35.3857 36.9163 35.5611 36.9696C35.7361 37.0229 35.9089 37.0845 36.0779 37.1546C36.2475 37.2248 36.4129 37.3028 36.5742 37.3893C36.736 37.4755 36.8932 37.5698 37.0454 37.6714C37.1977 37.7735 37.3449 37.8824 37.4866 37.9987C37.6283 38.1149 37.7637 38.2379 37.8931 38.3673C38.023 38.4968 38.146 38.6326 38.2622 38.7743C38.3785 38.9156 38.4874 39.0628 38.589 39.215C38.6911 39.3677 38.785 39.5244 38.8716 39.6862C38.9577 39.8476 39.0361 40.013 39.1063 40.1825C39.1764 40.3516 39.238 40.5239 39.2913 40.6993C39.3446 40.8748 39.3888 41.052 39.4248 41.2321C39.4604 41.4116 39.4872 41.5925 39.5055 41.7748C39.5232 41.9571 39.5324 42.1403 39.5324 42.3235C39.5324 42.5067 39.5232 42.6895 39.5055 42.8718C39.4872 43.0541 39.4604 43.235 39.4248 43.415C39.3888 43.5946 39.3446 43.7718 39.2913 43.9473C39.238 44.1227 39.1764 44.295 39.1063 44.4641C39.0361 44.6336 38.9577 44.799 38.8716 44.9608C38.785 45.1222 38.6911 45.2794 38.589 45.4316C38.4874 45.5838 38.3785 45.731 38.2622 45.8727C38.146 46.014 38.023 46.1498 37.8931 46.2793C37.7637 46.4087 37.6283 46.5317 37.4866 46.6479C37.3449 46.7642 37.1977 46.8731 37.0454 46.9752C36.8932 47.0768 36.736 47.1711 36.5742 47.2573C36.4129 47.3438 36.2475 47.4218 36.0779 47.492C35.9089 47.5621 35.7361 47.6237 35.5611 47.677C35.3857 47.7303 35.2079 47.7745 35.0284 47.8105C34.8484 47.8461 34.6674 47.8729 34.4852 47.8912C34.3029 47.9089 34.1201 47.9181 33.9369 47.9181C33.7533 47.9181 33.5705 47.9089 33.3882 47.8912C33.2059 47.8729 33.025 47.8461 32.845 47.8105C32.6654 47.7745 32.4877 47.7303 32.3122 47.677C32.1372 47.6237 31.9645 47.5621 31.7954 47.492C31.6259 47.4218 31.4605 47.3438 31.2992 47.2573C31.1374 47.1711 30.9801 47.0768 30.8279 46.9752C30.6757 46.8731 30.5285 46.7642 30.3868 46.6479C30.2451 46.5317 30.1097 46.4087 29.9803 46.2793C29.8504 46.1498 29.7273 46.014 29.6111 45.8727C29.4949 45.731 29.386 45.5838 29.2844 45.4316C29.1823 45.2794 29.0884 45.1222 29.0018 44.9608C28.9157 44.799 28.8373 44.6336 28.7671 44.4641C28.6969 44.295 28.6354 44.1227 28.5821 43.9473C28.5288 43.7718 28.4846 43.5946 28.4486 43.415C28.413 43.235 28.3861 43.0541 28.3679 42.8718C28.3501 42.6895 28.341 42.5067 28.341 42.3235ZM33.9369 53.5126C34.2906 53.5112 34.6438 53.5217 34.9969 53.5449C35.3501 53.5682 35.702 53.6037 36.0524 53.6511C36.4029 53.699 36.7515 53.7587 37.0979 53.8307C37.4442 53.9027 37.7878 53.9865 38.1283 54.0823C38.4691 54.1784 38.8059 54.286 39.1391 54.4049C39.4722 54.5243 39.8003 54.6551 40.1244 54.7973C40.4484 54.9399 40.7669 55.0931 41.0805 55.2576C41.3936 55.4221 41.7007 55.5971 42.002 55.783C42.3027 55.9685 42.5971 56.1649 42.8847 56.3709C43.1718 56.5774 43.4516 56.7934 43.7242 57.0194C43.9962 57.245 44.2605 57.4802 44.5167 57.7244C44.7723 57.9687 45.0198 58.2216 45.2581 58.4828C45.496 58.7444 45.7253 59.0137 45.9449 59.2912C46.1641 59.5688 46.3738 59.8536 46.5738 60.1453C46.7734 60.4374 46.9626 60.7359 47.1417 61.0412C47.3203 61.3466 47.4885 61.6574 47.6457 61.9746L49.0083 64.7017H18.8792L20.2418 61.9746C20.3986 61.6578 20.5667 61.347 20.7454 61.0421C20.924 60.7373 21.1132 60.4388 21.3128 60.1471C21.5124 59.855 21.7215 59.5706 21.9412 59.2935C22.1604 59.016 22.3892 58.7471 22.6271 58.4855C22.865 58.2244 23.112 57.9714 23.3676 57.7276C23.6233 57.4834 23.8872 57.2487 24.1592 57.0226C24.4313 56.797 24.7107 56.581 24.9978 56.3746C25.2849 56.1686 25.5788 55.9722 25.8796 55.7867C26.1804 55.6007 26.4871 55.4257 26.8002 55.2612C27.1128 55.0967 27.4314 54.9431 27.7549 54.8009C28.0785 54.6587 28.4066 54.528 28.7393 54.4086C29.072 54.2892 29.4088 54.1811 29.7488 54.085C30.0892 53.9893 30.4324 53.905 30.7783 53.833C31.1242 53.761 31.4723 53.7008 31.8228 53.653C32.1732 53.6051 32.5246 53.5696 32.8773 53.5459C33.2301 53.5226 33.5833 53.5112 33.9369 53.5126Z" fill="#FF8144"/>
<path d="M17.1484 75.8912H50.7215V81.4858H17.1484V75.8912Z" fill="#FF8144"/>
<mask id="mask0_1924_3924" style="mask-type:luminance" maskUnits="userSpaceOnUse" x="0" y="8" width="174" height="158">
<path d="M0.363281 8.75H173.833V165.317H0.363281V8.75Z" fill="white"/>
</mask>
<g mask="url(#mask0_1924_3924)">
<path d="M141.409 117.851L142.229 117.031C142.294 116.967 142.355 116.899 142.413 116.828C142.471 116.757 142.526 116.684 142.577 116.608C142.627 116.531 142.675 116.453 142.718 116.372C142.761 116.291 142.8 116.209 142.835 116.124C142.87 116.039 142.901 115.953 142.928 115.866C142.954 115.778 142.976 115.689 142.994 115.6C143.012 115.509 143.026 115.419 143.034 115.328C143.043 115.237 143.048 115.145 143.048 115.054C143.048 114.962 143.043 114.871 143.034 114.78C143.026 114.688 143.012 114.598 142.994 114.508C142.976 114.418 142.954 114.329 142.928 114.242C142.901 114.154 142.87 114.068 142.835 113.983C142.8 113.899 142.761 113.816 142.718 113.735C142.675 113.654 142.627 113.576 142.577 113.5C142.526 113.424 142.471 113.35 142.413 113.279C142.355 113.209 142.294 113.141 142.229 113.076L133.656 104.502C134.484 102.698 135.179 100.843 135.741 98.9394C136.304 97.0354 136.728 95.1013 137.014 93.1366C137.53 92.5205 137.988 91.8647 138.39 91.1688C138.792 90.4733 139.131 89.7478 139.407 88.9931C139.683 88.2384 139.892 87.466 140.034 86.6748C140.175 85.8841 140.248 85.0866 140.251 84.2832V22.7424C140.25 22.5136 140.245 22.2848 140.233 22.0561C140.222 21.8278 140.205 21.5994 140.182 21.372C140.159 21.1442 140.131 20.9172 140.097 20.6907C140.063 20.4647 140.024 20.2391 139.979 20.0149C139.934 19.7906 139.884 19.5673 139.828 19.3454C139.772 19.1235 139.711 18.9029 139.645 18.6841C139.578 18.4654 139.506 18.248 139.429 18.0324C139.352 17.8173 139.269 17.6041 139.182 17.3926C139.094 17.1811 139.001 16.972 138.903 16.7651C138.805 16.5586 138.702 16.354 138.594 16.1526C138.486 15.9507 138.373 15.7515 138.256 15.5556C138.138 15.3591 138.015 15.1659 137.888 14.9759C137.761 14.7854 137.629 14.5985 137.493 14.4149C137.356 14.2312 137.216 14.0507 137.07 13.8739C136.925 13.6971 136.776 13.5239 136.622 13.3544C136.468 13.1848 136.31 13.019 136.149 12.8572C135.987 12.6954 135.821 12.5377 135.652 12.3841C135.482 12.2306 135.309 12.0811 135.132 11.9357C134.955 11.7903 134.775 11.65 134.591 11.5132C134.407 11.377 134.22 11.2453 134.03 11.1181C133.84 10.991 133.646 10.8684 133.45 10.7508C133.254 10.6332 133.055 10.5202 132.853 10.4122C132.651 10.3042 132.447 10.2012 132.24 10.1032C132.033 10.0052 131.824 9.91271 131.613 9.82476C131.401 9.73726 131.188 9.65477 130.973 9.5773C130.757 9.50028 130.54 9.42827 130.321 9.36174C130.102 9.2952 129.882 9.23413 129.66 9.17808C129.438 9.12248 129.214 9.07235 128.99 9.02723C128.765 8.98257 128.54 8.94292 128.314 8.9092C128.087 8.87547 127.86 8.84722 127.632 8.82443C127.405 8.8021 127.177 8.78478 126.948 8.77339C126.72 8.762 126.491 8.75607 126.262 8.75562H14.3519C14.1231 8.75607 13.8943 8.762 13.6656 8.77339C13.4372 8.78478 13.2089 8.8021 12.9815 8.82443C12.7536 8.84722 12.5267 8.87547 12.3002 8.9092C12.0737 8.94292 11.8486 8.98257 11.6239 9.02723C11.3997 9.07235 11.1764 9.12248 10.9544 9.17808C10.7325 9.23413 10.5119 9.2952 10.2932 9.36174C10.074 9.42827 9.85703 9.50028 9.64147 9.5773C9.42591 9.65477 9.21263 9.73726 9.00117 9.82476C8.78971 9.91271 8.58053 10.0052 8.37409 10.1032C8.16719 10.2012 7.96256 10.3042 7.76113 10.4122C7.55924 10.5202 7.36009 10.6332 7.16367 10.7508C6.96771 10.8684 6.77448 10.991 6.58398 11.1181C6.39395 11.2453 6.20664 11.377 6.02298 11.5132C5.83932 11.65 5.65885 11.7903 5.48203 11.9357C5.30521 12.0811 5.13203 12.2301 4.9625 12.3841C4.79297 12.5377 4.62708 12.6954 4.4653 12.8572C4.30352 13.019 4.14583 13.1848 3.9918 13.3544C3.83822 13.5239 3.68874 13.6971 3.54336 13.8739C3.39844 14.0507 3.25762 14.2312 3.12135 14.4149C2.98464 14.5985 2.85293 14.7854 2.72578 14.9759C2.59863 15.1659 2.47604 15.3591 2.35846 15.5556C2.24089 15.7515 2.12786 15.9507 2.01986 16.1526C1.91185 16.354 1.80885 16.5586 1.71087 16.7651C1.61289 16.972 1.52038 17.1811 1.43242 17.3926C1.34492 17.6041 1.26243 17.8173 1.18496 18.0324C1.10794 18.248 1.03594 18.4654 0.969401 18.6841C0.902865 18.9029 0.841341 19.1235 0.785742 19.3454C0.729688 19.5673 0.679557 19.7906 0.634896 20.0149C0.589779 20.2391 0.550586 20.4647 0.516862 20.6907C0.483138 20.9172 0.454883 21.1442 0.432096 21.372C0.40931 21.5994 0.392448 21.8278 0.380599 22.0561C0.369206 22.2848 0.363281 22.5136 0.363281 22.7424V84.2832C0.363281 84.5119 0.369206 84.7407 0.380599 84.9695C0.392448 85.1978 0.40931 85.4261 0.432096 85.6535C0.454883 85.8814 0.483138 86.1084 0.516862 86.3349C0.550586 86.5609 0.589779 86.7865 0.634896 87.0107C0.679557 87.2349 0.729688 87.4582 0.785742 87.6802C0.841341 87.9021 0.902865 88.1227 0.969401 88.3414C1.03594 88.5602 1.10794 88.7776 1.18496 88.9931C1.26243 89.2082 1.34492 89.4215 1.43242 89.633C1.52038 89.8444 1.61289 90.0536 1.71087 90.2605C1.80885 90.4669 1.91185 90.6716 2.01986 90.873C2.12786 91.0749 2.24089 91.274 2.35846 91.47C2.47604 91.6664 2.59863 91.8597 2.72578 92.0497C2.85293 92.2402 2.98464 92.427 3.12135 92.6107C3.25762 92.7944 3.39844 92.9748 3.54336 93.1516C3.68874 93.3285 3.83822 93.5016 3.9918 93.6712C4.14583 93.8407 4.30352 94.0066 4.4653 94.1684C4.62708 94.3302 4.79297 94.4878 4.9625 94.6414C5.13203 94.7955 5.30521 94.9445 5.48203 95.0899C5.65885 95.2352 5.83932 95.3761 6.02298 95.5123C6.20664 95.6486 6.39395 95.7803 6.58398 95.9074C6.77448 96.0346 6.96771 96.1572 7.16367 96.2748C7.36009 96.3923 7.55924 96.5054 7.76113 96.6134C7.96256 96.7214 8.16719 96.8244 8.37409 96.9224C8.58053 97.0203 8.78971 97.1128 9.00117 97.2008C9.21263 97.2883 9.42591 97.3708 9.64147 97.4483C9.85703 97.5253 10.074 97.5973 10.2932 97.6638C10.5119 97.7304 10.7325 97.7914 10.9544 97.8475C11.1764 97.9031 11.3997 97.9537 11.6239 97.9983C11.8486 98.043 12.0737 98.0826 12.3002 98.1164C12.5267 98.1501 12.7536 98.1783 12.9815 98.2011C13.2089 98.2235 13.4372 98.2408 13.6656 98.2522C13.8943 98.2636 14.1231 98.2695 14.3519 98.2699H55.0508C55.1971 98.7995 55.3534 99.3259 55.5206 99.849C55.6874 100.372 55.8643 100.892 56.052 101.409C56.2393 101.925 56.4367 102.438 56.644 102.946C56.8514 103.455 57.0687 103.959 57.2962 104.459C57.5236 104.96 57.7605 105.455 58.0076 105.946C58.2541 106.436 58.5107 106.922 58.7764 107.403C59.0421 107.884 59.3173 108.359 59.6021 108.829C59.8865 109.299 60.1805 109.763 60.4831 110.221C60.7861 110.679 61.0979 111.132 61.4182 111.578C61.7391 112.024 62.0681 112.463 62.4058 112.897C62.7439 113.33 63.0898 113.756 63.4449 114.175C63.7994 114.595 64.1622 115.008 64.5327 115.413C64.9036 115.818 65.2824 116.216 65.6688 116.606C66.0553 116.997 66.4495 117.38 66.851 117.754C67.2525 118.129 67.6613 118.496 68.0773 118.855C68.493 119.214 68.9159 119.564 69.3456 119.907C69.7754 120.249 70.2115 120.582 70.6545 120.908C71.0975 121.233 71.5464 121.549 72.0016 121.856C72.4569 122.164 72.9181 122.462 73.3852 122.752C73.8523 123.041 74.3245 123.321 74.8025 123.592C75.2806 123.862 75.7637 124.124 76.2522 124.375C76.7403 124.627 77.2334 124.869 77.7315 125.102C78.2292 125.334 78.7314 125.557 79.2377 125.769C79.7445 125.982 80.2549 126.185 80.7694 126.377C81.2839 126.57 81.8021 126.752 82.3239 126.924C82.8452 127.097 83.3702 127.258 83.8984 127.41C84.4266 127.562 84.9571 127.703 85.4908 127.834C86.0244 127.964 86.5603 128.085 87.0986 128.194C87.6372 128.304 88.1773 128.403 88.7196 128.492C89.2619 128.58 89.8056 128.658 90.3511 128.725C90.8962 128.792 91.4426 128.848 91.9899 128.894C92.5377 128.94 93.0859 128.974 93.6346 128.998C94.2613 129.026 94.8861 129.04 95.509 129.04C97.0043 129.038 98.4954 128.955 99.9816 128.792C101.468 128.629 102.942 128.386 104.402 128.065C105.862 127.743 107.301 127.343 108.718 126.866C110.135 126.389 111.522 125.837 112.881 125.211L121.486 133.815C121.551 133.88 121.619 133.942 121.69 134C121.76 134.058 121.834 134.112 121.91 134.163C121.986 134.214 122.065 134.261 122.146 134.304C122.227 134.347 122.309 134.386 122.394 134.422C122.479 134.457 122.565 134.487 122.652 134.514C122.74 134.541 122.829 134.563 122.918 134.581C123.008 134.598 123.099 134.612 123.19 134.621C123.281 134.63 123.373 134.634 123.464 134.634C123.556 134.634 123.647 134.63 123.738 134.621C123.829 134.612 123.92 134.598 124.01 134.581C124.1 134.563 124.189 134.541 124.276 134.514C124.364 134.487 124.45 134.457 124.535 134.422C124.619 134.386 124.702 134.347 124.783 134.304C124.863 134.261 124.942 134.214 125.018 134.163C125.095 134.112 125.168 134.058 125.239 134C125.31 133.942 125.378 133.88 125.442 133.815L126.262 132.996L155.54 162.267C155.665 162.388 155.792 162.506 155.923 162.621C156.053 162.736 156.186 162.847 156.322 162.956C156.458 163.064 156.596 163.169 156.737 163.271C156.878 163.373 157.021 163.471 157.167 163.566C157.312 163.661 157.46 163.752 157.61 163.839C157.76 163.927 157.913 164.011 158.067 164.091C158.221 164.171 158.377 164.247 158.535 164.32C158.693 164.393 158.852 164.461 159.014 164.526C159.175 164.591 159.338 164.651 159.502 164.708C159.666 164.765 159.831 164.818 159.998 164.867C160.165 164.916 160.333 164.96 160.501 165.001C160.671 165.042 160.841 165.078 161.011 165.111C161.182 165.143 161.353 165.171 161.526 165.196C161.697 165.219 161.87 165.239 162.043 165.255C162.216 165.271 162.39 165.282 162.563 165.289C162.737 165.297 162.91 165.299 163.084 165.298C163.258 165.297 163.431 165.292 163.605 165.282C163.779 165.272 163.952 165.258 164.125 165.24C164.297 165.222 164.47 165.2 164.641 165.174C164.813 165.147 164.984 165.116 165.154 165.082C165.324 165.047 165.494 165.008 165.662 164.965C165.83 164.922 165.998 164.875 166.164 164.824C166.33 164.772 166.495 164.717 166.658 164.658C166.822 164.599 166.983 164.536 167.143 164.469C167.304 164.402 167.462 164.331 167.619 164.256C167.776 164.181 167.931 164.103 168.084 164.02C168.237 163.938 168.388 163.852 168.537 163.762C168.685 163.673 168.832 163.58 168.977 163.483C169.121 163.386 169.263 163.286 169.402 163.182C169.541 163.078 169.679 162.971 169.812 162.861C169.947 162.751 170.078 162.637 170.207 162.52C170.336 162.403 170.461 162.283 170.585 162.161C170.707 162.038 170.827 161.912 170.944 161.784C171.06 161.655 171.174 161.523 171.285 161.389C171.395 161.255 171.502 161.118 171.605 160.979C171.709 160.839 171.809 160.698 171.906 160.553C172.003 160.409 172.096 160.262 172.185 160.113C172.275 159.964 172.361 159.813 172.443 159.661C172.526 159.508 172.604 159.353 172.679 159.196C172.754 159.039 172.825 158.881 172.892 158.72C172.959 158.56 173.022 158.398 173.081 158.235C173.14 158.071 173.195 157.907 173.247 157.74C173.298 157.574 173.345 157.407 173.388 157.239C173.431 157.07 173.47 156.901 173.504 156.731C173.539 156.561 173.57 156.39 173.596 156.218C173.623 156.046 173.645 155.874 173.663 155.701C173.681 155.529 173.695 155.355 173.705 155.182C173.714 155.009 173.72 154.835 173.721 154.661C173.722 154.487 173.719 154.314 173.712 154.14C173.704 153.966 173.693 153.793 173.678 153.62C173.662 153.447 173.642 153.275 173.618 153.103C173.594 152.931 173.565 152.759 173.533 152.588C173.501 152.418 173.464 152.248 173.423 152.079C173.383 151.91 173.338 151.742 173.289 151.576C173.24 151.409 173.187 151.243 173.13 151.079C173.073 150.915 173.013 150.753 172.947 150.591C172.883 150.43 172.814 150.27 172.741 150.113C172.669 149.955 172.592 149.799 172.512 149.645C172.432 149.491 172.348 149.339 172.261 149.189C172.173 149.039 172.082 148.891 171.987 148.745C171.892 148.599 171.794 148.456 171.692 148.315C171.59 148.175 171.485 148.036 171.377 147.901C171.269 147.765 171.156 147.632 171.042 147.501C170.927 147.371 170.809 147.244 170.688 147.119L141.409 117.851ZM14.3519 92.675C14.2147 92.675 14.0771 92.6718 13.9399 92.6649C13.8027 92.6586 13.666 92.6481 13.5293 92.6348C13.3926 92.6212 13.2563 92.6043 13.1205 92.5843C12.9847 92.5642 12.8493 92.5405 12.7145 92.5141C12.5796 92.4872 12.4456 92.4571 12.3125 92.4239C12.1794 92.3901 12.0468 92.3537 11.9156 92.314C11.7839 92.2739 11.6535 92.2311 11.5241 92.1846C11.3951 92.1386 11.2671 92.0889 11.1399 92.0365C11.0132 91.9836 10.8874 91.928 10.7635 91.8692C10.6391 91.8109 10.5165 91.7489 10.3952 91.6842C10.274 91.6195 10.1546 91.552 10.037 91.4814C9.91901 91.4108 9.80326 91.3369 9.68887 91.2608C9.57448 91.1847 9.46237 91.1054 9.35208 91.0238C9.2418 90.9418 9.13333 90.8575 9.02715 90.7705C8.92096 90.683 8.81706 90.5936 8.71543 90.5011C8.61335 90.4091 8.514 90.3143 8.41693 90.2172C8.31986 90.1201 8.22507 90.0208 8.13301 89.9187C8.04049 89.8171 7.95117 89.7132 7.86367 89.607C7.77663 89.5008 7.69232 89.3928 7.61029 89.2825C7.52871 89.1718 7.44941 89.0597 7.37331 88.9457C7.29674 88.8313 7.22337 88.7151 7.15273 88.5975C7.0821 88.48 7.01465 88.3601 6.94993 88.2393C6.88477 88.1181 6.82324 87.9955 6.76445 87.8711C6.70566 87.7472 6.65006 87.6214 6.59766 87.4947C6.54479 87.368 6.49557 87.2395 6.44909 87.1105C6.40306 86.9811 6.35977 86.8507 6.32012 86.7195C6.28001 86.5878 6.24355 86.4556 6.21029 86.3221C6.17702 86.189 6.14694 86.055 6.12005 85.9206C6.09316 85.7857 6.06947 85.6503 6.04941 85.5145C6.02936 85.3787 6.0125 85.2425 5.99928 85.1058C5.98561 84.969 5.97559 84.8323 5.96875 84.6951C5.96191 84.558 5.95872 84.4208 5.95872 84.2832V22.7424C5.95872 22.6048 5.96191 22.4676 5.96875 22.3304C5.97559 22.1932 5.98561 22.0565 5.99928 21.9198C6.0125 21.7831 6.02936 21.6468 6.04941 21.511C6.06947 21.3752 6.09316 21.2399 6.12005 21.105C6.14694 20.9705 6.17702 20.8365 6.21029 20.7035C6.24355 20.5699 6.28001 20.4378 6.32012 20.3061C6.35977 20.1748 6.40306 20.0445 6.44909 19.9151C6.49557 19.7856 6.54479 19.6576 6.59766 19.5309C6.65006 19.4042 6.70566 19.2784 6.76445 19.1544C6.82324 19.03 6.88477 18.9074 6.94993 18.7862C7.01465 18.6654 7.0821 18.5456 7.15273 18.428C7.22337 18.3104 7.29674 18.1942 7.37331 18.0798C7.44941 17.9659 7.52871 17.8538 7.61029 17.7431C7.69232 17.6328 7.77663 17.5248 7.86367 17.4186C7.95117 17.3124 8.04049 17.2085 8.13301 17.1069C8.22507 17.0048 8.31986 16.9054 8.41693 16.8084C8.514 16.7113 8.61335 16.6165 8.71543 16.5244C8.81706 16.4319 8.92096 16.3426 9.02715 16.2551C9.13333 16.1681 9.2418 16.0837 9.35208 16.0017C9.46237 15.9201 9.57448 15.8408 9.68887 15.7647C9.80326 15.6882 9.91901 15.6148 10.037 15.5442C10.1546 15.4735 10.274 15.4061 10.3952 15.3414C10.5165 15.2766 10.6391 15.2147 10.7635 15.1559C10.8874 15.0975 11.0132 15.0419 11.1399 14.9891C11.2671 14.9367 11.3951 14.887 11.5241 14.841C11.6535 14.7945 11.7839 14.7516 11.9156 14.7115C12.0468 14.6719 12.1794 14.6354 12.3125 14.6017C12.4456 14.5684 12.5796 14.5384 12.7145 14.5115C12.8493 14.485 12.9847 14.4613 13.1205 14.4413C13.2563 14.4212 13.3926 14.4044 13.5293 14.3907C13.666 14.3775 13.8027 14.367 13.9399 14.3606C14.0771 14.3538 14.2147 14.3506 14.3519 14.3506H126.262C126.399 14.3506 126.536 14.3538 126.674 14.3606C126.811 14.367 126.948 14.3775 127.085 14.3907C127.221 14.4044 127.358 14.4212 127.493 14.4413C127.629 14.4613 127.765 14.485 127.9 14.5115C128.034 14.5384 128.168 14.5684 128.301 14.6017C128.435 14.6354 128.567 14.6719 128.698 14.7115C128.83 14.7516 128.96 14.7945 129.089 14.841C129.219 14.887 129.347 14.9367 129.474 14.9891C129.601 15.0419 129.727 15.0975 129.851 15.1559C129.975 15.2147 130.098 15.2766 130.219 15.3414C130.34 15.4061 130.459 15.4735 130.577 15.5442C130.695 15.6148 130.811 15.6882 130.925 15.7647C131.039 15.8408 131.152 15.9201 131.262 16.0017C131.372 16.0837 131.481 16.1681 131.587 16.2551C131.693 16.3426 131.797 16.4319 131.899 16.5244C132 16.6165 132.1 16.7113 132.197 16.8084C132.294 16.9054 132.389 17.0048 132.481 17.1069C132.573 17.2085 132.663 17.3124 132.75 17.4186C132.837 17.5248 132.922 17.6328 133.004 17.7431C133.085 17.8533 133.165 17.9659 133.241 18.0798C133.317 18.1942 133.391 18.31 133.461 18.428C133.532 18.5456 133.599 18.6654 133.664 18.7862C133.729 18.9074 133.791 19.03 133.85 19.1544C133.908 19.2784 133.964 19.4042 134.016 19.5309C134.069 19.6576 134.118 19.7856 134.164 19.9151C134.211 20.0445 134.254 20.1748 134.294 20.3061C134.334 20.4378 134.37 20.5699 134.404 20.7035C134.437 20.8365 134.467 20.9705 134.494 21.105C134.521 21.2399 134.544 21.3752 134.565 21.511C134.585 21.6468 134.602 21.7831 134.615 21.9198C134.628 22.0565 134.638 22.1932 134.645 22.3304C134.652 22.4676 134.655 22.6048 134.655 22.7424V72.0755C134.473 71.602 134.283 71.1322 134.084 70.6655C133.886 70.1988 133.679 69.7358 133.463 69.2769C133.248 68.8175 133.024 68.3627 132.791 67.9115C132.559 67.4604 132.319 67.0138 132.071 66.5717C131.823 66.1292 131.567 65.6917 131.302 65.2583C131.039 64.8253 130.767 64.3974 130.487 63.974C130.207 63.5507 129.92 63.1328 129.626 62.7199C129.331 62.3074 129.029 61.9 128.719 61.4981C128.41 61.0961 128.093 60.7001 127.769 60.3095C127.446 59.9194 127.115 59.5348 126.777 59.1565C126.439 58.7778 126.094 58.4059 125.743 58.04C125.392 57.674 125.034 57.3145 124.67 56.9617C124.306 56.6085 123.935 56.2622 123.558 55.9227C123.181 55.5832 122.799 55.2505 122.41 54.9246C122.021 54.5992 121.626 54.2807 121.226 53.969C120.826 53.6577 120.42 53.3537 120.008 53.057C119.597 52.7604 119.18 52.471 118.758 52.1893C118.336 51.9077 117.91 51.6343 117.477 51.3677C117.046 51.1015 116.609 50.8436 116.168 50.5929C115.727 50.3427 115.281 50.1007 114.832 49.8665C114.381 49.6322 113.927 49.4062 113.469 49.1884C113.011 48.9705 112.549 48.7613 112.083 48.5604C111.618 48.3589 111.148 48.1666 110.676 47.9825C110.203 47.7984 109.727 47.6229 109.248 47.4561C108.769 47.2893 108.287 47.1312 107.802 46.9822C107.317 46.8327 106.83 46.6923 106.34 46.5606C105.85 46.4289 105.358 46.3059 104.864 46.1919C104.37 46.078 103.874 45.9732 103.375 45.8775C102.877 45.7813 102.377 45.6947 101.876 45.6168C101.375 45.5389 100.873 45.4705 100.368 45.4108C99.8649 45.3511 99.36 45.3005 98.8546 45.2595C98.3492 45.2181 97.8428 45.1857 97.3361 45.1629C96.6497 45.1324 95.9634 45.1192 95.2766 45.1228C94.5898 45.126 93.904 45.1465 93.2181 45.1834C92.5322 45.2208 91.8477 45.2746 91.1646 45.3452C90.4814 45.4158 89.8006 45.5033 89.122 45.6077C88.443 45.7116 87.7671 45.8324 87.0945 45.97C86.4214 46.1072 85.7523 46.2608 85.087 46.4312C84.4216 46.6012 83.7608 46.7876 83.1046 46.9904C82.4488 47.1927 81.798 47.4115 81.1522 47.6462C80.5069 47.8804 79.8675 48.1311 79.2345 48.3968C78.601 48.6629 77.9749 48.9441 77.3555 49.2408C76.7362 49.5375 76.1246 49.8492 75.5208 50.1759C74.9165 50.5027 74.3208 50.844 73.7334 51.2C73.1464 51.5559 72.5681 51.9259 71.9989 52.3101C71.4297 52.6943 70.8705 53.0926 70.3209 53.5041C69.7713 53.9161 69.2322 54.3413 68.7035 54.7793C68.1749 55.2177 67.6572 55.6684 67.1508 56.1323C66.6441 56.5958 66.1492 57.0716 65.6661 57.5597C65.183 58.0473 64.7118 58.5468 64.2533 59.0581C63.7949 59.569 63.3487 60.0912 62.9158 60.624C62.4828 61.1572 62.0631 61.7004 61.6566 62.2537C61.2501 62.8074 60.8577 63.3707 60.479 63.9431C60.1003 64.5159 59.7361 65.0979 59.3857 65.6885C59.0357 66.2791 58.7003 66.8779 58.3794 67.4854C58.0586 68.0925 57.7533 68.7072 57.4625 69.3293C57.1717 69.9514 56.8969 70.5803 56.6372 71.216C56.3774 71.8518 56.1336 72.4934 55.9053 73.141C55.6774 73.7886 55.465 74.4417 55.2691 75.0998C55.0727 75.7578 54.8931 76.42 54.7295 77.0872C54.5659 77.7539 54.4187 78.4243 54.2879 79.0983C54.1576 79.7728 54.0432 80.4496 53.9461 81.1291C53.8486 81.809 53.7679 82.4908 53.7036 83.1744C53.6398 83.858 53.5929 84.5429 53.5624 85.2288C53.4612 87.7212 53.5792 90.2035 53.9178 92.675H14.3519ZM93.8807 123.409C93.2951 123.383 92.71 123.343 92.1262 123.288C91.5424 123.234 90.96 123.165 90.3794 123.083C89.7988 123 89.2204 122.903 88.6449 122.793C88.0688 122.682 87.496 122.558 86.9258 122.419C86.3562 122.281 85.7897 122.129 85.2273 121.963C84.6645 121.797 84.1067 121.618 83.5525 121.426C82.9988 121.233 82.4497 121.027 81.906 120.808C81.3623 120.588 80.8236 120.356 80.2913 120.111C79.7586 119.866 79.2322 119.608 78.7118 119.337C78.1918 119.066 77.6782 118.783 77.1719 118.487C76.6656 118.192 76.1665 117.884 75.6748 117.565C75.1831 117.245 74.6995 116.913 74.2238 116.57C73.7484 116.227 73.2813 115.873 72.8229 115.507C72.3644 115.141 71.915 114.765 71.4748 114.377C71.035 113.99 70.6044 113.592 70.1833 113.184C69.7622 112.776 69.3516 112.357 68.9505 111.93C68.5499 111.501 68.1598 111.064 67.7802 110.617C67.4006 110.17 67.0324 109.714 66.6746 109.249C66.3173 108.785 65.971 108.311 65.6365 107.83C65.302 107.348 64.9793 106.859 64.668 106.361C64.3572 105.864 64.0587 105.36 63.7721 104.848C63.4854 104.337 63.2115 103.818 62.9499 103.294C62.6883 102.769 62.44 102.238 62.2039 101.701C61.9683 101.164 61.7454 100.622 61.5363 100.075C61.3266 99.5268 61.1302 98.9745 60.9475 98.4171C60.7647 97.8602 60.5956 97.2988 60.4398 96.7337C60.2839 96.1681 60.1422 95.5994 60.0141 95.0274C59.8861 94.455 59.7717 93.8804 59.6714 93.3025C59.5712 92.7246 59.4846 92.1449 59.4126 91.563C59.3401 90.981 59.2818 90.3981 59.238 89.8134C59.1938 89.2287 59.1637 88.6431 59.1482 88.0571C59.1323 87.471 59.1309 86.8845 59.1432 86.2984C59.156 85.7123 59.1829 85.1267 59.2239 84.5416C59.2649 83.9569 59.3196 83.3731 59.3889 82.7911C59.4581 82.2087 59.5411 81.6285 59.6386 81.0502C59.7357 80.4719 59.8469 79.8963 59.9722 79.3235C60.0971 78.7506 60.2361 78.1814 60.3887 77.6149C60.5414 77.0489 60.7077 76.487 60.8873 75.9287C61.0673 75.3705 61.2605 74.8172 61.467 74.2685C61.6739 73.7198 61.8936 73.1761 62.1264 72.6379C62.3593 72.1002 62.6049 71.5679 62.8638 71.0415C63.1222 70.5151 63.3938 69.9956 63.6773 69.4824C63.9612 68.9693 64.2574 68.4634 64.5655 67.9644C64.8736 67.4658 65.1939 66.9746 65.5262 66.4915C65.8579 66.008 66.2016 65.5331 66.5566 65.0664C66.9116 64.5998 67.2775 64.1418 67.6549 63.6929C68.0318 63.244 68.4196 62.8042 68.8184 62.374C69.2167 61.9438 69.6255 61.5231 70.0438 61.113C70.4626 60.7024 70.891 60.3022 71.3294 59.9126C71.7674 59.5225 72.2149 59.1438 72.6711 58.7755C73.1277 58.4073 73.5926 58.0505 74.0665 57.705C74.54 57.3591 75.0222 57.0255 75.5121 56.7029C76.002 56.3807 76.4992 56.0703 77.0042 55.7723C77.5091 55.4738 78.0209 55.188 78.5395 54.9146C79.0581 54.6407 79.5831 54.38 80.1145 54.1321C80.6459 53.8837 81.1832 53.6486 81.726 53.4266C82.2683 53.2043 82.8161 52.9955 83.3693 52.7996C83.9221 52.6041 84.479 52.4218 85.041 52.2531C85.6024 52.0845 86.168 51.9296 86.7372 51.7883C87.3064 51.6466 87.8783 51.5194 88.4539 51.4055C89.029 51.292 89.6069 51.1922 90.187 51.1065C90.7672 51.0204 91.3492 50.9488 91.9325 50.8914C92.5163 50.8335 93.101 50.7903 93.6866 50.7611C94.2722 50.7315 94.8583 50.7164 95.4448 50.7155C95.993 50.7155 96.5413 50.7274 97.09 50.752C97.6874 50.7738 98.284 50.8108 98.8801 50.8623C99.4757 50.9138 100.07 50.9798 100.662 51.0605C101.255 51.1412 101.845 51.2364 102.433 51.3462C103.02 51.4561 103.606 51.5805 104.187 51.719C104.769 51.858 105.346 52.0107 105.921 52.1779C106.495 52.3452 107.065 52.5266 107.63 52.7216C108.195 52.9171 108.755 53.1263 109.31 53.3492C109.865 53.572 110.414 53.8085 110.957 54.0587C111.5 54.3085 112.037 54.5719 112.567 54.8481C113.097 55.1247 113.62 55.4141 114.137 55.7162C114.652 56.0184 115.161 56.3333 115.661 56.6605C116.161 56.9882 116.654 57.3277 117.137 57.6791C117.621 58.0309 118.095 58.3941 118.561 58.7692C119.027 59.1438 119.483 59.5302 119.93 59.9276C120.376 60.325 120.813 60.7334 121.24 61.1526C121.666 61.5714 122.082 62.0007 122.488 62.4405C122.893 62.8798 123.287 63.3292 123.67 63.7881C124.054 64.247 124.426 64.7155 124.786 65.1927C125.146 65.6698 125.494 66.1561 125.83 66.6505C126.166 67.145 126.49 67.6472 126.801 68.1576C127.113 68.6681 127.411 69.1862 127.697 69.7112C127.982 70.2362 128.255 70.7685 128.515 71.3067C128.775 71.8454 129.021 72.3904 129.254 72.941C129.486 73.492 129.705 74.0479 129.91 74.6094C130.116 75.1713 130.307 75.7373 130.484 76.3084C130.662 76.8794 130.825 77.4545 130.973 78.0333C131.122 78.6125 131.257 79.1949 131.377 79.7806C131.498 80.3662 131.603 80.9545 131.694 81.5456C131.786 82.1362 131.863 82.7291 131.925 83.3239C131.987 83.9186 132.033 84.5142 132.066 85.1112C132.099 85.7082 132.116 86.3057 132.12 86.9036C132.123 87.5015 132.111 88.099 132.085 88.6964C132.059 89.2939 132.017 89.89 131.961 90.4856C131.906 91.0808 131.835 91.6742 131.75 92.2662C131.665 92.8577 131.565 93.4474 131.451 94.0339C131.337 94.6209 131.209 95.2047 131.065 95.7853C130.923 96.3659 130.766 96.9424 130.594 97.5153C130.423 98.0881 130.237 98.6564 130.038 99.2201C129.839 99.7839 129.625 100.342 129.398 100.895C129.171 101.449 128.931 101.996 128.677 102.537C128.423 103.078 128.156 103.613 127.875 104.141C127.595 104.669 127.302 105.19 126.996 105.704C126.69 106.217 126.371 106.723 126.04 107.221C125.709 107.719 125.366 108.208 125.011 108.69C124.656 109.171 124.289 109.643 123.911 110.106C123.532 110.569 123.143 111.022 122.742 111.466C122.341 111.909 121.929 112.343 121.507 112.766C121.085 113.19 120.653 113.603 120.21 114.004C119.768 114.407 119.315 114.798 118.854 115.177C118.392 115.557 117.921 115.925 117.441 116.282C116.961 116.639 116.472 116.983 115.975 117.316C115.478 117.648 114.973 117.968 114.461 118.276C113.948 118.584 113.428 118.878 112.901 119.16C112.373 119.442 111.839 119.711 111.299 119.966C110.758 120.222 110.211 120.464 109.659 120.693C109.106 120.922 108.548 121.137 107.986 121.338C107.422 121.539 106.854 121.726 106.282 121.899C105.71 122.072 105.134 122.231 104.553 122.376C103.973 122.521 103.39 122.651 102.803 122.767C102.216 122.883 101.627 122.984 101.036 123.071C100.444 123.158 99.8508 123.23 99.2551 123.288C98.66 123.346 98.0639 123.388 97.4664 123.417C96.8694 123.445 96.2715 123.459 95.6736 123.457C95.0757 123.456 94.4782 123.44 93.8807 123.409ZM118.023 122.441C119.307 121.618 120.543 120.728 121.73 119.77C122.918 118.813 124.05 117.795 125.127 116.715C126.205 115.635 127.221 114.5 128.175 113.31C129.129 112.12 130.016 110.882 130.836 109.596L136.295 115.054L123.464 127.882L118.023 122.441ZM163.114 159.811C162.778 159.81 162.446 159.777 162.116 159.71C161.787 159.644 161.467 159.547 161.157 159.419C160.847 159.29 160.552 159.133 160.273 158.946C159.993 158.76 159.735 158.548 159.497 158.311L130.218 129.04L137.453 121.807L166.731 151.075C166.909 151.253 167.073 151.443 167.223 151.645C167.373 151.847 167.507 152.059 167.625 152.281C167.743 152.503 167.845 152.732 167.93 152.969C168.014 153.206 168.081 153.448 168.13 153.694C168.179 153.941 168.21 154.19 168.222 154.441C168.234 154.692 168.228 154.944 168.204 155.194C168.179 155.444 168.136 155.691 168.075 155.935C168.014 156.179 167.935 156.417 167.839 156.65C167.743 156.882 167.63 157.106 167.501 157.322C167.371 157.538 167.227 157.743 167.067 157.938C166.908 158.132 166.735 158.314 166.549 158.483C166.362 158.652 166.164 158.806 165.956 158.946C165.746 159.086 165.528 159.21 165.301 159.318C165.073 159.425 164.84 159.516 164.599 159.589C164.358 159.662 164.114 159.717 163.865 159.755C163.616 159.792 163.366 159.81 163.114 159.811Z" fill="#FF8144"/>
</g>
<path d="M95.4863 56.3099C94.9827 56.3099 94.4792 56.3222 93.976 56.3469C93.4734 56.3719 92.9712 56.4088 92.4699 56.458C91.9686 56.5077 91.4691 56.5692 90.9705 56.6431C90.4724 56.7169 89.9766 56.803 89.4826 56.901C88.9885 56.9995 88.4973 57.1097 88.0087 57.2323C87.5202 57.3545 87.0348 57.4889 86.5527 57.6347C86.071 57.781 85.5924 57.9392 85.1185 58.1087C84.6441 58.2782 84.1747 58.4596 83.7089 58.6524C83.2436 58.8452 82.7833 59.0489 82.3281 59.2644C81.8728 59.4795 81.423 59.706 80.9791 59.9435C80.5348 60.1809 80.0968 60.4288 79.6648 60.6877C79.2327 60.9465 78.8071 61.2159 78.3883 61.4957C77.9699 61.7755 77.5579 62.0653 77.1537 62.3652C76.749 62.6655 76.3521 62.975 75.9629 63.2944C75.5732 63.6139 75.1923 63.9429 74.819 64.2811C74.4458 64.6192 74.0812 64.9665 73.7248 65.3224C73.3689 65.6784 73.0216 66.0429 72.6835 66.4162C72.3453 66.7894 72.0163 67.1704 71.6968 67.5601C71.3773 67.9493 71.0674 68.3462 70.7676 68.7504C70.4673 69.1551 70.1774 69.5666 69.8976 69.9855C69.6178 70.4038 69.3484 70.8295 69.0896 71.261C68.8307 71.6931 68.5824 72.131 68.3449 72.5754C68.1075 73.0192 67.881 73.4691 67.6659 73.9243C67.4503 74.3796 67.2466 74.8399 67.0538 75.3052C66.8611 75.7705 66.6797 76.2399 66.5102 76.7143C66.3402 77.1883 66.1825 77.6663 66.0362 78.148C65.8899 78.6302 65.7559 79.1155 65.6333 79.6036C65.5107 80.0922 65.4005 80.5834 65.3025 81.0774C65.204 81.5715 65.1179 82.0673 65.0441 82.5654C64.9702 83.0635 64.9087 83.5635 64.859 84.0643C64.8098 84.5656 64.7729 85.0678 64.7483 85.5705C64.7232 86.0736 64.7109 86.5767 64.7109 87.0803C64.7109 87.5839 64.7232 88.0875 64.7483 88.5901C64.7729 89.0933 64.8098 89.5955 64.859 90.0963C64.9087 90.5976 64.9702 91.0971 65.0441 91.5952C65.1179 92.0933 65.204 92.5896 65.3025 93.0836C65.4005 93.5772 65.5107 94.0685 65.6333 94.557C65.7559 95.0455 65.8899 95.5309 66.0362 96.0126C66.1825 96.4943 66.3402 96.9724 66.5102 97.4468C66.6797 97.9207 66.8611 98.3906 67.0538 98.8559C67.2466 99.3212 67.4503 99.781 67.6659 100.236C67.881 100.692 68.1075 101.141 68.3449 101.586C68.5824 102.03 68.8307 102.468 69.0896 102.9C69.3484 103.332 69.6178 103.757 69.8976 104.176C70.1774 104.594 70.4673 105.006 70.7676 105.41C71.0674 105.815 71.3773 106.212 71.6968 106.601C72.0163 106.99 72.3453 107.372 72.6835 107.744C73.0216 108.118 73.3689 108.482 73.7248 108.839C74.0812 109.195 74.4458 109.542 74.819 109.88C75.1923 110.218 75.5732 110.547 75.9629 110.866C76.3521 111.186 76.749 111.496 77.1537 111.795C77.5579 112.095 77.9699 112.385 78.3883 112.665C78.8071 112.945 79.2327 113.214 79.6648 113.473C80.0968 113.732 80.5348 113.98 80.9791 114.218C81.423 114.455 81.8728 114.681 82.3281 114.897C82.7833 115.112 83.2436 115.316 83.7089 115.509C84.1747 115.701 84.6441 115.882 85.1185 116.052C85.5924 116.222 86.071 116.38 86.5527 116.526C87.0348 116.672 87.5202 116.806 88.0087 116.929C88.4973 117.051 88.9885 117.161 89.4826 117.26C89.9766 117.358 90.4724 117.444 90.9705 117.518C91.4691 117.592 91.9686 117.653 92.4699 117.703C92.9712 117.752 93.4734 117.789 93.976 117.814C94.4792 117.838 94.9827 117.851 95.4863 117.851C95.9899 117.851 96.4935 117.838 96.9966 117.814C97.4993 117.789 98.0015 117.752 98.5028 117.703C99.0041 117.653 99.5036 117.592 100.002 117.518C100.5 117.444 100.996 117.358 101.49 117.26C101.984 117.161 102.475 117.051 102.964 116.929C103.452 116.806 103.938 116.672 104.42 116.526C104.902 116.38 105.38 116.222 105.854 116.052C106.329 115.882 106.798 115.701 107.264 115.509C107.729 115.316 108.189 115.112 108.645 114.897C109.1 114.681 109.55 114.455 109.994 114.218C110.438 113.98 110.876 113.732 111.308 113.473C111.74 113.214 112.166 112.945 112.584 112.665C113.003 112.385 113.415 112.095 113.819 111.795C114.224 111.496 114.621 111.186 115.01 110.866C115.399 110.547 115.78 110.218 116.154 109.88C116.527 109.542 116.891 109.195 117.248 108.839C117.604 108.482 117.951 108.118 118.289 107.744C118.627 107.372 118.956 106.99 119.276 106.601C119.595 106.212 119.905 105.815 120.205 105.41C120.505 105.006 120.795 104.594 121.075 104.176C121.355 103.757 121.624 103.332 121.883 102.9C122.142 102.468 122.39 102.03 122.628 101.586C122.865 101.141 123.092 100.692 123.307 100.236C123.522 99.781 123.726 99.3212 123.919 98.8559C124.112 98.3906 124.293 97.9207 124.463 97.4468C124.632 96.9724 124.79 96.4943 124.936 96.0126C125.083 95.5309 125.217 95.0455 125.339 94.557C125.462 94.0685 125.572 93.5772 125.67 93.0836C125.769 92.5896 125.855 92.0933 125.929 91.5952C126.002 91.0971 126.064 90.5976 126.114 90.0963C126.163 89.5955 126.2 89.0933 126.224 88.5901C126.249 88.0875 126.262 87.5839 126.262 87.0803C126.261 86.5772 126.248 86.0741 126.223 85.5709C126.197 85.0683 126.16 84.5665 126.11 84.0657C126.06 83.5644 125.998 83.0653 125.924 82.5672C125.849 82.0696 125.763 81.5737 125.664 81.0797C125.566 80.5862 125.455 80.0954 125.332 79.6073C125.209 79.1187 125.075 78.6338 124.928 78.1521C124.782 77.6709 124.623 77.1928 124.454 76.7189C124.284 76.2454 124.102 75.7755 123.909 75.3107C123.716 74.8458 123.512 74.386 123.297 73.9307C123.081 73.4759 122.855 73.0265 122.617 72.5827C122.379 72.1388 122.131 71.7008 121.872 71.2692C121.613 70.8377 121.344 70.4125 121.064 69.9937C120.784 69.5753 120.494 69.1638 120.194 68.7595C119.894 68.3553 119.584 67.9588 119.265 67.5696C118.945 67.1804 118.616 66.7995 118.278 66.4267C117.94 66.0534 117.593 65.6888 117.237 65.3329C116.881 64.977 116.516 64.6302 116.144 64.292C115.77 63.9539 115.389 63.6253 115 63.3058C114.611 62.9864 114.214 62.6765 113.81 62.3766C113.406 62.0767 112.994 61.7869 112.576 61.5071C112.157 61.2273 111.732 60.9575 111.3 60.6986C110.868 60.4398 110.431 60.1914 109.987 59.9539C109.542 59.7165 109.093 59.49 108.638 59.2745C108.183 59.0589 107.723 58.8547 107.258 58.662C106.793 58.4692 106.323 58.2878 105.849 58.1178C105.375 57.9478 104.898 57.7897 104.416 57.6429C103.934 57.4967 103.449 57.3622 102.961 57.2392C102.473 57.1166 101.981 57.0058 101.488 56.9074C100.994 56.8085 100.498 56.7219 100 56.6476C99.5022 56.5733 99.0027 56.5114 98.5019 56.4612C98.0006 56.4116 97.4988 56.3742 96.9957 56.3487C96.493 56.3236 95.9899 56.3104 95.4863 56.3099ZM95.4863 112.256C95.0743 112.256 94.6624 112.246 94.2508 112.226C93.8393 112.206 93.4283 112.175 93.0181 112.135C92.6084 112.095 92.1992 112.044 91.7917 111.984C91.3839 111.923 90.9783 111.853 90.574 111.773C90.1698 111.692 89.7678 111.602 89.3682 111.502C88.9685 111.402 88.5716 111.292 88.1769 111.172C87.7827 111.053 87.3917 110.923 87.0034 110.785C86.6156 110.646 86.2309 110.498 85.8504 110.34C85.4699 110.182 85.093 110.015 84.7206 109.839C84.3479 109.663 83.9801 109.478 83.6169 109.283C83.2532 109.089 82.895 108.886 82.5413 108.675C82.1877 108.463 81.84 108.242 81.4973 108.013C81.1546 107.785 80.8178 107.547 80.4869 107.302C80.1556 107.056 79.8311 106.803 79.5126 106.542C79.194 106.28 78.8818 106.011 78.5765 105.735C78.2712 105.458 77.9731 105.174 77.6814 104.882C77.3902 104.591 77.1059 104.293 76.8292 103.987C76.5526 103.682 76.2837 103.37 76.0221 103.052C75.7605 102.733 75.5072 102.409 75.2615 102.077C75.0163 101.747 74.7789 101.41 74.5501 101.068C74.3214 100.725 74.1008 100.377 73.8889 100.023C73.677 99.6698 73.4742 99.3116 73.2796 98.9484C73.0854 98.5847 72.9004 98.217 72.724 97.8446C72.5477 97.4719 72.3809 97.0954 72.2232 96.7149C72.0655 96.3344 71.9174 95.9497 71.7784 95.5619C71.6398 95.1741 71.5104 94.783 71.3906 94.3884C71.2712 93.9942 71.1613 93.5972 71.0611 93.1976C70.9608 92.7979 70.8706 92.3959 70.7904 91.9922C70.7102 91.5879 70.6395 91.1819 70.5789 90.7745C70.5188 90.367 70.4682 89.9582 70.4276 89.5481C70.3875 89.1379 70.357 88.7273 70.3369 88.3158C70.3169 87.9043 70.3064 87.4923 70.3064 87.0803C70.3064 86.6683 70.3169 86.2568 70.3369 85.8453C70.357 85.4338 70.3875 85.0227 70.4276 84.613C70.4682 84.2028 70.5188 83.7941 70.5789 83.3862C70.6395 82.9788 70.7102 82.5732 70.7904 82.1689C70.8706 81.7647 70.9608 81.3627 71.0611 80.9631C71.1613 80.5634 71.2712 80.1664 71.3906 79.7722C71.5104 79.378 71.6398 78.987 71.7784 78.5987C71.9174 78.2109 72.0655 77.8267 72.2232 77.4462C72.3809 77.0652 72.5477 76.6888 72.724 76.3164C72.9004 75.9441 73.0854 75.5759 73.2796 75.2127C73.4742 74.8495 73.677 74.4908 73.8889 74.1376C74.1008 73.784 74.3214 73.4362 74.5501 73.0935C74.7789 72.7508 75.0163 72.414 75.2615 72.0832C75.5072 71.7523 75.7605 71.4274 76.0221 71.1093C76.2837 70.7907 76.5526 70.4786 76.8292 70.1732C77.1059 69.8679 77.3902 69.5698 77.6814 69.2786C77.9731 68.987 78.2712 68.703 78.5765 68.4264C78.8818 68.1498 79.194 67.8804 79.5126 67.6193C79.8311 67.3577 80.1556 67.1043 80.4869 66.8592C80.8178 66.6135 81.1546 66.3765 81.4973 66.1473C81.84 65.9185 82.1877 65.6984 82.5413 65.4865C82.895 65.2746 83.2532 65.0718 83.6169 64.8772C83.9801 64.683 84.3479 64.498 84.7206 64.3217C85.093 64.1457 85.4699 63.9785 85.8504 63.8208C86.2309 63.6631 86.6156 63.515 87.0034 63.3765C87.3917 63.2375 87.7827 63.1085 88.1769 62.9886C88.5716 62.8692 88.9685 62.7594 89.3682 62.6592C89.7678 62.5589 90.1698 62.4687 90.574 62.3885C90.9783 62.3078 91.3839 62.2376 91.7917 62.177C92.1992 62.1168 92.6084 62.0663 93.0181 62.0257C93.4283 61.9856 93.8393 61.9551 94.2508 61.935C94.6624 61.9145 95.0743 61.9045 95.4863 61.9045C95.8983 61.9045 96.3103 61.9145 96.7218 61.935C97.1333 61.9551 97.5444 61.9856 97.9546 62.0257C98.3647 62.0663 98.7735 62.1168 99.1809 62.177C99.5888 62.2376 99.9944 62.3078 100.399 62.3885C100.803 62.4687 101.205 62.5589 101.604 62.6592C102.004 62.7594 102.401 62.8692 102.796 62.9886C103.19 63.1085 103.581 63.2375 103.969 63.3765C104.357 63.515 104.741 63.6631 105.122 63.8208C105.503 63.9785 105.88 64.1457 106.252 64.3217C106.624 64.498 106.993 64.683 107.356 64.8772C107.719 65.0718 108.078 65.2746 108.431 65.4865C108.785 65.6984 109.133 65.9185 109.475 66.1473C109.818 66.3765 110.155 66.6135 110.486 66.8592C110.817 67.1043 111.142 67.3577 111.46 67.6193C111.779 67.8804 112.091 68.1498 112.396 68.4264C112.701 68.703 113 68.987 113.291 69.2786C113.582 69.5698 113.866 69.8679 114.143 70.1732C114.42 70.4786 114.689 70.7907 114.951 71.1093C115.212 71.4274 115.465 71.7523 115.711 72.0832C115.956 72.414 116.194 72.7508 116.423 73.0935C116.651 73.4362 116.872 73.784 117.084 74.1376C117.296 74.4908 117.499 74.8495 117.693 75.2127C117.887 75.5759 118.072 75.9441 118.249 76.3164C118.425 76.6888 118.592 77.0652 118.749 77.4462C118.907 77.8267 119.055 78.2109 119.194 78.5987C119.333 78.987 119.462 79.378 119.582 79.7722C119.701 80.1664 119.811 80.5634 119.912 80.9631C120.011 81.3627 120.102 81.7647 120.182 82.1689C120.263 82.5732 120.333 82.9788 120.394 83.3862C120.454 83.7941 120.504 84.2028 120.545 84.613C120.585 85.0227 120.616 85.4338 120.636 85.8453C120.656 86.2568 120.666 86.6683 120.666 87.0803C120.666 87.4923 120.655 87.9038 120.634 88.3153C120.614 88.7269 120.583 89.1375 120.542 89.5472C120.502 89.9569 120.451 90.3657 120.39 90.7731C120.329 91.1805 120.258 91.5861 120.178 91.9899C120.097 92.3941 120.006 92.7956 119.906 93.1953C119.805 93.5945 119.696 93.9914 119.576 94.3857C119.456 94.7794 119.326 95.1704 119.187 95.5582C119.048 95.9461 118.9 96.3298 118.742 96.7103C118.584 97.0909 118.417 97.4673 118.241 97.8396C118.065 98.212 117.879 98.5797 117.685 98.9425C117.49 99.3057 117.287 99.6639 117.075 100.017C116.863 100.371 116.643 100.718 116.414 101.061C116.185 101.403 115.948 101.74 115.702 102.071C115.457 102.401 115.203 102.726 114.942 103.045C114.681 103.363 114.411 103.674 114.135 103.98C113.858 104.285 113.574 104.583 113.283 104.874C112.992 105.165 112.693 105.449 112.388 105.726C112.083 106.003 111.771 106.272 111.453 106.533C111.134 106.794 110.81 107.048 110.479 107.293C110.148 107.538 109.811 107.776 109.469 108.005C109.126 108.234 108.779 108.454 108.425 108.666C108.072 108.878 107.714 109.081 107.35 109.275C106.987 109.469 106.619 109.655 106.247 109.831C105.875 110.008 105.498 110.174 105.118 110.333C104.737 110.49 104.353 110.639 103.966 110.778C103.578 110.917 103.187 111.046 102.793 111.166C102.398 111.286 102.001 111.396 101.602 111.496C101.203 111.597 100.801 111.687 100.397 111.768C99.9926 111.849 99.587 111.919 99.1796 111.98C98.7721 112.041 98.3633 112.092 97.9536 112.133C97.5435 112.173 97.1329 112.204 96.7214 112.225C96.3098 112.245 95.8983 112.256 95.4863 112.256Z" fill="#FF8144"/>
<path d="M61.9141 22.7423H112.274V28.3368H61.9141V22.7423Z" fill="#FF8144"/>
<path d="M61.9141 33.9313H129.06V39.5258H61.9141V33.9313Z" fill="#FF8144"/>
<mask id="mask1_1924_3924" style="mask-type:luminance" maskUnits="userSpaceOnUse" x="59" y="52" width="73" height="71">
<path d="M59.9844 52.0333H131.122V122.978H59.9844V52.0333Z" fill="white"/>
</mask>
<g mask="url(#mask1_1924_3924)">
<path d="M123.79 87.9681C123.801 87.6267 124.06 87.2225 124.365 87.0698L130.563 83.9658C130.868 83.8132 131.073 83.4126 131.019 83.0753L129.591 76.4896C129.499 76.1606 129.145 75.8735 128.805 75.8516L121.757 75.3959C121.416 75.3735 121.011 75.1065 120.857 74.8025L119.898 73.0397C119.726 72.7449 119.729 72.2636 119.903 71.9701L123.462 65.9686C123.636 65.6752 123.594 65.2249 123.37 64.9683L118.574 60.0779C118.321 59.8482 117.871 59.7958 117.573 59.9612L111.44 63.3646C111.141 63.5305 110.658 63.5209 110.366 63.3446L108.709 62.403C108.408 62.2431 108.151 61.8329 108.139 61.492L107.887 54.461C107.874 54.1201 107.597 53.7601 107.27 53.6617L100.628 52.0726C100.292 52.0115 99.8858 52.2074 99.724 52.5082L96.4259 58.6483C96.2641 58.949 95.9911 59.1924 95.8184 59.1888H95.6612C94.7042 59.1888 93.4445 59.284 93.4445 59.284C93.1046 59.3095 92.6666 59.1013 92.472 58.8205L88.4402 53.0155C88.2456 52.7352 87.8172 52.5807 87.4882 52.6714L81.1439 54.8119C80.8272 54.9391 80.5898 55.3219 80.6167 55.6619L81.1576 62.5621C81.184 62.9025 80.9712 63.3323 80.6846 63.5173L78.6675 64.9141C78.3936 65.1173 77.9115 65.177 77.5961 65.0467L71.0641 62.342C70.7488 62.2116 70.304 62.3123 70.0757 62.5662L66.0046 67.6143C65.805 67.8914 65.8105 68.3398 66.0169 68.6119L70.1823 74.0979C70.3887 74.37 70.4402 74.8453 70.2967 75.1552L69.1642 77.8673C69.0443 78.1867 68.6715 78.498 68.3357 78.5586L61.4054 79.8101C61.0695 79.8707 60.7514 80.1961 60.6977 80.5328C60.6977 80.5328 60.0195 84.7948 60.0195 87.3387V87.3524C60.0195 87.3674 60.2825 87.4754 60.6029 87.5925L67.0697 89.9546C67.3905 90.0717 67.6917 90.444 67.74 90.7817L68.3462 94.0871C68.4218 94.4203 68.2796 94.8824 68.0299 95.1153L62.9079 99.8858C62.6582 100.118 62.5689 100.563 62.7097 100.874L65.5033 106.29C65.6756 106.585 66.0885 106.765 66.4216 106.69L73.1678 105.174C73.5009 105.099 73.958 105.247 74.1836 105.503L76.6705 108.089C76.9175 108.325 77.0501 108.788 76.9658 109.119L75.2491 115.85C75.1643 116.181 75.3316 116.602 75.6196 116.784L80.886 119.752C81.1918 119.904 81.6375 119.83 81.8772 119.587L86.7622 114.635C87.0019 114.392 87.4676 114.266 87.7971 114.354L91.2707 115.126C91.6066 115.186 91.9698 115.5 92.0773 115.824L94.2571 122.37C94.3651 122.694 94.7324 122.967 95.0738 122.976C95.0738 122.976 95.2565 122.982 95.6607 122.982C97.7557 122.982 101.189 122.533 101.189 122.533C101.527 122.489 101.862 122.179 101.932 121.845L103.375 114.988C103.445 114.654 103.767 114.292 104.091 114.184L107.147 113.025C107.461 112.891 107.935 112.957 108.201 113.171L113.561 117.49C113.827 117.703 114.275 117.722 114.558 117.53L119.59 113.714C119.851 113.493 119.964 113.052 119.843 112.733L117.333 106.143C117.212 105.824 117.286 105.344 117.497 105.076L119.159 102.811C119.351 102.529 119.785 102.328 120.125 102.365L126.983 103.101C127.323 103.137 127.711 102.911 127.846 102.597L130.092 96.4528C130.192 96.1265 130.05 95.6936 129.775 95.4912L124.083 91.2903C123.808 91.0875 123.61 90.6441 123.643 90.3041L123.79 87.9681ZM95.5696 108.243C84.0984 108.243 74.7988 98.9438 74.7988 87.4718C74.7988 75.9997 84.098 66.7001 95.5696 66.7001C107.041 66.7001 116.34 75.9997 116.34 87.4718C116.34 98.9438 107.041 108.243 95.5696 108.243Z" fill="#FF8144"/>
</g>
</svg>
