<svg width="174" height="174" viewBox="0 0 174 174" fill="none" xmlns="http://www.w3.org/2000/svg">
<mask id="mask0_1924_3899" style="mask-type:luminance" maskUnits="userSpaceOnUse" x="0" y="2" width="174" height="170">
<path d="M0.230469 2.21448H173.766V171.777H0.230469V2.21448Z" fill="white"/>
</mask>
<g mask="url(#mask0_1924_3899)">
<path d="M102.922 84.1282C103.045 84.004 103.164 83.8758 103.278 83.7425C103.392 83.6098 103.501 83.4729 103.605 83.332C103.709 83.1911 103.807 83.0465 103.901 82.8988C103.994 82.7506 104.082 82.5993 104.164 82.4448C104.246 82.2903 104.323 82.133 104.393 81.9726C104.464 81.8127 104.528 81.65 104.587 81.4851C104.646 81.3201 104.699 81.1534 104.745 80.9848C104.792 80.8158 104.832 80.6454 104.866 80.4742C104.9 80.3024 104.928 80.1293 104.949 79.9558C104.97 79.7822 104.985 79.6078 104.993 79.4329C105.002 79.258 105.004 79.0831 105 78.9081C104.995 78.7332 104.985 78.5588 104.967 78.3843C104.95 78.2103 104.927 78.0368 104.897 77.8646C104.867 77.692 104.831 77.5207 104.788 77.3508C104.746 77.1813 104.697 77.0132 104.643 76.8469C104.588 76.6806 104.527 76.5166 104.46 76.3548C104.393 76.193 104.321 76.034 104.242 75.8776C104.164 75.7209 104.08 75.5677 103.99 75.4173C103.9 75.2668 103.805 75.12 103.705 74.9768C103.604 74.8336 103.498 74.6941 103.388 74.5586C103.277 74.4231 103.161 74.2917 103.041 74.1648C102.921 74.0375 102.796 73.9152 102.666 73.7974C102.537 73.6795 102.403 73.5663 102.266 73.4584C102.128 73.3501 101.987 73.2473 101.841 73.1494C101.696 73.052 101.547 72.9595 101.395 72.873C101.244 72.786 101.089 72.7049 100.931 72.6296C100.772 72.554 100.612 72.4846 100.449 72.4208C100.286 72.3573 100.121 72.2998 99.9536 72.2481C99.7864 72.1965 99.6174 72.1511 99.4465 72.1122C99.2762 72.0728 99.104 72.0401 98.9314 72.0134C98.7583 71.9871 98.5842 71.9667 98.4098 71.9531C98.2353 71.9395 98.0604 71.9323 97.8855 71.9309H92.11C91.8998 71.9309 91.6895 71.9259 91.4797 71.9155C91.2694 71.9056 91.0601 71.8897 90.8508 71.8693C90.6414 71.8485 90.4325 71.8231 90.2245 71.7923C90.0166 71.761 89.8095 71.7252 89.6033 71.6844C89.3971 71.6432 89.1919 71.597 88.988 71.5462C88.7841 71.495 88.5815 71.4388 88.3803 71.3781C88.1791 71.3169 87.9793 71.2508 87.7813 71.1801C87.5833 71.1094 87.3875 71.0337 87.1931 70.9531C86.9987 70.8729 86.8066 70.7877 86.6168 70.6975C86.4265 70.6078 86.2389 70.5131 86.0531 70.4139C85.8677 70.3151 85.6847 70.2113 85.5043 70.103C85.324 69.9952 85.1464 69.8828 84.9719 69.7659C84.797 69.649 84.6248 69.528 84.4563 69.4029C84.2873 69.2774 84.1214 69.1483 83.9592 69.0146C83.7965 68.8814 83.6375 68.7441 83.4816 68.6027C83.3257 68.4618 83.1735 68.3168 83.0248 68.1682C82.8762 68.0196 82.7312 67.8673 82.5898 67.7114C82.4485 67.5556 82.3112 67.3965 82.178 67.2338C82.0447 67.0712 81.9151 66.9053 81.7901 66.7368C81.6646 66.5677 81.5436 66.396 81.4267 66.2211C81.3098 66.0462 81.1974 65.8686 81.0895 65.6882C80.9812 65.5079 80.8775 65.3253 80.7787 65.1395C80.6795 64.9542 80.5848 64.7666 80.495 64.5763C80.4053 64.3864 80.3201 64.1943 80.2395 63.9999C80.1588 63.8055 80.0832 63.6093 80.0125 63.4113C79.9418 63.2133 79.8756 63.0139 79.8149 62.8127C79.7537 62.6115 79.6975 62.409 79.6463 62.2051C79.5956 62.0007 79.5494 61.7959 79.5081 61.5897C79.4674 61.3835 79.4316 61.1765 79.4003 60.9685C79.3695 60.7605 79.3441 60.5516 79.3233 60.3423C79.3029 60.1329 79.287 59.9236 79.277 59.7133C79.2666 59.5035 79.2616 59.2933 79.2616 59.083C79.2616 58.8728 79.2666 58.6625 79.277 58.4527C79.287 58.2425 79.3029 58.0331 79.3233 57.8238C79.3441 57.6144 79.3695 57.406 79.4003 57.198C79.4316 56.99 79.4674 56.783 79.5081 56.5763C79.5494 56.3702 79.5956 56.1654 79.6463 55.9614C79.6975 55.7571 79.7537 55.5545 79.8149 55.3534C79.8756 55.1522 79.9418 54.9528 80.0125 54.7548C80.0832 54.5568 80.1588 54.3606 80.2395 54.1662C80.3201 53.9722 80.4053 53.7801 80.495 53.5898C80.5848 53.3999 80.6795 53.2119 80.7787 53.0266C80.8775 52.8412 80.9812 52.6582 81.0895 52.4778C81.1974 52.2975 81.3098 52.1199 81.4267 51.945C81.5436 51.77 81.6646 51.5983 81.7901 51.4293C81.9151 51.2607 82.0447 51.0949 82.178 50.9322C82.3112 50.77 82.4485 50.6105 82.5898 50.4546C82.7312 50.2992 82.8762 50.1469 83.0248 49.9983C83.1735 49.8492 83.3257 49.7047 83.4816 49.5633C83.637 49.4219 83.7965 49.2847 83.9592 49.1514C84.1214 49.0178 84.2873 48.8886 84.4563 48.7636C84.6248 48.638 84.797 48.5171 84.9719 48.4002C85.1464 48.2832 85.324 48.1709 85.5043 48.063C85.6847 47.9547 85.8677 47.851 86.0531 47.7522C86.2389 47.6529 86.4265 47.5582 86.6168 47.4685C86.8066 47.3788 86.9987 47.2936 87.1931 47.213C87.3875 47.1323 87.5833 47.0571 87.7813 46.9859C87.9793 46.9153 88.1791 46.8491 88.3803 46.7884C88.5815 46.7272 88.7841 46.671 88.988 46.6198C89.1919 46.5691 89.3971 46.5229 89.6033 46.4821C89.8095 46.4408 90.0166 46.405 90.2245 46.3742C90.4325 46.3434 90.6414 46.3176 90.8508 46.2967C91.0601 46.2764 91.2694 46.2609 91.4797 46.2505C91.6895 46.2401 91.8998 46.2351 92.11 46.2351H92.1671V40.7016C92.1671 40.6087 92.1716 40.5162 92.1807 40.4238C92.1902 40.3314 92.2038 40.2398 92.2215 40.1487C92.2396 40.0577 92.2623 39.9675 92.2894 39.8787C92.3162 39.7899 92.3474 39.7024 92.3832 39.6168C92.4186 39.5311 92.458 39.4473 92.502 39.3653C92.5459 39.2833 92.5935 39.204 92.6451 39.1265C92.6968 39.0495 92.7516 38.9752 92.8105 38.9031C92.8694 38.8315 92.932 38.7626 92.9977 38.6969C93.0634 38.6312 93.1318 38.5691 93.2038 38.5102C93.2754 38.4513 93.3498 38.3961 93.4272 38.3444C93.5043 38.2927 93.584 38.2452 93.6656 38.2017C93.7476 38.1577 93.8314 38.1183 93.9171 38.0825C94.0032 38.0471 94.0906 38.0159 94.1794 37.9887C94.2682 37.962 94.358 37.9393 94.449 37.9212C94.5401 37.9031 94.6321 37.8895 94.7245 37.8804C94.8165 37.8713 94.9094 37.8668 95.0023 37.8668C95.0952 37.8668 95.1876 37.8713 95.2801 37.8804C95.3725 37.8895 95.464 37.9031 95.5551 37.9212C95.6462 37.9393 95.7364 37.962 95.8252 37.9887C95.914 38.0159 96.0014 38.0471 96.0871 38.0825C96.1727 38.1183 96.2565 38.1577 96.3386 38.2017C96.4206 38.2452 96.4999 38.2927 96.5774 38.3444C96.6544 38.3961 96.7287 38.4513 96.8008 38.5102C96.8723 38.5691 96.9412 38.6312 97.0069 38.6969C97.0726 38.7626 97.1347 38.8315 97.1936 38.9031C97.2525 38.9752 97.3078 39.0495 97.3595 39.1265C97.4111 39.204 97.4587 39.2833 97.5022 39.3653C97.5461 39.4473 97.586 39.5311 97.6214 39.6168C97.6567 39.7024 97.688 39.7899 97.7152 39.8787C97.7419 39.9675 97.7645 40.0577 97.7827 40.1487C97.8008 40.2398 97.8144 40.3314 97.8235 40.4238C97.8325 40.5162 97.8371 40.6087 97.8371 40.7016V46.2329H97.8855C98.0958 46.2333 98.3056 46.2392 98.5154 46.2501C98.7252 46.2609 98.9345 46.2773 99.1439 46.2981C99.3527 46.3194 99.5612 46.3457 99.7687 46.3769C99.9767 46.4082 100.184 46.4449 100.39 46.4861C100.596 46.5278 100.8 46.5741 101.004 46.6257C101.208 46.6774 101.41 46.7336 101.611 46.7952C101.812 46.8563 102.011 46.9225 102.209 46.9936C102.407 47.0648 102.603 47.1409 102.796 47.2216C102.99 47.3022 103.183 47.3879 103.372 47.4776C103.562 47.5678 103.749 47.6625 103.935 47.7617C104.12 47.8609 104.303 47.9647 104.483 48.073C104.663 48.1813 104.84 48.2937 105.015 48.4106C105.189 48.5275 105.361 48.6485 105.53 48.774C105.698 48.899 105.864 49.0286 106.026 49.1618C106.189 49.2955 106.348 49.4324 106.503 49.5737C106.658 49.7147 106.811 49.8597 106.959 50.0083C107.108 50.1569 107.253 50.3092 107.394 50.4646C107.535 50.6205 107.672 50.7795 107.805 50.9417C107.939 51.1044 108.068 51.2698 108.193 51.4384C108.318 51.6074 108.44 51.7786 108.556 51.9536C108.673 52.128 108.785 52.3056 108.894 52.4855C109.002 52.6659 109.106 52.8485 109.205 53.0338C109.304 53.2187 109.399 53.4063 109.489 53.5961C109.579 53.786 109.664 53.9781 109.745 54.1721C109.825 54.366 109.902 54.5617 109.972 54.7593C110.043 54.9573 110.109 55.1567 110.171 55.3574C110.232 55.5586 110.288 55.7607 110.34 55.9646C110.391 56.1681 110.438 56.3729 110.479 56.5791C110.521 56.7852 110.557 56.9919 110.588 57.1998C110.62 57.4074 110.646 57.6158 110.667 57.8247C110.688 58.034 110.704 58.2434 110.715 58.4532C110.726 58.663 110.731 58.8728 110.732 59.083C110.741 59.1814 110.744 59.2801 110.743 59.3789C110.741 59.4781 110.734 59.5765 110.723 59.6748C110.711 59.7727 110.694 59.8701 110.672 59.9666C110.65 60.0631 110.623 60.1578 110.592 60.2516C110.56 60.3454 110.523 60.437 110.482 60.5267C110.441 60.6169 110.395 60.7043 110.345 60.7895C110.294 60.8742 110.24 60.9567 110.181 61.036C110.122 61.1157 110.059 61.1919 109.992 61.2648C109.926 61.3378 109.855 61.4066 109.781 61.4724C109.707 61.5381 109.63 61.5997 109.549 61.6572C109.469 61.7148 109.386 61.7682 109.3 61.8172C109.214 61.8661 109.126 61.9105 109.036 61.9504C108.945 61.9903 108.853 62.0252 108.759 62.0555C108.664 62.0859 108.569 62.1113 108.472 62.1316C108.375 62.1516 108.278 62.167 108.18 62.1774C108.081 62.1874 107.983 62.1928 107.884 62.1928C107.785 62.1928 107.686 62.1874 107.588 62.1774C107.49 62.167 107.392 62.1516 107.295 62.1316C107.199 62.1113 107.103 62.0859 107.009 62.0555C106.915 62.0252 106.823 61.9903 106.732 61.9504C106.641 61.9105 106.553 61.8661 106.467 61.8172C106.382 61.7682 106.298 61.7148 106.218 61.6572C106.137 61.5997 106.06 61.5381 105.987 61.4724C105.913 61.4066 105.842 61.3378 105.775 61.2648C105.709 61.1919 105.646 61.1157 105.587 61.036C105.528 60.9567 105.473 60.8742 105.423 60.7895C105.373 60.7043 105.327 60.6169 105.286 60.5267C105.244 60.437 105.208 60.3454 105.176 60.2516C105.144 60.1578 105.117 60.0631 105.096 59.9666C105.073 59.8701 105.057 59.7727 105.045 59.6748C105.033 59.5765 105.027 59.4781 105.025 59.3789C105.024 59.2801 105.027 59.1814 105.035 59.083C105.035 58.8488 105.023 58.6154 105 58.382C104.976 58.1491 104.942 57.918 104.895 57.6883C104.849 57.4586 104.792 57.232 104.724 57.0077C104.656 56.7839 104.577 56.5636 104.487 56.3475C104.397 56.1309 104.297 55.9198 104.187 55.7131C104.076 55.5065 103.956 55.3058 103.826 55.1114C103.696 54.9165 103.556 54.7285 103.408 54.5472C103.26 54.3664 103.103 54.1929 102.937 54.0271C102.772 53.8612 102.598 53.704 102.418 53.5549C102.237 53.4063 102.049 53.2667 101.855 53.1362C101.661 53.0057 101.46 52.8847 101.254 52.7742C101.047 52.6632 100.836 52.5626 100.62 52.4724C100.404 52.3822 100.184 52.3025 99.9599 52.234C99.7361 52.1652 99.5095 52.1076 99.2803 52.0609C99.0505 52.0147 98.8194 51.9794 98.5861 51.9554C98.3532 51.9314 98.1198 51.9191 97.8855 51.9178H92.1168C91.888 51.9259 91.6596 51.945 91.4326 51.9749C91.2056 52.0048 90.9808 52.0455 90.7574 52.0972C90.5345 52.1484 90.3143 52.2105 90.0972 52.2834C89.8797 52.3559 89.6667 52.4389 89.4574 52.5322C89.2485 52.6255 89.0442 52.7284 88.8448 52.8412C88.6454 52.9541 88.4519 53.0759 88.2643 53.2074C88.0767 53.3388 87.8959 53.4788 87.7219 53.6274C87.5479 53.776 87.3812 53.9328 87.2221 54.0977C87.0631 54.2627 86.9122 54.4344 86.7699 54.6139C86.6272 54.7928 86.4935 54.9786 86.3689 55.1707C86.2443 55.3629 86.1287 55.5604 86.0232 55.7634C85.9176 55.9664 85.8215 56.1744 85.7359 56.3865C85.6502 56.599 85.5746 56.8147 85.5098 57.0344C85.4445 57.2538 85.3902 57.4762 85.3467 57.701C85.3027 57.9257 85.2701 58.1523 85.2479 58.3802C85.2261 58.6082 85.2152 58.8365 85.2152 59.0654C85.2152 59.2946 85.2261 59.523 85.2479 59.7509C85.2701 59.9789 85.3027 60.2054 85.3467 60.4302C85.3902 60.6549 85.4445 60.8769 85.5098 61.0967C85.5746 61.316 85.6502 61.5322 85.7359 61.7442C85.8215 61.9567 85.9176 62.1643 86.0232 62.3677C86.1287 62.5707 86.2443 62.7683 86.3689 62.9604C86.4935 63.1525 86.6272 63.3379 86.7699 63.5173C86.9122 63.6963 87.0631 63.8685 87.2221 64.0334C87.3812 64.1979 87.5479 64.3547 87.7219 64.5033C87.8959 64.6524 88.0767 64.7924 88.2643 64.9238C88.4519 65.0548 88.6454 65.1771 88.8448 65.2899C89.0442 65.4028 89.2485 65.5056 89.4574 65.599C89.6667 65.6919 89.8797 65.7748 90.0972 65.8477C90.3143 65.9202 90.5345 65.9823 90.7574 66.034C90.9808 66.0856 91.2056 66.1264 91.4326 66.1563C91.6596 66.1862 91.888 66.2052 92.1168 66.2129H97.8855C98.0958 66.2129 98.306 66.2184 98.5158 66.2284C98.7261 66.2388 98.9354 66.2542 99.1448 66.275C99.3541 66.2954 99.563 66.3212 99.771 66.3521C99.979 66.3829 100.186 66.4191 100.392 66.4599C100.598 66.5011 100.804 66.5469 101.008 66.5981C101.211 66.6493 101.414 66.7055 101.615 66.7662C101.816 66.8274 102.016 66.8931 102.214 66.9642C102.412 67.0349 102.608 67.1106 102.802 67.1912C102.997 67.2714 103.189 67.3566 103.379 67.4468C103.569 67.5365 103.757 67.6312 103.942 67.73C104.128 67.8292 104.311 67.933 104.491 68.0408C104.672 68.1491 104.849 68.2615 105.024 68.3784C105.199 68.4953 105.371 68.6163 105.539 68.7414C105.708 68.8669 105.874 68.996 106.037 69.1293C106.199 69.2629 106.359 69.4002 106.514 69.5412C106.67 69.6825 106.822 69.8275 106.971 69.9762C107.12 70.1248 107.264 70.277 107.406 70.4329C107.547 70.5888 107.684 70.7478 107.818 70.9105C107.951 71.0732 108.08 71.2386 108.205 71.4076C108.331 71.5766 108.452 71.7483 108.569 71.9232C108.686 72.0981 108.798 72.2758 108.906 72.4561C109.014 72.6364 109.118 72.8191 109.217 73.0044C109.316 73.1902 109.411 73.3778 109.5 73.5681C109.59 73.7579 109.675 73.9501 109.756 74.1444C109.837 74.3388 109.912 74.5346 109.983 74.7326C110.054 74.9306 110.12 75.1304 110.181 75.3316C110.242 75.5328 110.298 75.7354 110.349 75.9393C110.4 76.1432 110.446 76.3484 110.487 76.5546C110.528 76.7608 110.564 76.9679 110.595 77.1758C110.626 77.3838 110.651 77.5927 110.672 77.8016C110.693 78.011 110.709 78.2208 110.718 78.4306C110.729 78.6408 110.734 78.8511 110.734 79.0613C110.734 79.2716 110.729 79.4814 110.718 79.6916C110.709 79.9014 110.693 80.1112 110.672 80.3205C110.651 80.5299 110.626 80.7383 110.595 80.9463C110.564 81.1543 110.528 81.3614 110.487 81.5675C110.446 81.7737 110.4 81.979 110.349 82.1829C110.298 82.3868 110.242 82.5893 110.181 82.7905C110.12 82.9922 110.054 83.1915 109.983 83.3896C109.912 83.5876 109.837 83.7838 109.756 83.9777C109.675 84.1721 109.59 84.3642 109.5 84.5545C109.411 84.7444 109.316 84.9324 109.217 85.1178C109.118 85.3031 109.014 85.4862 108.906 85.6665C108.798 85.8468 108.686 86.0245 108.569 86.1994C108.452 86.3738 108.331 86.546 108.205 86.7146C108.08 86.8836 107.951 87.0494 107.818 87.2121C107.684 87.3743 107.547 87.5334 107.406 87.6893C107.264 87.8451 107.12 87.9974 106.971 88.146C106.822 88.2946 106.67 88.4396 106.514 88.581C106.359 88.7219 106.199 88.8597 106.037 88.9929C105.874 89.1261 105.708 89.2557 105.539 89.3808C105.371 89.5063 105.199 89.6273 105.024 89.7437C104.849 89.8606 104.672 89.973 104.491 90.0813C104.311 90.1896 104.128 90.2929 103.942 90.3922C103.757 90.4914 103.569 90.5856 103.379 90.6758C103.189 90.7655 102.997 90.8507 102.802 90.9314C102.608 91.0116 102.412 91.0872 102.214 91.1584C102.016 91.2291 101.816 91.2948 101.615 91.3559C101.414 91.4171 101.211 91.4733 101.008 91.5241C100.804 91.5753 100.598 91.6215 100.392 91.6623C100.186 91.7035 99.979 91.7393 99.771 91.7701C99.563 91.8009 99.3541 91.8267 99.1448 91.8476C98.9359 91.868 98.7261 91.8834 98.5158 91.8938C98.306 91.9042 98.0958 91.9092 97.8855 91.9092H97.8371V97.4405C97.8375 97.5334 97.833 97.6263 97.8239 97.7187C97.8148 97.8112 97.8017 97.9032 97.7836 97.9942C97.7655 98.0853 97.7432 98.1755 97.7165 98.2643C97.6893 98.3536 97.6585 98.441 97.6227 98.5271C97.5874 98.6127 97.548 98.697 97.504 98.779C97.4605 98.8611 97.4129 98.9408 97.3613 99.0178C97.3096 99.0953 97.2543 99.1701 97.1954 99.2417C97.1365 99.3137 97.0744 99.3826 97.0087 99.4483C96.943 99.5145 96.8742 99.5765 96.8026 99.6359C96.7305 99.6948 96.6562 99.7501 96.5787 99.8017C96.5017 99.8534 96.4219 99.9014 96.3399 99.9454C96.2584 99.9889 96.1741 100.029 96.0884 100.065C96.0023 100.1 95.9149 100.131 95.8261 100.158C95.7373 100.186 95.6471 100.208 95.556 100.226C95.4649 100.244 95.3729 100.258 95.2805 100.267C95.1881 100.276 95.0952 100.281 95.0023 100.281C94.9094 100.281 94.8165 100.276 94.7241 100.267C94.6316 100.258 94.5396 100.244 94.4486 100.226C94.357 100.208 94.2673 100.186 94.1781 100.158C94.0892 100.131 94.0018 100.1 93.9162 100.065C93.8301 100.029 93.7462 99.9889 93.6642 99.9454C93.5822 99.9014 93.5029 99.8534 93.4254 99.8017C93.3484 99.7501 93.2736 99.6948 93.202 99.6359C93.13 99.5765 93.0611 99.5145 92.9954 99.4483C92.9297 99.3826 92.8676 99.3137 92.8087 99.2417C92.7498 99.1701 92.6945 99.0953 92.6429 99.0178C92.5917 98.9408 92.5441 98.8611 92.5001 98.779C92.4566 98.697 92.4168 98.6127 92.3814 98.5271C92.3461 98.441 92.3148 98.3536 92.2881 98.2643C92.2613 98.1755 92.2387 98.0853 92.2206 97.9942C92.2029 97.9032 92.1893 97.8112 92.1802 97.7187C92.1716 97.6263 92.1671 97.5334 92.1671 97.4405V91.9246H92.1191C91.9088 91.9242 91.6986 91.9183 91.4888 91.9074C91.279 91.8965 91.0696 91.8802 90.8603 91.8594C90.6514 91.8381 90.443 91.8118 90.2354 91.7805C90.0274 91.7488 89.8204 91.7126 89.6146 91.6713C89.4085 91.6296 89.2037 91.583 89.0002 91.5318C88.7963 91.4801 88.5938 91.4239 88.393 91.3623C88.1918 91.3007 87.9925 91.2345 87.7949 91.1634C87.5973 91.0922 87.4011 91.0166 87.2072 90.9354C87.0132 90.8548 86.8216 90.7696 86.6317 90.6794C86.4419 90.5893 86.2543 90.4946 86.0689 90.3953C85.8841 90.2961 85.7015 90.1923 85.5211 90.084C85.3412 89.9757 85.1636 89.8633 84.9891 89.7464C84.8142 89.6291 84.643 89.5081 84.4739 89.383C84.3054 89.2575 84.14 89.1284 83.9778 88.9947C83.8151 88.8615 83.6561 88.7242 83.5006 88.5828C83.3447 88.4419 83.193 88.2969 83.0443 88.1483C82.8957 87.9996 82.7507 87.8474 82.6098 87.692C82.4689 87.5361 82.3316 87.3771 82.1983 87.2148C82.0647 87.0522 81.9355 86.8868 81.8105 86.7178C81.685 86.5492 81.564 86.3775 81.4471 86.203C81.3306 86.0281 81.2178 85.8509 81.1099 85.6706C81.0016 85.4902 80.8979 85.3076 80.7986 85.1223C80.6994 84.9374 80.6052 84.7498 80.515 84.56C80.4248 84.3701 80.3396 84.178 80.259 83.9841C80.1783 83.7901 80.1026 83.5939 80.0315 83.3963C79.9604 83.1983 79.8942 82.999 79.833 82.7982C79.7714 82.597 79.7152 82.395 79.664 82.191C79.6124 81.9871 79.5661 81.7823 79.5245 81.5766C79.4832 81.3704 79.447 81.1634 79.4157 80.9558C79.3844 80.7478 79.3582 80.5394 79.3373 80.3305C79.316 80.1216 79.3002 79.9118 79.2893 79.702C79.2789 79.4922 79.273 79.2824 79.2725 79.0722C79.2639 78.9739 79.2603 78.8751 79.2616 78.7763C79.2635 78.6771 79.2702 78.5787 79.282 78.4804C79.2938 78.3825 79.3106 78.2851 79.3323 78.1886C79.3541 78.0921 79.3813 77.9974 79.413 77.9036C79.4447 77.8098 79.4809 77.7182 79.5222 77.6285C79.5639 77.5384 79.6096 77.4509 79.6599 77.3657C79.7102 77.281 79.7646 77.1985 79.8235 77.1192C79.8824 77.0395 79.9454 76.9633 80.012 76.8904C80.0791 76.8179 80.1493 76.7486 80.2232 76.6829C80.2975 76.6171 80.3745 76.5555 80.4547 76.498C80.5354 76.4404 80.6183 76.387 80.7044 76.338C80.79 76.2891 80.8784 76.2447 80.9686 76.2048C81.0592 76.1649 81.1516 76.13 81.2459 76.0997C81.3397 76.0693 81.4353 76.0439 81.5322 76.024C81.6288 76.0036 81.7262 75.9882 81.825 75.9778C81.9233 75.9678 82.0216 75.9624 82.1204 75.9624C82.2196 75.9624 82.318 75.9678 82.4163 75.9778C82.5146 75.9882 82.6125 76.0036 82.709 76.024C82.806 76.0439 82.9011 76.0693 82.9954 76.0997C83.0896 76.13 83.1821 76.1649 83.2723 76.2048C83.3629 76.2447 83.4512 76.2891 83.5369 76.338C83.623 76.387 83.7059 76.4404 83.7865 76.498C83.8668 76.5555 83.9438 76.6171 84.0181 76.6829C84.0919 76.7486 84.1622 76.8179 84.2292 76.8904C84.2959 76.9633 84.3588 77.0395 84.4177 77.1192C84.4767 77.1985 84.531 77.281 84.5813 77.3657C84.6316 77.4509 84.6774 77.5384 84.7186 77.6285C84.7599 77.7182 84.7966 77.8098 84.8283 77.9036C84.86 77.9974 84.8867 78.0921 84.9089 78.1886C84.9307 78.2851 84.9475 78.3825 84.9592 78.4804C84.971 78.5787 84.9778 78.6771 84.9792 78.7763C84.981 78.8751 84.9774 78.9739 84.9688 79.0722C84.9697 79.306 84.9819 79.5389 85.0055 79.7714C85.0295 80.0038 85.0644 80.2344 85.1106 80.4637C85.1568 80.693 85.2139 80.9191 85.2823 81.1425C85.3503 81.3659 85.4296 81.5857 85.5193 81.8014C85.609 82.017 85.7092 82.2282 85.8193 82.4344C85.9294 82.6401 86.0495 82.8404 86.1795 83.0348C86.3095 83.2291 86.4482 83.4163 86.5964 83.5971C86.7445 83.7779 86.9013 83.951 87.0663 84.1164C87.2312 84.2818 87.4043 84.439 87.5846 84.5876C87.765 84.7362 87.9521 84.8754 88.1461 85.0059C88.34 85.1364 88.5398 85.2569 88.7455 85.3674C88.9513 85.4785 89.162 85.5791 89.3777 85.6692C89.5929 85.7594 89.8127 85.8391 90.036 85.908C90.2594 85.9764 90.4855 86.0344 90.7144 86.0811C90.9432 86.1278 91.1738 86.1636 91.4063 86.1876C91.6387 86.2121 91.8721 86.2248 92.1055 86.2261H97.8724C98.3414 86.2261 98.8063 86.1799 99.2662 86.0884C99.7261 85.9964 100.173 85.8605 100.606 85.6806C101.039 85.5002 101.451 85.28 101.841 85.0185C102.231 84.7575 102.591 84.4607 102.922 84.1282ZM173.675 163.112C173.675 163.253 173.672 163.394 173.665 163.535C173.658 163.675 173.648 163.815 173.634 163.956C173.62 164.096 173.603 164.235 173.582 164.374C173.561 164.513 173.537 164.652 173.51 164.79C173.483 164.928 173.452 165.066 173.418 165.202C173.384 165.339 173.346 165.474 173.305 165.609C173.265 165.744 173.22 165.877 173.173 166.01C173.126 166.142 173.075 166.274 173.021 166.403C172.967 166.533 172.91 166.662 172.85 166.789C172.79 166.917 172.727 167.042 172.66 167.166C172.594 167.291 172.525 167.413 172.452 167.534C172.38 167.654 172.305 167.774 172.227 167.891C172.148 168.007 172.068 168.123 171.984 168.235C171.9 168.349 171.813 168.46 171.724 168.568C171.634 168.677 171.543 168.784 171.448 168.888C171.353 168.992 171.256 169.094 171.157 169.194C171.058 169.293 170.956 169.39 170.851 169.485C170.747 169.579 170.641 169.671 170.532 169.761C170.423 169.85 170.312 169.936 170.199 170.02C170.086 170.104 169.971 170.185 169.854 170.263C169.737 170.342 169.618 170.417 169.497 170.489C169.376 170.561 169.254 170.631 169.13 170.697C169.006 170.763 168.88 170.826 168.753 170.887C168.626 170.947 168.497 171.004 168.367 171.057C168.237 171.111 168.105 171.162 167.973 171.21C167.84 171.257 167.707 171.301 167.572 171.342C167.438 171.383 167.302 171.42 167.165 171.454C167.029 171.488 166.891 171.519 166.753 171.547C166.616 171.574 166.477 171.598 166.337 171.619C166.198 171.639 166.059 171.656 165.919 171.671C165.779 171.684 165.638 171.695 165.498 171.701C165.357 171.708 165.216 171.712 165.076 171.712H9.93352C9.75 171.715 9.56648 171.708 9.38387 171.69C9.20081 171.708 9.01775 171.715 8.83378 171.712C8.69331 171.712 8.55239 171.708 8.41192 171.701C8.27145 171.695 8.13098 171.684 7.99097 171.671C7.85095 171.656 7.71139 171.639 7.57183 171.619C7.43272 171.598 7.29406 171.574 7.15586 171.547C7.01811 171.519 6.88081 171.488 6.74397 171.454C6.60758 171.42 6.47209 171.383 6.33752 171.342C6.20248 171.301 6.06927 171.257 5.9365 171.21C5.80419 171.162 5.67278 171.111 5.54273 171.057C5.41269 171.004 5.284 170.947 5.15667 170.887C5.02934 170.826 4.90383 170.763 4.77967 170.697C4.65552 170.631 4.53317 170.561 4.41219 170.489C4.29166 170.417 4.17294 170.341 4.05558 170.263C3.93867 170.185 3.82358 170.104 3.71075 170.02C3.59747 169.936 3.48645 169.85 3.3777 169.76C3.26895 169.671 3.16247 169.579 3.05825 169.485C2.95403 169.39 2.85208 169.293 2.75239 169.194C2.65316 169.094 2.55619 168.992 2.46148 168.888C2.36678 168.784 2.27525 168.677 2.18553 168.568C2.09627 168.46 2.00972 168.349 1.92589 168.235C1.84206 168.123 1.76141 168.007 1.68302 167.891C1.60463 167.773 1.52941 167.654 1.45736 167.534C1.38486 167.413 1.31553 167.291 1.24937 167.166C1.18277 167.042 1.11978 166.917 1.05952 166.789C0.99925 166.662 0.942156 166.533 0.888234 166.403C0.834766 166.273 0.784016 166.142 0.736437 166.01C0.689312 165.877 0.644906 165.744 0.604125 165.609C0.563344 165.474 0.525734 165.339 0.49175 165.202C0.457766 165.066 0.426953 164.928 0.399312 164.79C0.371672 164.652 0.347656 164.513 0.327266 164.374C0.306422 164.235 0.289203 164.096 0.275609 163.956C0.262016 163.815 0.251594 163.675 0.244797 163.535C0.238 163.394 0.234375 163.253 0.234375 163.112V10.8139C0.234375 10.673 0.238 10.5325 0.244797 10.3916C0.251594 10.2511 0.262016 10.1111 0.276062 9.97062C0.289656 9.8306 0.306875 9.69104 0.327719 9.55193C0.348109 9.41282 0.372125 9.27417 0.399766 9.13596C0.426953 8.99821 0.457766 8.86092 0.492203 8.72407C0.526187 8.58768 0.563797 8.4522 0.604578 8.31762C0.645359 8.18304 0.689766 8.04937 0.737344 7.9166C0.784469 7.78429 0.835219 7.65288 0.889141 7.52284C0.943062 7.39279 0.999703 7.2641 1.05997 7.13723C1.12023 7.0099 1.18367 6.88438 1.24983 6.76023C1.31598 6.63607 1.38577 6.51373 1.45781 6.39274C1.53031 6.27221 1.60553 6.15349 1.68392 6.03613C1.76186 5.91923 1.84297 5.80413 1.9268 5.69131C2.01062 5.57802 2.09717 5.46746 2.18644 5.35826C2.2757 5.24951 2.36769 5.14302 2.46194 5.03881C2.55664 4.93459 2.65361 4.83263 2.7533 4.7334C2.85253 4.63371 2.95448 4.53674 3.0587 4.44204C3.16292 4.34779 3.26986 4.25581 3.37861 4.16654C3.48736 4.07727 3.59838 3.99073 3.7112 3.9069C3.82403 3.82307 3.93913 3.74196 4.05648 3.66357C4.17339 3.58563 4.29211 3.51041 4.41309 3.43791C4.53362 3.36541 4.65597 3.29609 4.78012 3.22993C4.90428 3.16377 5.0298 3.10034 5.15712 3.04007C5.28445 2.97981 5.41314 2.92317 5.54319 2.86924C5.67323 2.81532 5.80419 2.76457 5.93695 2.71745C6.06927 2.66987 6.20294 2.62592 6.33752 2.58468C6.47209 2.5439 6.60803 2.50629 6.74442 2.47231C6.88081 2.43787 7.01811 2.40706 7.15631 2.37987C7.29406 2.35223 7.43272 2.32821 7.57228 2.30782C7.71139 2.28698 7.85095 2.26976 7.99097 2.25617C8.13098 2.24212 8.27145 2.2317 8.41192 2.2249C8.55239 2.2181 8.69331 2.21448 8.83378 2.21448C8.9747 2.21448 9.11517 2.2181 9.25564 2.2249C9.39656 2.2317 9.53658 2.24212 9.67659 2.25617C9.81706 2.26976 9.95662 2.28698 10.0957 2.30782C10.2348 2.32821 10.3735 2.35223 10.5117 2.37987C10.6495 2.40706 10.7867 2.43787 10.9236 2.47231C11.06 2.50629 11.1955 2.5439 11.33 2.58468C11.4651 2.62592 11.5983 2.66987 11.7311 2.71745C11.8634 2.76457 11.9948 2.81532 12.1248 2.86924C12.2549 2.92317 12.3836 2.97981 12.5104 3.04007C12.6378 3.10034 12.7637 3.16377 12.8874 3.22993C13.0116 3.29609 13.1344 3.36541 13.2549 3.43791C13.3755 3.51041 13.4946 3.58563 13.6115 3.66357C13.7284 3.74196 13.8435 3.82307 13.9564 3.9069C14.0696 3.99073 14.1807 4.07727 14.2894 4.16654C14.3982 4.25581 14.5046 4.34779 14.6089 4.44204C14.7131 4.53674 14.815 4.63371 14.9147 4.7334C15.014 4.83263 15.1114 4.93459 15.2056 5.03881C15.3003 5.14302 15.3919 5.24951 15.4816 5.35826C15.5708 5.46746 15.6574 5.57802 15.7412 5.69131C15.825 5.80413 15.9057 5.91923 15.9841 6.03613C16.0625 6.15349 16.1377 6.27221 16.2097 6.39274C16.2822 6.51373 16.3516 6.63607 16.4177 6.76023C16.4843 6.88438 16.5473 7.0099 16.6076 7.13723C16.6679 7.2641 16.725 7.39279 16.7789 7.52284C16.8328 7.65288 16.8831 7.78429 16.9307 7.9166C16.9783 8.04937 17.0222 8.18304 17.063 8.31762C17.1038 8.4522 17.1414 8.58768 17.1758 8.72407C17.2098 8.86092 17.2406 8.99821 17.2682 9.13596C17.2954 9.27417 17.3195 9.41282 17.3403 9.55193C17.3611 9.69104 17.3784 9.8306 17.392 9.97062C17.4055 10.1111 17.416 10.2511 17.4228 10.3916C17.43 10.5325 17.4332 10.673 17.4332 10.8139V150.062L47.0254 113.304C47.1269 113.2 47.237 113.106 47.3553 113.022C47.4849 112.89 47.6249 112.771 47.7753 112.664C47.933 112.571 48.0984 112.498 48.2724 112.444C48.4365 112.371 48.6055 112.316 48.7808 112.279C48.9589 112.257 49.1379 112.252 49.3173 112.264C49.4981 112.261 49.6776 112.274 49.8561 112.303C50.0364 112.353 50.21 112.42 50.3772 112.503C50.5136 112.545 50.6463 112.595 50.7755 112.655L62.4915 120.099L71.9024 108.171C70.8027 107.528 69.7428 106.862 68.7111 106.13C68.1673 105.746 67.6326 105.35 67.1061 104.943C66.58 104.536 66.063 104.117 65.5551 103.686C65.0471 103.256 64.5491 102.815 64.0607 102.364C63.5722 101.911 63.0937 101.449 62.6256 100.976C62.1575 100.503 61.6999 100.02 61.2526 99.5272C60.8059 99.0341 60.37 98.5316 59.9449 98.0191C59.5199 97.5071 59.1066 96.9856 58.7047 96.4554C58.3023 95.9248 57.9122 95.386 57.5338 94.8387C57.1555 94.2913 56.7894 93.7358 56.4355 93.1721C56.0816 92.6084 55.7404 92.0374 55.4114 91.4588C55.0824 90.8802 54.7666 90.2947 54.463 89.7025C54.1599 89.1098 53.8699 88.5112 53.593 87.9059C53.3162 87.3009 53.0529 86.6897 52.8028 86.073C52.5526 85.4563 52.3166 84.8346 52.0936 84.2074C51.8707 83.5803 51.6623 82.9487 51.467 82.312C51.2721 81.6758 51.0913 81.0356 50.9241 80.3912C50.7574 79.7473 50.6047 79.0998 50.4665 78.4487C50.3278 77.7975 50.2036 77.1441 50.094 76.4876C49.9843 75.8314 49.8892 75.173 49.8081 74.5124C49.7274 73.8517 49.6612 73.1897 49.6096 72.5263C49.5575 71.8625 49.5203 71.1982 49.4981 70.5335C49.4755 69.8683 49.4673 69.2031 49.4741 68.5375C49.4805 67.8718 49.5017 67.2071 49.5375 66.5424C49.5738 65.8781 49.6241 65.2147 49.6889 64.5522C49.7541 63.8898 49.8334 63.2291 49.9272 62.5707C50.0215 61.9119 50.1298 61.2553 50.2526 60.601C50.3754 59.9471 50.5127 59.296 50.664 58.648C50.8154 58.0001 50.9807 57.3557 51.1606 56.715C51.3405 56.0738 51.534 55.4376 51.7416 54.8051C51.9495 54.173 52.1707 53.5454 52.4058 52.9232C52.641 52.3006 52.8898 51.6835 53.1521 51.0718C53.4145 50.4601 53.69 49.8547 53.9791 49.2552C54.2677 48.6557 54.57 48.0626 54.8849 47.4762C55.1998 46.8903 55.5274 46.3112 55.8677 45.7389C56.208 45.1671 56.561 44.603 56.9257 44.047C57.291 43.4905 57.6684 42.9423 58.0577 42.4026C58.4469 41.8625 58.8475 41.3314 59.2603 40.8094C59.6726 40.2869 60.0963 39.7745 60.5313 39.2706C60.9667 38.7672 61.4126 38.2733 61.8693 37.7893C62.3256 37.3049 62.7928 36.8314 63.2704 36.3679C63.748 35.9043 64.2356 35.4516 64.7331 35.0094C65.2306 34.5672 65.7372 34.1362 66.2538 33.7162C66.7699 33.2966 67.2955 32.8883 67.8298 32.4914C68.364 32.0944 68.9068 31.7097 69.4578 31.3368C70.0088 30.9639 70.568 30.6032 71.1353 30.2548C71.7022 29.9063 72.2767 29.5705 72.8585 29.2475C73.4399 28.9239 74.0285 28.614 74.6239 28.3167C75.2193 28.019 75.8211 27.7349 76.4292 27.464C77.0368 27.193 77.6503 26.9356 78.2698 26.6918C78.8887 26.4476 79.5131 26.2174 80.1421 26.0008C80.7715 25.7842 81.4054 25.5817 82.0434 25.3927C82.6818 25.2042 83.3239 25.0298 83.9696 24.8689C84.6153 24.7085 85.2646 24.5621 85.9167 24.4303C86.5692 24.298 87.224 24.1802 87.8814 24.0769C88.5389 23.9735 89.1982 23.8847 89.8598 23.8104C90.5209 23.7361 91.1838 23.6763 91.8476 23.631C92.5115 23.5861 93.1762 23.5553 93.8414 23.5394C94.507 23.5231 95.1722 23.5218 95.8379 23.5349C96.503 23.5481 97.1678 23.5757 97.8321 23.6183C98.4963 23.6604 99.1593 23.7175 99.8208 23.7887C100.482 23.8603 101.142 23.9464 101.8 24.0465C102.458 24.1471 103.113 24.2617 103.766 24.3913C104.419 24.5205 105.069 24.6637 105.716 24.8213C106.362 24.979 107.005 25.1512 107.644 25.337C108.283 25.5232 108.917 25.7231 109.548 25.9369C110.178 26.1504 110.803 26.3783 111.423 26.6193C112.043 26.8609 112.658 27.1155 113.267 27.3838C113.876 27.652 114.479 27.9334 115.076 28.2284C115.672 28.5229 116.262 28.8306 116.846 29.1514C117.429 29.4718 118.005 29.8053 118.573 30.151C119.142 30.4972 119.703 30.8552 120.255 31.2258C120.808 31.5965 121.352 31.9789 121.888 32.3736C122.425 32.7678 122.951 33.1738 123.47 33.5916C123.988 34.0089 124.497 34.438 124.996 34.878C125.495 35.3175 125.985 35.7684 126.465 36.2297C126.944 36.6914 127.413 37.1631 127.872 37.6452C128.331 38.1269 128.779 38.619 129.216 39.1206C129.653 39.6222 130.08 40.1333 130.494 40.654C130.909 41.1742 131.312 41.7034 131.704 42.2417C132.096 42.7796 132.475 43.3261 132.842 43.8811C133.21 44.4358 133.565 44.9985 133.908 45.5686C134.251 46.1391 134.581 46.7168 134.899 47.3018C135.216 47.8868 135.521 48.4781 135.812 49.0762C136.104 49.6748 136.382 50.2788 136.647 50.8896C136.912 51.5 137.163 52.1158 137.401 52.7375C137.639 53.3591 137.863 53.9854 138.074 54.6166C138.284 55.2482 138.481 55.884 138.663 56.5238C138.846 57.1636 139.014 57.8075 139.168 58.455C139.322 59.1021 139.462 59.7527 139.588 60.4062C139.714 61.0596 139.825 61.7157 139.922 62.3741C140.019 63.0325 140.101 63.6927 140.169 64.3547C140.237 65.0167 140.29 65.6801 140.329 66.3444C140.368 67.0086 140.392 67.6734 140.401 68.339C140.411 69.0042 140.406 69.6698 140.386 70.335C140.366 71.0002 140.332 71.6645 140.284 72.3283C140.235 72.9921 140.171 73.6542 140.093 74.3153L154.244 56.3715L147.481 57.5216C147.389 57.5361 147.297 57.546 147.205 57.5515C147.113 57.5569 147.021 57.5578 146.928 57.5542C146.835 57.5506 146.743 57.5424 146.652 57.5297C146.56 57.5175 146.469 57.5003 146.379 57.479C146.289 57.4577 146.2 57.4318 146.113 57.4019C146.026 57.3716 145.939 57.3376 145.855 57.2991C145.771 57.2606 145.689 57.2184 145.609 57.1717C145.529 57.1255 145.451 57.0752 145.376 57.0213C145.301 56.9674 145.229 56.9098 145.159 56.8487C145.09 56.7875 145.023 56.7236 144.96 56.6561C144.897 56.5886 144.837 56.5179 144.78 56.4445C144.724 56.3715 144.671 56.2954 144.622 56.217C144.573 56.1386 144.528 56.058 144.487 55.975C144.446 55.8921 144.409 55.8074 144.376 55.7208C144.343 55.6343 144.315 55.5464 144.29 55.4571C144.266 55.3679 144.246 55.2777 144.23 55.1866C144.215 55.0955 144.204 55.0035 144.197 54.9111C144.19 54.8191 144.189 54.7267 144.191 54.6342C144.193 54.5418 144.2 54.4494 144.211 54.3578C144.223 54.2659 144.239 54.1748 144.259 54.0846C144.279 53.9944 144.304 53.9052 144.333 53.8173C144.362 53.7294 144.395 53.6433 144.432 53.5585C144.469 53.4738 144.511 53.3913 144.557 53.3107C144.602 53.23 144.651 53.1516 144.704 53.0759C144.757 53.0003 144.813 52.9269 144.874 52.8566C144.934 52.7864 144.997 52.7193 145.064 52.655C145.131 52.5911 145.2 52.5304 145.273 52.4728C145.346 52.4157 145.421 52.3618 145.499 52.312C145.576 52.2617 145.657 52.2159 145.739 52.1738C145.821 52.1312 145.905 52.0931 145.992 52.0591C146.078 52.0252 146.165 51.9957 146.254 51.9703C146.343 51.9445 146.433 51.9237 146.524 51.9069L160.567 49.5185C160.607 49.5185 160.64 49.5185 160.675 49.5185C160.777 49.5121 160.88 49.5121 160.983 49.5185C161.249 49.4994 161.513 49.5185 161.774 49.5756C161.818 49.5932 161.86 49.6132 161.902 49.6349C162.214 49.7319 162.501 49.8787 162.762 50.0749L162.791 50.0903C162.843 50.132 162.867 50.1936 162.92 50.2398C163.145 50.4288 163.333 50.6486 163.485 50.8996C163.539 51.0079 163.582 51.1198 163.615 51.2363C163.712 51.4252 163.786 51.6232 163.835 51.8299L166.224 65.8677C166.241 65.9606 166.254 66.0539 166.262 66.1477C166.27 66.2415 166.273 66.3357 166.272 66.43C166.271 66.5242 166.265 66.618 166.254 66.7118C166.244 66.8056 166.229 66.8985 166.209 66.9905C166.189 67.0829 166.165 67.174 166.136 67.2637C166.107 67.3535 166.074 67.4414 166.036 67.5279C165.999 67.6145 165.957 67.6987 165.911 67.7812C165.865 67.8637 165.815 67.9434 165.761 68.0205C165.707 68.0979 165.649 68.1727 165.588 68.2443C165.527 68.3159 165.462 68.3843 165.394 68.4496C165.326 68.5148 165.255 68.5764 165.181 68.6344C165.107 68.6924 165.03 68.7468 164.95 68.7976C164.871 68.8479 164.789 68.8945 164.704 68.9367C164.62 68.9793 164.534 69.0173 164.446 69.0509C164.358 69.0849 164.268 69.1143 164.177 69.1392C164.087 69.1641 163.995 69.1845 163.902 69.2004C163.809 69.2158 163.715 69.2271 163.621 69.2335C163.527 69.2403 163.433 69.2421 163.339 69.2394C163.244 69.2362 163.15 69.2289 163.057 69.2167C162.963 69.2045 162.871 69.1877 162.779 69.1664C162.687 69.1451 162.597 69.1193 162.507 69.0889C162.418 69.0586 162.331 69.0237 162.245 68.9847C162.159 68.9457 162.075 68.9027 161.994 68.8551C161.912 68.808 161.833 68.7563 161.757 68.7015C161.68 68.6462 161.607 68.5873 161.536 68.5248C161.466 68.4623 161.398 68.3966 161.334 68.3272C161.27 68.2579 161.21 68.1859 161.153 68.1106C161.096 68.0354 161.043 67.9575 160.994 67.8773C160.945 67.7966 160.9 67.7141 160.859 67.629C160.818 67.5442 160.781 67.4577 160.749 67.3689C160.716 67.2805 160.689 67.1903 160.665 67.0993C160.642 67.0077 160.623 66.9153 160.609 66.8224L159.289 59.0853L136.031 88.6082C135.998 88.6499 135.945 88.6676 135.908 88.7115C134.803 91.0388 133.51 93.2573 132.03 95.3666C131.658 95.8917 131.275 96.4087 130.882 96.9176C130.487 97.4265 130.083 97.9267 129.668 98.4184C129.253 98.91 128.827 99.3926 128.391 99.8661C127.955 100.34 127.51 100.804 127.054 101.259C126.599 101.713 126.134 102.158 125.659 102.593C125.185 103.027 124.701 103.452 124.209 103.866C123.716 104.28 123.215 104.684 122.705 105.077C122.196 105.469 121.678 105.851 121.152 106.222C120.626 106.593 120.092 106.953 119.551 107.301C119.01 107.649 118.461 107.985 117.906 108.31C117.35 108.635 116.788 108.948 116.219 109.248C115.65 109.549 115.075 109.838 114.493 110.114C113.913 110.39 113.326 110.655 112.733 110.906C112.141 111.157 111.543 111.396 110.941 111.622C110.338 111.848 109.731 112.061 109.119 112.261C108.508 112.461 107.892 112.648 107.272 112.822C106.653 112.996 106.03 113.157 105.403 113.304C104.777 113.451 104.147 113.585 103.515 113.706C102.883 113.826 102.249 113.934 101.612 114.027C100.975 114.121 100.337 114.201 99.6967 114.267C99.0564 114.333 98.4152 114.386 97.7727 114.425C97.1306 114.465 96.4876 114.49 95.8442 114.502C95.2008 114.514 94.5573 114.512 93.9139 114.496C93.2705 114.48 92.6279 114.451 91.9854 114.408C91.3433 114.365 90.7026 114.309 90.0628 114.238C89.423 114.168 88.785 114.084 88.1492 113.987C87.513 113.889 86.8791 113.778 86.2475 113.654C85.6163 113.53 84.9878 113.392 84.362 113.241C83.7367 113.09 83.1146 112.925 82.496 112.748C81.8775 112.57 81.2626 112.379 80.6523 112.176C80.0419 111.972 79.4361 111.755 78.8348 111.525C78.2335 111.296 77.6376 111.054 77.0468 110.799L65.3638 125.624C65.2633 125.725 65.1554 125.817 65.0403 125.901C64.9189 126.04 64.7798 126.16 64.6234 126.258C64.4667 126.356 64.2995 126.43 64.1209 126.479C63.9555 126.55 63.7847 126.604 63.6089 126.642C63.4304 126.665 63.2514 126.67 63.0719 126.658C62.892 126.661 62.7131 126.648 62.5354 126.618C62.3537 126.569 62.1793 126.502 62.0121 126.416C61.8761 126.374 61.7443 126.323 61.616 126.262L49.8955 118.817L21.1284 154.513H165.076C165.216 154.513 165.357 154.517 165.498 154.524C165.638 154.531 165.779 154.541 165.919 154.555C166.059 154.568 166.198 154.585 166.337 154.606C166.477 154.627 166.616 154.651 166.753 154.678C166.891 154.706 167.029 154.736 167.165 154.771C167.302 154.805 167.438 154.842 167.572 154.883C167.707 154.924 167.84 154.968 167.973 155.015C168.105 155.063 168.237 155.113 168.367 155.167C168.497 155.221 168.626 155.278 168.753 155.339C168.88 155.398 169.006 155.462 169.13 155.528C169.254 155.595 169.376 155.664 169.497 155.736C169.618 155.808 169.737 155.884 169.854 155.962C169.971 156.04 170.086 156.121 170.199 156.205C170.312 156.289 170.423 156.375 170.532 156.465C170.641 156.554 170.747 156.646 170.851 156.741C170.956 156.835 171.058 156.932 171.157 157.031C171.256 157.131 171.353 157.233 171.448 157.337C171.543 157.441 171.634 157.548 171.724 157.657C171.813 157.765 171.9 157.877 171.984 157.989C172.068 158.103 172.148 158.218 172.227 158.335C172.305 158.452 172.38 158.57 172.452 158.691C172.525 158.812 172.594 158.935 172.66 159.058C172.727 159.182 172.79 159.308 172.85 159.436C172.91 159.563 172.967 159.691 173.021 159.821C173.075 159.951 173.126 160.083 173.173 160.215C173.22 160.348 173.265 160.482 173.305 160.616C173.346 160.751 173.384 160.886 173.418 161.023C173.452 161.159 173.483 161.297 173.51 161.435C173.537 161.573 173.561 161.711 173.582 161.85C173.603 161.99 173.62 162.13 173.634 162.27C173.648 162.41 173.658 162.55 173.665 162.691C173.672 162.831 173.675 162.972 173.675 163.112ZM72.008 101.487C72.627 101.926 73.2577 102.346 73.9007 102.749C74.5437 103.152 75.1976 103.535 75.8627 103.9C76.5275 104.265 77.2022 104.611 77.8873 104.938C78.572 105.264 79.2653 105.571 79.9676 105.857C80.67 106.144 81.38 106.411 82.0977 106.657C82.815 106.903 83.5391 107.128 84.2696 107.333C85 107.537 85.7359 107.721 86.4767 107.883C87.2181 108.045 87.963 108.187 88.712 108.306C89.461 108.426 90.2132 108.524 90.9677 108.601C91.7226 108.678 92.4788 108.733 93.2365 108.766C93.9945 108.799 94.7526 108.811 95.5112 108.801C96.2697 108.791 97.0273 108.76 97.784 108.706C98.5408 108.653 99.2952 108.577 100.048 108.481C100.8 108.384 101.549 108.266 102.295 108.127C103.04 107.987 103.782 107.826 104.518 107.644C105.254 107.462 105.985 107.259 106.71 107.035C107.435 106.811 108.152 106.567 108.863 106.302C109.574 106.037 110.277 105.752 110.971 105.446C111.666 105.141 112.351 104.816 113.027 104.472C113.702 104.127 114.368 103.764 115.023 103.381C115.678 102.999 116.321 102.598 116.953 102.178C117.586 101.759 118.205 101.322 118.812 100.867C119.419 100.412 120.013 99.9395 120.593 99.4506C121.173 98.9616 121.738 98.4564 122.289 97.9353C122.84 97.4138 123.376 96.8773 123.896 96.3249C124.416 95.773 124.921 95.2066 125.408 94.6257C125.896 94.0448 126.367 93.4503 126.821 92.8426C127.275 92.2346 127.711 91.6142 128.129 90.9817C128.547 90.3486 128.947 89.7043 129.328 89.0486C129.71 88.393 130.072 87.7269 130.415 87.0503C130.758 86.3738 131.082 85.6878 131.386 84.9932C131.69 84.2981 131.974 83.5948 132.237 82.8834C132.501 82.172 132.744 81.4538 132.966 80.7288C133.189 80.0033 133.391 79.2725 133.571 78.5357C133.752 77.7989 133.911 77.0576 134.049 76.3117C134.187 75.5659 134.304 74.8169 134.399 74.0642C134.494 73.3116 134.568 72.5572 134.62 71.8C134.672 71.0433 134.702 70.2856 134.711 69.5271C134.72 68.7686 134.706 68.0105 134.672 67.2529C134.637 66.4952 134.58 65.739 134.502 64.9845C134.424 64.2296 134.324 63.4783 134.203 62.7293C134.082 61.9803 133.939 61.2358 133.775 60.495C133.612 59.7546 133.426 59.0191 133.221 58.2892C133.014 57.5592 132.788 56.8355 132.541 56.1182C132.293 55.4014 132.025 54.6918 131.737 53.9904C131.449 53.2885 131.141 52.5956 130.813 51.9114C130.486 51.2272 130.139 50.5529 129.772 49.8891C129.406 49.2248 129.021 48.5714 128.617 47.9294C128.213 47.2873 127.791 46.657 127.351 46.0389C126.911 45.4213 126.454 44.8164 125.979 44.2246C125.505 43.6328 125.014 43.0551 124.506 42.4914C123.998 41.9277 123.475 41.379 122.936 40.8452C122.397 40.3114 121.843 39.7935 121.274 39.2919C120.705 38.7898 120.123 38.3045 119.526 37.836C118.93 37.3675 118.32 36.9161 117.698 36.4825C117.075 36.0489 116.441 35.6334 115.795 35.236C115.149 34.8386 114.492 34.4602 113.824 34.1004C113.156 33.7407 112.478 33.4004 111.791 33.0795C111.104 32.7587 110.408 32.4579 109.703 32.1765C108.998 31.8955 108.286 31.635 107.567 31.3948C106.847 31.1547 106.121 30.9349 105.389 30.7364C104.657 30.5375 103.92 30.3603 103.178 30.2036C102.435 30.0472 101.689 29.9122 100.939 29.7985C100.189 29.6847 99.4361 29.5927 98.6812 29.5221C97.9259 29.4514 97.1691 29.4024 96.4111 29.3752C95.653 29.3481 94.8944 29.3426 94.1359 29.3589C93.3778 29.3752 92.6202 29.4129 91.864 29.4727C91.1077 29.532 90.3541 29.6131 89.6024 29.716C88.8507 29.8189 88.1026 29.943 87.3581 30.0885C86.6136 30.2344 85.8741 30.4011 85.1391 30.5892C84.4042 30.7768 83.6751 30.9856 82.9523 31.2154C82.2292 31.4451 81.5132 31.6957 80.805 31.9662C80.0963 32.2372 79.3958 32.5276 78.7038 32.8385C78.0119 33.1493 77.3295 33.4801 76.6562 33.8299C75.9833 34.1797 75.3208 34.5486 74.6688 34.9364C74.0172 35.3243 73.3769 35.7308 72.748 36.1553C72.1195 36.5799 71.5032 37.0222 70.9001 37.4821C70.297 37.942 69.707 38.4187 69.1311 38.9122C68.5552 39.4056 67.9938 39.9154 67.4469 40.4415C66.8999 40.9671 66.3689 41.5081 65.8532 42.0646C65.3371 42.6205 64.8378 43.191 64.3547 43.776C63.8717 44.3605 63.4054 44.9591 62.9568 45.5704C62.5078 46.1821 62.0769 46.8061 61.6636 47.4422C61.2504 48.0784 60.8562 48.7259 60.4801 49.3848C60.104 50.0432 59.7469 50.7124 59.4093 51.3917C59.0717 52.0709 58.7537 52.7592 58.4555 53.4566C58.1569 54.1544 57.8791 54.8594 57.6213 55.5731C57.3635 56.2863 57.126 57.0068 56.9094 57.7336C56.6928 58.4604 56.4971 59.1931 56.3226 59.9313C56.1477 60.6694 55.9946 61.4121 55.8623 62.1593C55.7304 62.906 55.6198 63.6564 55.5306 64.4095C55.4413 65.1631 55.3738 65.918 55.328 66.6751C55.2823 67.4323 55.2583 68.1904 55.2555 68.9489C55.2533 69.7074 55.2723 70.4655 55.3135 71.2231C55.3543 71.9803 55.4168 72.7361 55.5011 73.4901C55.5854 74.2437 55.6914 74.9945 55.8188 75.7426C55.9266 76.3838 56.0508 77.0222 56.1903 77.6575C56.3299 78.2928 56.4853 78.924 56.6561 79.5516C56.8265 80.1792 57.0128 80.8022 57.2144 81.4207C57.416 82.0392 57.6326 82.6523 57.8642 83.26C58.0957 83.8676 58.3422 84.4694 58.6037 85.0652C58.8651 85.6606 59.1411 86.2492 59.4315 86.8315C59.7215 87.4133 60.026 87.9879 60.345 88.5547C60.6636 89.122 60.9962 89.6807 61.3424 90.2313C61.6885 90.7818 62.0483 91.3238 62.4212 91.8567C62.7942 92.3895 63.1798 92.9129 63.5785 93.4267C63.9773 93.9406 64.3887 94.4445 64.8124 94.9379C65.2356 95.4314 65.6711 95.9144 66.1188 96.3865C66.566 96.8587 67.025 97.3195 67.4949 97.769C67.9648 98.2185 68.446 98.6562 68.9376 99.0822C69.4293 99.5077 69.9309 99.9214 70.4429 100.322C70.955 100.723 71.477 101.112 72.008 101.487ZM169.276 163.112C169.276 162.975 169.269 162.838 169.255 162.701C169.241 162.565 169.221 162.429 169.193 162.294C169.166 162.159 169.133 162.026 169.093 161.894C169.052 161.763 169.006 161.634 168.953 161.507C168.9 161.38 168.841 161.256 168.776 161.135C168.712 161.014 168.641 160.896 168.564 160.782C168.488 160.668 168.406 160.557 168.319 160.451C168.231 160.345 168.139 160.243 168.042 160.146C167.945 160.049 167.843 159.957 167.737 159.869C167.631 159.782 167.52 159.7 167.406 159.624C167.292 159.547 167.174 159.476 167.053 159.412C166.932 159.347 166.808 159.288 166.681 159.235C166.554 159.182 166.425 159.136 166.293 159.096C166.162 159.056 166.029 159.022 165.894 158.995C165.76 158.968 165.624 158.947 165.487 158.933C165.35 158.92 165.213 158.912 165.076 158.912H13.0347V10.8139C13.0347 10.6761 13.0279 10.5388 13.0143 10.402C13.0007 10.2651 12.9808 10.1292 12.954 9.99418C12.9273 9.85915 12.8938 9.72593 12.8539 9.59452C12.814 9.46266 12.7674 9.33352 12.7148 9.2062C12.6622 9.07932 12.6033 8.95471 12.5385 8.83373C12.4737 8.71229 12.403 8.59448 12.3265 8.47984C12.2503 8.36565 12.1683 8.25509 12.0813 8.14906C11.9939 8.04257 11.9014 7.94062 11.8045 7.84365C11.707 7.74623 11.6051 7.65379 11.4986 7.56679C11.3926 7.47934 11.282 7.39732 11.1678 7.3212C11.0532 7.24462 10.9354 7.17393 10.8139 7.10913C10.693 7.04434 10.5683 6.98543 10.4415 6.93287C10.3141 6.88031 10.185 6.83409 10.0531 6.79376C9.92173 6.75388 9.78852 6.72081 9.65348 6.69362C9.51845 6.66688 9.38251 6.64695 9.24567 6.63335C9.10883 6.61976 8.97153 6.61296 8.83378 6.61296C8.69648 6.61296 8.55919 6.61976 8.42234 6.63335C8.28505 6.64695 8.14911 6.66688 8.01453 6.69362C7.8795 6.72081 7.74628 6.75388 7.61442 6.79376C7.48302 6.83409 7.35342 6.88031 7.22655 6.93287C7.09922 6.98543 6.97506 7.04434 6.85362 7.10913C6.73219 7.17393 6.61438 7.24462 6.50019 7.3212C6.38555 7.39732 6.27544 7.47934 6.16895 7.56679C6.06247 7.65379 5.96097 7.74623 5.86355 7.84365C5.76612 7.94062 5.67414 8.04257 5.58669 8.14906C5.49923 8.25509 5.41767 8.36565 5.34109 8.47984C5.26452 8.59448 5.19383 8.71229 5.12903 8.83373C5.06423 8.95471 5.00533 9.07932 4.95277 9.2062C4.9002 9.33352 4.85398 9.46266 4.81411 9.59452C4.77423 9.72593 4.7407 9.85915 4.71397 9.99418C4.68723 10.1292 4.66684 10.2651 4.65325 10.402C4.63966 10.5388 4.63331 10.6761 4.63331 10.8139V163.112C4.63377 163.25 4.64056 163.387 4.65461 163.524C4.6682 163.661 4.68905 163.796 4.71623 163.931C4.74297 164.066 4.77695 164.199 4.81683 164.33C4.85716 164.462 4.90383 164.591 4.95639 164.718C5.00941 164.845 5.06786 164.969 5.13311 165.09C5.19791 165.211 5.26859 165.329 5.34517 165.443C5.42175 165.557 5.50331 165.668 5.59077 165.774C5.67777 165.88 5.7702 165.982 5.86717 166.079C5.96459 166.176 6.06609 166.268 6.17258 166.355C6.27861 166.443 6.38917 166.525 6.50336 166.601C6.61755 166.678 6.73491 166.748 6.85634 166.813C6.97733 166.878 7.10148 166.937 7.22836 166.99C7.35523 167.043 7.48438 167.089 7.61578 167.129C7.74719 167.169 7.88041 167.203 8.01544 167.23C8.15002 167.258 8.28595 167.278 8.42234 167.292C8.55919 167.306 8.69648 167.313 8.83378 167.313C9.0182 167.309 9.20127 167.295 9.38387 167.269C9.56603 167.295 9.74955 167.309 9.93352 167.313H165.076C165.213 167.313 165.35 167.306 165.487 167.292C165.624 167.278 165.76 167.257 165.894 167.23C166.029 167.203 166.162 167.169 166.293 167.129C166.425 167.089 166.554 167.043 166.681 166.99C166.808 166.937 166.932 166.878 167.053 166.813C167.174 166.748 167.292 166.678 167.406 166.601C167.52 166.525 167.631 166.443 167.737 166.355C167.843 166.268 167.945 166.176 168.042 166.079C168.139 165.982 168.231 165.88 168.319 165.774C168.406 165.668 168.488 165.557 168.564 165.443C168.641 165.329 168.712 165.211 168.776 165.09C168.841 164.969 168.9 164.845 168.953 164.718C169.006 164.591 169.052 164.462 169.093 164.33C169.133 164.199 169.166 164.066 169.193 163.931C169.221 163.796 169.241 163.661 169.255 163.524C169.269 163.387 169.276 163.25 169.276 163.112Z" fill="#FF8144"/>
</g>
</svg>
